<?xml version="1.0" encoding="utf-8"?>
<!-- Generator: Adobe Illustrator 28.0.0, SVG Export Plug-In . SVG Version: 6.00 Build 0)  -->
<svg version="1.1" id="Layer_2_00000018226869542673985530000005873675206453861803_"
	 xmlns="http://www.w3.org/2000/svg" xmlns:xlink="http://www.w3.org/1999/xlink" x="0px" y="0px" viewBox="0 0 791 608.1"
	 style="enable-background:new 0 0 791 608.1;" xml:space="preserve">
<style type="text/css">
	.st0{fill:#29ABE2;stroke:#FFFFFF;stroke-width:7;stroke-miterlimit:10;}
	.st1{fill:#FFFFFF;}
</style>
<path class="st0" d="M523.2,209.4c0,0-103.7-77.3-131.8,36c-98.4-13.2-82.6,89.6-49.2,107.2c-29,47.5,39.5,93.1,94,76.4
	c9.7,60.6,111.6,65,130.9,14.9c37.8,42.2,164.3-16.7,110.7-88.7c42.2-8.8,4.4-135.3-59.8-110.7C638.3,219.1,572.4,144.4,523.2,209.4
	L523.2,209.4z"/>
<path class="st1" d="M419,339.7l-3.3-12.8l-13.5,0.5l-2.1,11.1l-16,0.8l14.4-52.9l18.1-1.5l18.8,54L419,339.7L419,339.7z
	 M408.1,301.1l-4,16.5h9.2L408.1,301.1L408.1,301.1z"/>
<path class="st1" d="M438.3,288c4.1-1.1,12-2,18-2c11,0,22.1,2.8,22.1,11.8c0,4.8-4.6,8.6-10.7,12c8.3,1.3,15.8,5.5,15.8,12
	c0,13-15.8,17.9-29.6,17.9c-4.4,0-10.7-0.5-14.1-1.4L438.3,288L438.3,288z M452.4,305.8c0.5,0.1,0.9,0.1,1.5,0.1
	c2.9,0,8.1-2.2,8.1-6c0-3-2.8-4.1-5.7-4.1c-1.5,0-3,0.3-4.2,0.8L452.4,305.8L452.4,305.8z M452.9,327.8c1.1,0.2,2.6,0.4,4.3,0.4
	c4.4,0,9.6-1.2,9.6-5.7c0-4-3.7-5.2-7.6-5.2c-2.4,0-4.8,0.5-6.5,1.1L452.9,327.8L452.9,327.8z"/>
<path class="st1" d="M486.1,313.4c0-15.1,11-28.2,25.5-28.2c14.5,0,25.6,12.5,25.6,28c0,15.5-11.3,27.8-25.8,27.8
	C496.8,341,486.1,328.3,486.1,313.4z M521.6,314.2c0-6.5-3.8-12-9.7-12c-6.3,0-10.7,5.7-10.7,12.3s3.3,11.9,10.5,11.9
	C518.1,326.3,521.6,320.7,521.6,314.2L521.6,314.2z"/>
<path class="st1" d="M586.1,287.1c0.4,3.9,0.7,8,0.7,12.5c0,23.2-5.7,42.1-22,42.1c-14.7,0-23.8-21.4-23.8-44.8
	c0-3.3,0.2-6.5,0.6-9.7l18.4,1.5c-0.3,2.3-0.6,6.6-0.6,10.9c0,14.3,2,23.7,7.2,23.7s7.5-7.3,7.5-18.9c0-5.7-0.7-11.9-1.7-17.3
	L586.1,287.1L586.1,287.1z"/>
<path class="st1" d="M600.8,339.9l0.3-38.4l-11.4,0.3l-1.4-13l40.6-2.5l0.1,14l-11.1,0.5l-2.3,40.6L600.8,339.9L600.8,339.9z"/>
<path d="M563.4,408.7l-2.1-32.6l-11.6,31.4l-8-0.5l-10.4-30.2l-2.1,32l-17-2.8l8.8-52.5l17.8,1.4l9.3,25.4l10-23.8l18.2-0.7
	l5.2,53.5L563.4,408.7z"/>
<path d="M588.2,411.7l-2.8-54.9l35-3.4l0.3,17.5l-21.9,1.7l0.3,6.4l17.9-1.6l0.7,10.1l-17.8,1.9l0.3,7.2l20.7-2.5l1,12.2
	L588.2,411.7L588.2,411.7z"/>
<path d="M492.5,205.8c4.2,2.4,7,7.9,1,10.5c-2.6,1.1-6.4,0.7-9.2,0.6c-3.5-0.1-7.1-0.4-10.7-0.2c-7.5,0.3-14.4,3.1-19.4,8.5
	c-3.9,4.1-7.3,9.4-11.8,12.7c-4.3,3.1-11,4-15,0c-4.6-4.6-1.3-9,1.6-13.1c3.9-5.5,7.6-10.1,13.7-13.4c5.4-2.9,10.9-5.4,16.9-6.6
	c6-1.2,11.5-1.6,17.7-1.4c2.8,0.1,5.5,0.3,8.3,0.5c1.5,0.1,3.1,0.3,4.6,0.8C491,205,492.9,205.3,492.5,205.8L492.5,205.8z"/>
<path d="M682.4,392c0.6,4.3-1,8.7-2.2,12.8c-1.4,4.8-3.4,8.9-6.3,13c-6.4,8.9-15.4,14.4-26,16.8c-3.3,0.7-12,2.6-11.1-3.4
	c0.6-4.1,4.8-7.4,8.3-9.2c4.6-2.5,9-4.1,12.9-7.7c3.7-3.5,5.4-8.4,7.4-12.9c1.8-4.2,2.6-10.1,6.2-13.1c2.3-2,9.6-2.6,9.8,1.5
	c0,0.7-0.2,2-0.2,2L682.4,392L682.4,392z"/>
</svg>
