<?xml version="1.0" encoding="UTF-8"?><svg id="Layer_1" xmlns="http://www.w3.org/2000/svg" viewBox="0 0 172.76 168.5"><defs><style>.cls-1{fill:#e5b27f;stroke-width:0px;}.cls-2{fill:none;stroke:#000;stroke-miterlimit:10;stroke-width:3px;}</style></defs><path class="cls-1" d="m130.31,114.03c4.81,19.13.46,37.55-12.88,46.98-18.93,13.37-48.89,3.62-67.36-21.75-15.43,3.37-31.88-2.3-41.37-15.73C-1.95,108.46-.47,88.4,11.07,74.58,2.36,52.64,8.88,27.23,28.33,13.49c15.84-11.19,36.13-11.71,52.71-3.11,23.81-16.8,58.48-9.1,77.74,17.39,19.4,26.7,15.8,62.4-8.03,79.71-5.83,4.24-12.35,6.99-19.13,8.33l-1.31-1.78Z"/><path class="cls-2" d="m131.62,115.81c6.78-1.33,13.3-4.08,19.13-8.33,23.83-17.31,27.43-53.01,8.03-79.71C139.51,1.28,104.84-6.41,81.04,10.39c-.19.13-.37.27-.55.4l-.19.13"/><path class="cls-2" d="m11.07,74.58C2.36,52.64,8.88,27.23,28.33,13.49c15.84-11.19,36.13-11.71,52.71-3.11,7.01,3.65,13.36,8.91,18.43,15.68"/><path class="cls-2" d="m50.07,139.26c-15.43,3.37-31.88-2.3-41.37-15.73C-1.95,108.46-.47,88.4,11.07,74.58"/><path class="cls-2" d="m36.09,102.66c.81,11.67,5.22,24.24,13.29,35.66.22.32.45.63.68.94,18.47,25.37,48.43,35.12,67.36,21.75,13.34-9.42,17.69-27.85,12.88-46.98-1.11-4.41-2.71-8.86-4.8-13.25"/><line class="cls-2" x1="125.51" y1="100.78" x2="125.51" y2="100.79"/><line class="cls-2" x1="68.3" y1="23.41" x2="67.81" y2="23.37"/></svg>