<?xml version="1.0" encoding="UTF-8"?><svg id="Layer_1" xmlns="http://www.w3.org/2000/svg" viewBox="0 0 170.56 166.76"><defs><style>.cls-1{fill:none;stroke:#000;stroke-miterlimit:10;}.cls-2{fill:#e6e6e6;stroke-width:0px;}</style></defs><path class="cls-2" d="m129.73,115.1c4.1,18.47-.38,36.04-13.3,45.17-18.93,13.37-48.89,3.62-67.36-21.75-15.43,3.37-31.88-2.3-41.37-15.73-10.65-15.07-9.16-35.13,2.38-48.95C1.36,51.89,7.88,26.49,27.33,12.75,43.1,1.61,63.28,1.04,79.81,9.53l.19-.13C104.06-7.59,139.01.47,158.06,27.43s14.98,62.6-9.08,79.6c-5.89,4.16-12.45,6.82-19.24,8.07Z"/><path class="cls-1" d="m129.73,115.1c6.8-1.25,13.35-3.9,19.24-8.07,24.06-17,28.13-52.64,9.08-79.6S104.06-7.59,80,9.4l-.19.13"/><path class="cls-1" d="m10.07,73.84C1.36,51.89,7.88,26.49,27.33,12.75,43.1,1.61,63.28,1.04,79.81,9.53c7.1,3.64,13.53,8.95,18.65,15.79"/><path class="cls-1" d="m49.07,138.52c-15.43,3.37-31.88-2.3-41.37-15.73-10.65-15.07-9.16-35.13,2.38-48.95"/><path class="cls-1" d="m35.09,101.92c.81,11.67,5.22,24.24,13.29,35.66.22.32.45.63.68.94,18.47,25.37,48.43,35.12,67.36,21.75,12.92-9.13,17.41-26.7,13.3-45.17-1.11-5-2.85-10.07-5.22-15.06"/><line class="cls-1" x1="124.51" y1="100.04" x2="124.51" y2="100.04"/><line class="cls-1" x1="67.3" y1="22.67" x2="66.81" y2="22.63"/></svg>