<?xml version="1.0" encoding="UTF-8"?><svg id="Layer_1" xmlns="http://www.w3.org/2000/svg" viewBox="0 0 172.56 168.76"><defs><style>.cls-1{fill:#ddb99b;stroke-width:0px;}.cls-2{fill:none;stroke:#000;stroke-miterlimit:10;stroke-width:3px;}</style></defs><path class="cls-1" d="m130.73,116.1c4.1,18.47-.38,36.04-13.3,45.17-18.93,13.37-48.89,3.62-67.36-21.75-15.43,3.37-31.88-2.3-41.37-15.73C-1.95,108.72-.47,88.66,11.07,74.84,2.36,52.89,8.88,27.49,28.33,13.75c15.77-11.14,35.95-11.71,52.49-3.22l.19-.13c24.06-17,59.01-8.93,78.06,18.03s14.98,62.6-9.08,79.6c-5.89,4.16-12.45,6.82-19.24,8.07Z"/><path class="cls-2" d="m130.73,116.1c6.8-1.25,13.35-3.9,19.24-8.07,24.06-17,28.13-52.64,9.08-79.6S105.06-6.59,81,10.4l-.19.13"/><path class="cls-2" d="m11.07,74.84C2.36,52.89,8.88,27.49,28.33,13.75c15.77-11.14,35.95-11.71,52.49-3.22,7.1,3.64,13.53,8.95,18.65,15.79"/><path class="cls-2" d="m50.07,139.52c-15.43,3.37-31.88-2.3-41.37-15.73C-1.95,108.72-.47,88.66,11.07,74.84"/><path class="cls-2" d="m36.09,102.92c.81,11.67,5.22,24.24,13.29,35.66.22.32.45.63.68.94,18.47,25.37,48.43,35.12,67.36,21.75,12.92-9.13,17.41-26.7,13.3-45.17-1.11-5-2.85-10.07-5.22-15.06"/><line class="cls-2" x1="125.51" y1="101.04" x2="125.51" y2="101.04"/><line class="cls-2" x1="68.3" y1="23.67" x2="67.81" y2="23.63"/></svg>