<?xml version="1.0" encoding="utf-8"?>
<!-- Generator: Adobe Illustrator 28.0.0, SVG Export Plug-In . SVG Version: 6.00 Build 0)  -->
<svg version="1.1" id="Layer_4" xmlns="http://www.w3.org/2000/svg" xmlns:xlink="http://www.w3.org/1999/xlink" x="0px" y="0px"
	 viewBox="0 0 791 608.1" style="enable-background:new 0 0 791 608.1;" xml:space="preserve">
<style type="text/css">
	.st0{fill:#C69C6D;stroke:#FFFFFF;stroke-width:7;stroke-miterlimit:10;}
	.st1{fill:none;stroke:#000000;stroke-miterlimit:10;}
	.st2{fill:#FFFFFF;}
</style>
<path class="st0" d="M530.9,294c0,0-103.7-77.3-131.8,36c-98.4-13.2-82.6,89.6-49.2,107.2c-29,47.5,39.5,93.1,94,76.4
	c9.7,60.6,111.6,65,130.9,14.9c37.8,42.2,164.3-16.7,110.7-88.7c42.2-8.8,4.4-135.3-59.8-110.7C646,303.7,580.1,229,530.9,294
	L530.9,294z"/>
<path d="M567.2,284.7c0.7-0.1,1.4-0.1,2.2-0.2l0,0.3c5.6-0.9,11.5-0.6,16.9,0.4c3.8,0.7,7.6,2.7,10.8,4.9c3.5,2.3,7.7,5.1,9.8,8.8
	c3.2,5.3,6.4,10.9,6,17.3c-0.2,3.6-3.4,4.1-6.5,4.1c-3.8,0-7.7-0.5-11.5-0.9c-3.3-0.4-7.1-1.5-10-3.3c-3.1-2-5-5.4-8.9-6.3
	c-3.3-0.8-5.9,0.4-8.9,1.7c-3.2,1.4-6.6,2.5-10.1,3.5c-6.6,1.8-13.2-4.9-14.8-10.8c-0.8-3.1,0.1-5.3,2.4-7.4c2.4-2.1,4.4-4.5,7-6.5
	C556.1,286.9,561.9,285.2,567.2,284.7L567.2,284.7z"/>
<path class="st1" d="M569.4,284.7c5.6-0.9,11.5-0.6,16.9,0.4c3.8,0.7,7.6,2.7,10.8,4.9c3.5,2.3,7.7,5.1,9.8,8.8
	c3.2,5.3,6.4,10.9,6,17.3c-0.2,3.6-3.4,4.1-6.5,4.1c-3.8,0-7.7-0.5-11.5-0.9c-3.3-0.4-7.1-1.5-10-3.3c-3.1-2-5-5.4-8.9-6.3
	c-3.3-0.8-5.9,0.4-8.9,1.7c-3.2,1.4-6.6,2.5-10.1,3.5c-6.6,1.8-13.2-4.9-14.8-10.8c-0.8-3.1,0.1-5.3,2.4-7.4c2.4-2.1,4.4-4.5,7-6.5
	c4.2-3.2,10.1-4.9,15.4-5.4c0.7-0.1,1.4-0.1,2.2-0.2c0.6-0.1,1.2-0.2,1.7-0.3"/>
<path d="M367.8,472c-7.8-7.9-9.5-36.2,4.2-25.6c12.9,10,20.3,25.8,38.5,24.9c7.3-0.3,13.2-1.8,19.1,3.9c5.6,5.4,8.8,12.9,0.4,16
	c-15.1,5.6-47.7-3.6-62.5-19L367.8,472z"/>
<path class="st1" d="M367.5,472.2c14.8,15.4,47.4,24.6,62.5,19c8.4-3.1,5.2-10.6-0.4-16c-5.9-5.6-11.8-4.2-19.1-3.9
	c-18.3,0.8-25.6-15-38.5-24.9c-13.7-10.6-12,17.7-4.2,25.6c1.7,1.7,3.7,2.5,5.9,1.6"/>
<path class="st2" d="M402.2,420.8c-4.3,1.5-8.4,2.2-12.2,2.2c-14.9,0-25.2-10.6-25.2-23.5c0-11.9,8.5-25,25.8-25
	c3,0,6.3,0.6,9.8,1.9l-4,11.6c-1.6-0.8-3.2-1.1-4.8-1.1c-8.2,0-11.9,5-11.9,10.1c0,7.5,4.7,10.8,10.2,10.8c2.5,0,5.1-0.6,7.5-1.9
	L402.2,420.8L402.2,420.8z"/>
<path class="st2" d="M402.1,398.4c0-14,10.2-26.1,23.6-26.1c13.4,0,23.7,11.6,23.7,25.9c0,14.3-10.4,25.7-23.9,25.7
	C412,423.9,402.1,412.2,402.1,398.4L402.1,398.4z M435,399.2c0-6-3.5-11.2-8.9-11.2c-5.8,0-9.9,5.3-9.9,11.3s3,11,9.7,11
	C431.7,410.4,435,405.1,435,399.2z"/>
<path class="st2" d="M485.6,423.7l-17-26.5l3.8,25.9l-17.7,2l-1-51.8l11,0.4l14.2,19.4l-2.9-21.2l15.9,1.8l1.8,49.1L485.6,423.7
	L485.6,423.7z"/>
<path class="st2" d="M507.6,422.9l0.3-35.5l-10.6,0.3l-1.3-12l37.5-2.3l0.1,13l-10.3,0.4l-2.1,37.5L507.6,422.9L507.6,422.9z"/>
<path class="st2" d="M560.7,424.1l-3-9.9l-12.8,0.9l-2.1,9.8l-14.7-2.8l15.5-49.7l13.8,0.4l17.5,47.1L560.7,424.1L560.7,424.1z
	 M550.4,389.8l-3.7,15.8l8.3-0.5L550.4,389.8L550.4,389.8z"/>
<path class="st2" d="M605,423.7c-1.9,0.3-3.7,0.3-5.4,0.3c-17.1,0-24.8-11.4-24.8-23.4c0-13.2,9.3-27.2,25.3-27.2
	c1.2,0,2.3,0.1,3.5,0.2l1.3,16.5c-9.5,0-14.6,4.6-14.6,9.9c0,4.4,4.7,6.2,9.1,6.2c2.1,0,4.1-0.4,5.6-1L605,423.7L605,423.7z"/>
<path class="st2" d="M618.3,422.9l0.3-35.5l-10.6,0.3l-1.3-12l37.5-2.3l0.1,13l-10.3,0.4l-2.1,37.5L618.3,422.9L618.3,422.9z"/>
<path d="M580.1,489.6l-1.9-29.2l-10.4,28.1l-7.2-0.5l-9.3-27l-1.9,28.7l-15.2-2.5l7.9-47l15.9,1.2l8.3,22.8l8.9-21.3l16.3-0.6
	l4.7,47.9L580.1,489.6L580.1,489.6z"/>
<path d="M602.3,492.2l-2.5-49.1l31.3-3l0.3,15.7l-19.6,1.5l0.3,5.8l16-1.4l0.6,9.1l-15.9,1.7l0.3,6.5l18.5-2.3l0.9,11L602.3,492.2
	L602.3,492.2z"/>
</svg>
