<?xml version="1.0" encoding="UTF-8"?><svg id="Layer_5" xmlns="http://www.w3.org/2000/svg" viewBox="0 0 791.03 608.13"><defs><style>.cls-1{fill:none;stroke:#000;}.cls-1,.cls-2{stroke-miterlimit:10;}.cls-3,.cls-4{stroke-width:0px;}.cls-4{fill:#fff;}.cls-2{fill:#ff1d25;stroke:#fff;stroke-width:7px;}</style></defs><path class="cls-2" d="m615.07,335.67s-103.68-77.32-131.79,36.02c-98.41-13.18-82.59,89.62-49.2,107.19-28.99,47.45,39.54,93.13,94.01,76.44,9.66,60.63,111.59,65.02,130.92,14.94,37.78,42.17,164.3-16.69,110.71-88.74,42.17-8.79,4.39-135.31-59.75-110.71,20.21-25.48-45.69-100.16-94.89-35.15Z"/><path class="cls-3" d="m562.99,334.86c5.29,3.22,10.71,6.69,13.37,12.55,1.51,3.32-1.12,5.27-3.87,6.69-3.4,1.78-7.1,3.1-10.66,4.51-3.13,1.23-7,2.02-10.4,1.67-3.69-.38-6.9-2.49-10.8-1.47-3.28.85-5.03,3.12-7.1,5.6-2.26,2.7-4.72,5.31-7.32,7.71-5.02,4.63-14.03,1.76-18.08-2.76-2.15-2.4-2.34-4.79-1.27-7.65,1.12-2.96,1.83-6.09,3.2-9,2.25-4.83,6.69-8.96,11.13-11.92.6-.4,1.21-.8,1.79-1.22l.19.26c4.54-3.37,9.9-5.8,15.18-7.46,3.68-1.16,8.03-1.1,11.86-.72,4.18.42,9.16,1.01,12.77,3.21Z"/><path class="cls-1" d="m523.17,339.83c4.54-3.37,9.9-5.8,15.18-7.46,3.68-1.16,8.03-1.1,11.86-.72,4.18.42,9.16,1.01,12.77,3.21,5.29,3.22,10.71,6.69,13.37,12.55,1.51,3.32-1.12,5.27-3.87,6.69-3.4,1.78-7.1,3.1-10.66,4.51-3.13,1.23-7,2.02-10.4,1.67-3.69-.38-6.9-2.49-10.8-1.47-3.28.85-5.03,3.12-7.1,5.6-2.26,2.7-4.72,5.31-7.32,7.71-5.02,4.63-14.03,1.76-18.08-2.76-2.15-2.4-2.34-4.79-1.27-7.65,1.12-2.96,1.83-6.09,3.2-9,2.25-4.83,6.69-8.96,11.13-11.92.6-.4,1.21-.8,1.79-1.22.49-.33.96-.69,1.4-1.08"/><path class="cls-3" d="m568.11,584.39c-10.03-4.73-21.39-30.72-4.85-25.47,15.55,4.94,27.9,17.24,44.77,10.2,6.77-2.81,11.84-6.22,19.31-2.95,7.1,3.1,12.66,9.14,5.87,14.89-12.29,10.41-46.06,13.01-65.22,3.59l.12-.26Z"/><path class="cls-1" d="m567.99,584.65c19.15,9.42,52.93,6.81,65.22-3.59,6.79-5.75,1.23-11.79-5.87-14.89-7.47-3.26-12.54.14-19.31,2.95-16.87,7.03-29.22-5.27-44.77-10.2-16.53-5.25-5.18,20.75,4.85,25.47,2.19,1.04,4.32,1.05,6.08-.5"/><path class="cls-4" d="m526.26,479.6l1.12-22.05-11.25,2.48.52,20.7-14.17-.6-4.05-53.77,16.8-2.1.52,21.3,12.22-.38,1.12-22.05,15.67.97-1.57,56.25-16.95-.75Z"/><path class="cls-4" d="m576.96,480.35c-15,0-27.6-11.85-27.6-27.75s10.57-29.92,28.57-29.92,28.57,14.17,28.57,29.4c0,17.4-13.95,28.27-29.55,28.27Zm12.15-27.6c0-5.85-3.82-12.07-11.02-12.07s-12,5.33-12,13.12c0,6.3,3.82,12.45,12.07,12.45,6.67,0,10.95-5.55,10.95-13.5Z"/><path class="cls-4" d="m663.21,479.6l-2.18-33.75-12,32.47-8.33-.52-10.72-31.27-2.17,33.15-17.62-2.92,9.15-54.37,18.45,1.42,9.6,26.32,10.35-24.67,18.82-.67,5.4,55.42-18.75-.6Z"/><path class="cls-4" d="m690.51,479.6l-4.27-54.9,35.32-4.2.97,12.97-20.62,2.4.75,7.65,16.12-1.2,1.2,11.92-15.82,1.35,1.12,8.1,20.25-2.03,1.05,18.45-36.07-.52Z"/></svg>