<?xml version="1.0" encoding="utf-8"?>
<!-- Generator: Adobe Illustrator 28.0.0, SVG Export Plug-In . SVG Version: 6.00 Build 0)  -->
<svg version="1.1" id="Layer_3" xmlns="http://www.w3.org/2000/svg" xmlns:xlink="http://www.w3.org/1999/xlink" x="0px" y="0px"
	 viewBox="0 0 791 608.1" style="enable-background:new 0 0 791 608.1;" xml:space="preserve">
<style type="text/css">
	.st0{fill:#F15A24;stroke:#FFFFFF;stroke-width:7;stroke-miterlimit:10;}
	.st1{fill:#FFFFFF;}
	.st2{fill:none;stroke:#000000;stroke-miterlimit:10;}
</style>
<path class="st0" d="M501.1,244.8c0,0-103.7-77.3-131.8,36c-98.4-13.2-82.6,89.6-49.2,107.2c-29,47.5,39.5,93.1,94,76.4
	c9.7,60.6,111.6,65,130.9,14.9c37.8,42.2,164.3-16.7,110.7-88.7c42.2-8.8,4.4-135.3-59.8-110.7C616.2,254.5,550.3,179.8,501.1,244.8
	L501.1,244.8z"/>
<path class="st1" d="M337.4,384l-3.4-59.5c4.5-2.3,9.8-3.4,14.6-3.4c15.8,0,24.5,8.4,24.5,23.2c0,10.8-7.9,21.3-23.7,21.4l1.9,17.1
	L337.4,384L337.4,384z M347.8,351.8c5.1-1.4,10.4-4.5,10.4-9.9c0-5-3-7-6.5-7c-1.9,0-3.8,0.5-5.6,1.5L347.8,351.8L347.8,351.8z"/>
<path class="st1" d="M398.6,383.1l-6.9-21.3l-3.7,0.7l0.8,20.9h-12.7l0.1-59.5c3.1-1.2,8.5-1.8,12.2-1.8c15.2,0,22.6,9.6,22.6,19.5
	c0,6.5-3.1,13-9.6,17.1l9.6,22.1L398.6,383.1L398.6,383.1z M387.8,351.4c6.1-0.1,9.2-4.1,9.2-8c0-3.5-2.6-7-7.9-7
	c-0.7,0-1.4,0-2,0.1L387.8,351.4z"/>
<path class="st1" d="M413.6,352.9c0-17.1,9.5-31.7,21.8-31.7c12.5,0,21.9,14.1,21.9,31.4s-9.6,31.3-22.2,31.3
	S413.6,369.7,413.6,352.9z M444.1,353.8c0-7.3-3.3-13.5-8.3-13.5c-5.4,0-9.2,6.5-9.2,13.8s2.8,13.4,8.9,13.4
	C441,367.5,444.1,361.1,444.1,353.8L444.1,353.8z"/>
<path class="st1" d="M471.9,357.7c0.3,4.6,3,7.6,5.6,7.6s5.3-3.3,5.3-11.4c0-10.2-3.3-24.4-4.5-28.6l15.2-4.9
	c2.6,9.5,3.8,19.8,3.8,27.9c0,21.4-6.5,36-17.9,36c-8.1,0-16.1-8.1-20.2-20.6L471.9,357.7z"/>
<path class="st1" d="M502.2,384.7l-2.3-59.7l29-3.7l0.3,19.1l-18.2,1.8l0.3,7l14.8-1.8l0.5,11l-14.8,2l0.3,7.9l17.1-2.7l0.8,13.3
	L502.2,384.7L502.2,384.7z"/>
<path class="st1" d="M560.2,383.6c-1.8,0.3-3.4,0.4-5,0.4c-15.8,0-22.9-13.8-22.9-28.4c0-16.1,8.5-32.9,23.4-32.9
	c1.1,0,2.2,0.1,3.3,0.3l1.2,20c-8.8,0-13.5,5.6-13.5,12.1c0,5.4,4.3,7.5,8.4,7.5c1.9,0,3.8-0.4,5.1-1.2V383.6L560.2,383.6z"/>
<path class="st1" d="M572.5,382.7l0.3-43.2l-9.8,0.3l-1.2-14.5l34.8-2.8v15.7l-9.6,0.5l-2,45.5L572.5,382.7L572.5,382.7z"/>
<path class="st1" d="M603.6,365.1c3.1,3.7,6.6,5.1,9.6,5.1c4.6,0,8.1-2.8,8.1-7.2c0-7.6-22.8-0.8-22.8-21.7
	c0-14.4,13.3-19.9,22.8-19.9c3.8,0,7.9,0.8,11.6,2.8l-4.2,14c-2.7-2.2-5.8-3-8.5-3c-4.6,0-8.3,2.6-8.3,6.2c0,8,23.8-0.3,23.8,23.2
	c0,11.4-10,19.2-20.6,19.2c-6.4,0-13-2.8-17.7-9.5L603.6,365.1L603.6,365.1z"/>
<path d="M444.4,235.4c11-0.9,33.8,16,16.9,19.7c-15.9,3.5-32.8-1.1-43.9,13.4c-4.5,5.8-7.2,11.3-15.3,12.2
	c-7.7,0.9-15.5-1.6-12.5-10c5.5-15.1,33.5-34.2,54.8-35.6V235.4L444.4,235.4z"/>
<path class="st2" d="M444.4,235.1c-21.3,1.4-49.3,20.4-54.8,35.6c-3,8.4,4.8,10.8,12.5,10c8.1-0.9,10.8-6.4,15.3-12.2
	c11.1-14.5,28-10,43.9-13.4c17-3.7-5.8-20.6-16.9-19.7c-2.4,0.2-4.3,1.2-5,3.4"/>
<path d="M592,471.1c-10.9,1.8-35.1-13-18.5-18.1c15.6-4.8,32.7-1.8,42.6-17.2c4-6.2,6.2-11.9,14.2-13.4c7.6-1.5,15.6,0.3,13.3,8.9
	c-4.2,15.6-30.4,37-51.5,40.2L592,471.1L592,471.1z"/>
<path class="st2" d="M592.1,471.4c21.1-3.2,47.4-24.6,51.5-40.2c2.3-8.6-5.7-10.4-13.3-8.9c-8,1.6-10.2,7.3-14.2,13.4
	c-9.8,15.4-27,12.4-42.6,17.2c-16.6,5.1,7.6,20,18.5,18.1c2.4-0.4,4.2-1.6,4.7-3.9"/>
</svg>
