<?xml version="1.0" encoding="UTF-8"?><svg id="Layer_1" xmlns="http://www.w3.org/2000/svg" viewBox="0 0 735.54 571.06"><defs><style>.cls-1{fill:#ffec00;}.cls-1,.cls-2,.cls-3,.cls-4,.cls-5{stroke-width:0px;}.cls-3{fill:#8cc63f;}.cls-6{stroke-width:3px;}.cls-6,.cls-7{fill:none;stroke:#000;stroke-miterlimit:10;}.cls-4{fill:#ff1d25;}.cls-7{stroke-width:2px;}.cls-5{fill:#fbb03b;}</style></defs><path class="cls-3" d="m707.76,349.31c6.23-4.53,40.34.1,19.74,50.56-3.49,9.3-8.34,22.65-15.87,29.85-15.53,14.85-46.07,15.96-59.53,11.72-13.79-4.34-22.87-34.18-25.41-39.97-6.24-14.17-1.71-99.21,37.98-113.38,0,0,7.37-3.97,27.78,2.26,38.7,22.29,1.13,49.89-4.82,52.44-5.95,2.56-45.92,6.81-33.73,35.72s47.62-24.66,53.86-29.2Zm-37.52-23.9c12.48,1.89,16.82-14.17,2.08-12.28-7.68.98-14.55,10.39-2.08,12.28Z"/><path class="cls-6" d="m664.67,288.09c-39.69,14.17-44.22,99.21-37.98,113.38,2.54,5.79,11.62,35.63,25.41,39.97,13.46,4.24,44,3.13,59.53-11.72,7.53-7.2,12.38-20.55,15.87-29.85,20.6-50.46-13.51-55.09-19.74-50.56-6.24,4.54-41.67,58.11-53.86,29.2s27.78-33.16,33.73-35.72c5.95-2.55,43.52-30.15,4.82-52.44-20.41-6.23-27.78-2.26-27.78-2.26Z"/><path class="cls-6" d="m672.32,313.13c-7.68.98-14.55,10.39-2.08,12.28,12.48,1.89,16.82-14.17,2.08-12.28Z"/><path class="cls-2" d="m659.85,433.31c5.44,7.09,23.06,3.66,33.83-3.97,3.05-2.16,8.55-6.79,7.56-9.07-1.05-2.42-9.25-1.87-15.5.19-6.83,2.25-7.16,4.91-11.91,5.29-7.25.58-11.14-5.27-13.98-3.4-2.35,1.54-2.67,7.48,0,10.96Z"/><path class="cls-1" d="m604.67,287.89c12.28,60.07,10.68,126.97-3.74,155.34-14.42,28.37-52.49,156.84-195.98,119.63-143.49-37.21-50.13-163.2-10.94-116.77,39.19,46.43,128.15,11.15,147.37-22.33,17.22-29.97-5.51-33.52-32.4-21.3-7.39,3.35-15.97,2.73-22.9-1.49-33.46-20.38-22.9-54.06-22.9-54.06,4.29-64.78,115.06-111.99,141.5-59.02Zm-24.6,40.67c14.63-8.43,1.01-20.04-6.54-11.24-3.74,4.37-8.1,19.66,6.54,11.24Zm-6.58,28.54c9.08-.86,7.74-9.36,2.64-9.64-5.1-.27-5.01-.08-7.94-1.4-4.26-1.92-3.76,11.91,5.31,11.04Zm-16.49,25.91c6.05,0,13.31-6.16,6.88-12.77-6.44-6.6-5.97-6.32-7.76-5.18-3.49,2.21.3,11.34-2.34,12.94-2.65,1.61-2.83,5.01,3.22,5.01Zm-2.89-31.46c13.39-18.92-5.74-25.75-19.3-22.46-5.1,1.24-14.83,7.01-13.86,18.35.96,11.34,19.78,23.02,33.17,4.11Zm-12.22-29.46c4.25,1.31,11.89-8.72,4.98-13.34-6.9-4.62-10.65.57-10.1,5.22.19,1.61.86,6.8,5.12,8.12Zm-4.26,58.4c5.37-4.55,4.34-8.61,1.49-11.34-2.83-2.74-4.16-.84-4.16-.84-1.89,3.12-8.59,4.92-8.11,8.23.47,3.31,5.39,8.49,10.78,3.95Zm-14.16-53.74c8.32-.68,3.02-2.74-1.52-7.56-4.55-4.81-7.38-6.8-10.58-2.44-3.21,4.35,1.01,10.9,12.1,10Zm-4.5,29.2c1.33-1.51-1.61-5.67-6.24-4.15-5.03,1.66-13.21,10.89-8.86,14.94,4.35,4.06,10.86,1.97,12.36-4.08,1.51-6.05,1.41-5.2,2.73-6.71Zm-8.99-12.84c2.54-3.59-1.24-3.4-1.24-3.4-5.1-3.11-15.59.02-12.84,4.56,2.75,4.53,11.53,2.43,14.08-1.16Z"/><path class="cls-2" d="m573.53,317.31c7.55-8.8,21.16,2.81,6.54,11.24-14.64,8.42-10.28-6.87-6.54-11.24Z"/><path class="cls-2" d="m576.13,347.45c5.1.28,6.44,8.78-2.64,9.64-9.07.86-9.57-12.97-5.31-11.04,2.93,1.32,2.84,1.13,7.94,1.4Z"/><path class="cls-2" d="m563.88,370.24c6.43,6.61-.83,12.76-6.88,12.77s-5.87-3.39-3.22-5.01c2.64-1.6-1.15-10.74,2.34-12.94,1.79-1.14,1.32-1.42,7.76,5.18Z"/><path class="cls-1" d="m534.81,329.09c13.57-3.29,32.7,3.54,19.3,22.46-13.38,18.91-32.21,7.23-33.17-4.11-.97-11.34,8.76-17.11,13.86-18.35Zm4.74,16.05c6.52-.29,10.86-5.97.65-7.37-7.3-1-7.17,7.66-.65,7.37Z"/><path class="cls-2" d="m546.87,308.75c6.91,4.62-.73,14.65-4.98,13.34-4.26-1.32-4.93-6.51-5.12-8.12-.55-4.65,3.21-9.83,10.1-5.22Z"/><path class="cls-2" d="m540.2,337.77c10.21,1.4,5.87,7.08-.65,7.37-6.52.29-6.65-8.37.65-7.37Z"/><path class="cls-2" d="m539.12,369.15c2.84,2.74,3.88,6.79-1.49,11.34-5.38,4.54-10.3-.64-10.78-3.95-.48-3.31,6.22-5.11,8.11-8.23,0,0,1.33-1.89,4.16.84Z"/><path class="cls-2" d="m521.94,319.19c4.54,4.81,9.84,6.88,1.52,7.56-11.1.9-15.32-5.65-12.1-10,3.2-4.35,6.04-2.37,10.58,2.44Z"/><path class="cls-2" d="m512.73,351.8c4.63-1.52,7.56,2.64,6.24,4.15-1.32,1.51-1.22.66-2.73,6.71-1.5,6.05-8.02,8.14-12.36,4.08-4.36-4.05,3.83-13.29,8.86-14.94Z"/><path class="cls-2" d="m508.75,339.71s3.78-.2,1.24,3.4-11.33,5.69-14.08,1.16c-2.75-4.54,7.74-7.67,12.84-4.56Z"/><path class="cls-6" d="m463.17,346.91c4.29-64.78,115.06-111.99,141.5-59.02,12.28,60.07,10.68,126.97-3.74,155.34-14.42,28.37-52.49,156.84-195.98,119.63-143.49-37.21-50.13-163.2-10.94-116.77,39.19,46.43,128.15,11.15,147.37-22.33,17.22-29.97-5.51-33.52-32.4-21.3-7.39,3.35-15.97,2.73-22.9-1.49-33.46-20.38-22.9-54.06-22.9-54.06Z"/><path class="cls-7" d="m540.2,337.77c-7.3-1-7.17,7.66-.65,7.37,6.52-.29,10.86-5.97.65-7.37Z"/><path class="cls-7" d="m534.81,329.09c13.57-3.29,32.7,3.54,19.3,22.46-13.38,18.91-32.21,7.23-33.17-4.11-.97-11.34,8.76-17.11,13.86-18.35Z"/><path class="cls-7" d="m523.47,326.75c-11.1.9-15.32-5.65-12.1-10,3.2-4.35,6.04-2.37,10.58,2.44,4.54,4.81,9.84,6.88,1.52,7.56Z"/><path class="cls-7" d="m536.77,313.97c-.55-4.65,3.21-9.83,10.1-5.22,6.91,4.62-.73,14.65-4.98,13.34-4.26-1.32-4.93-6.51-5.12-8.12Z"/><path class="cls-7" d="m573.53,317.31c-3.74,4.37-8.1,19.66,6.54,11.24,14.63-8.43,1.01-20.04-6.54-11.24Z"/><path class="cls-7" d="m568.18,346.05c-4.26-1.92-3.76,11.91,5.31,11.04,9.08-.86,7.74-9.36,2.64-9.64-5.1-.27-5.01-.08-7.94-1.4Z"/><path class="cls-7" d="m556.12,365.06c-3.49,2.21.3,11.34-2.34,12.94-2.65,1.61-2.83,5.01,3.22,5.01s13.31-6.16,6.88-12.77c-6.44-6.6-5.97-6.32-7.76-5.18Z"/><path class="cls-7" d="m534.96,368.3c-1.89,3.12-8.59,4.92-8.11,8.23.47,3.31,5.39,8.49,10.78,3.95,5.37-4.55,4.34-8.61,1.49-11.34-2.83-2.74-4.16-.84-4.16-.84Z"/><path class="cls-7" d="m512.73,351.8c-5.03,1.66-13.21,10.89-8.86,14.94,4.35,4.06,10.86,1.97,12.36-4.08,1.51-6.05,1.41-5.2,2.73-6.71,1.33-1.51-1.61-5.67-6.24-4.15Z"/><path class="cls-7" d="m508.75,339.71c-5.1-3.11-15.59.02-12.84,4.56,2.75,4.53,11.53,2.43,14.08-1.16s-1.24-3.4-1.24-3.4Z"/><path class="cls-2" d="m398.68,539.06c.39,15.02,68.15,36.47,105.47,11.18,5.36-3.63,15.35-11.79,13.58-16.46-1.83-4.85-14.67-1.58-35.15-2.22-38.05-1.18-51.96-14.24-72.01-3.86-4.28,2.22-12.02,6.22-11.89,11.36Z"/><path class="cls-5" d="m472.75,403.51c10.5,35.7-31,31.94-33.43,24.98-2.65-7.55-26.08-25.32-47.25-10.2-57.07,32.13-74.07-3.02-80.12-41.57-6.05-38.56,17.79-64.85,69.16-67.28,48-2.27,19.66-23.43-8.69-14.36-28.35,9.07-29.1,1.51-30.24-15.88-1.13-17.38,16.26-32.12,72.19-23.43,55.94,8.69,34.02,55.18,9.83,89.2-22.6,31.77-5.94,41.78,35.48,47.28,6.2.82,11.3,5.26,13.07,11.26Zm-107.13-24.15c24.94-1.7,20.41-19.27,14.74-31.18s-18.71-2.83-18.71-2.83c-15.31,7.37-20.98,35.71,3.97,34.01Z"/><path class="cls-6" d="m381.11,309.44c-51.37,2.43-75.21,28.72-69.16,67.28,6.05,38.55,23.05,73.7,80.12,41.57,21.17-15.12,44.6,2.65,47.25,10.2,2.43,6.96,43.93,10.72,33.43-24.98-1.77-6-6.87-10.44-13.07-11.26-41.42-5.5-58.08-15.51-35.48-47.28,24.19-34.02,46.11-80.51-9.83-89.2-55.93-8.69-73.32,6.05-72.19,23.43,1.14,17.39,1.89,24.95,30.24,15.88,28.35-9.07,56.69,12.09,8.69,14.36Z"/><path class="cls-6" d="m361.65,345.35c-15.31,7.37-20.98,35.71,3.97,34.01,24.94-1.7,20.41-19.27,14.74-31.18s-18.71-2.83-18.71-2.83Z"/><path class="cls-2" d="m325.36,400.34c-1.02,11.32,15.45,24.38,27.78,21.54,3.52-.81,8.52-3.33,8.5-6.24-.03-5.81-20.1-6.21-23.81-17.57-1.75-5.36,1.23-9.81-.57-10.77-2.46-1.32-11.21,5.35-11.91,13.04Z"/><path class="cls-2" d="m426.66,264.46c5.05-2.19,19.47,11.47,17.39,22.11-.61,3.12-2.74,6.44-4.16,6.24-1.57-.23-.62-4.54-3.21-9.07-3.81-6.66-10.72-5.88-12.28-11.34-.85-2.97.12-7,2.27-7.94Z"/><path class="cls-2" d="m287.21,329.32c8.8,22.44-57.77,85.56-114.73,78.6-2.43-.3-25.17-3.08-27.1-12.65-2.32-11.51,26.8-26.07,28.91-27.1,30.38-14.93,45.11-3.32,62.33-18.07,14.35-12.29,12.29-27.35,25.3-30.72,9.21-2.39,22.21,2.06,25.29,9.94Z"/><path class="cls-4" d="m275.69,184.74c55.54,37.4,51.94,134.86,9.69,185.7-28.02,33.71-73.31,58.71-138.2,60.36-236.09,6.03-139.72-194.53-28.3-128.28,111.42,66.25,99.37-124.07,49.38-66.85-49.98,57.21-151.77-27.11-125.27-108.41C69.49,45.95,138.15-28.13,239.33,13.42c15.53,6.38,46.22,19.14,45.77,38.32-.32,13.31-11.46,33.06-36.68,35.03-3.6.29-7.17-.66-10.31-2.43-35.58-20.11-79.49-9.89-99.67,19.92-15.28,22.58-19.39,49.55-4.85,74,3.96,6.66,10.89,11.08,18.61,11.89,34.8,3.62,92.72-26.13,123.49-5.41Zm-103.21,223.18c56.96,6.96,123.53-56.16,114.73-78.6-3.08-7.88-16.08-12.33-25.29-9.94-13.01,3.37-10.95,18.43-25.3,30.72-17.22,14.75-31.95,3.14-62.33,18.07-2.11,1.03-31.23,15.59-28.91,27.1,1.93,9.57,24.67,12.35,27.1,12.65Zm15.38-375.89c8.19-2.21,15.83-8.61,14.89-12.35-.84-3.3-8.25-4.07-12.23-4.46-32.16-3.08-78.11,17.23-75.93,27.91.91,4.44,9.93,6.13,10.72,6.27,2.85.51,7.84.72,20.16-5.66,14.23-7.36,13.36-10.64,20.76-12.23,9.48-2.04,12.11,3.1,21.63.52Z"/><path class="cls-2" d="m202.75,19.68c.94,3.74-6.7,10.14-14.89,12.35-9.52,2.58-12.15-2.56-21.63-.52-7.4,1.59-6.53,4.87-20.76,12.23-12.32,6.38-17.31,6.17-20.16,5.66-.79-.14-9.81-1.83-10.72-6.27-2.18-10.68,43.77-30.99,75.93-27.91,3.98.39,11.39,1.16,12.23,4.46Z"/><path class="cls-6" d="m248.42,86.77c-3.6.29-7.17-.66-10.31-2.43-35.58-20.11-79.49-9.89-99.67,19.92-15.28,22.58-19.39,49.55-4.85,74,3.96,6.66,10.89,11.08,18.61,11.89,34.8,3.62,92.72-26.13,123.49-5.41,55.54,37.4,51.94,134.86,9.69,185.7-28.02,33.71-73.31,58.71-138.2,60.36-236.09,6.03-139.72-194.53-28.3-128.28,111.42,66.25,99.37-124.07,49.38-66.85-49.98,57.21-151.77-27.11-125.27-108.41C69.49,45.95,138.15-28.13,239.33,13.42c15.53,6.38,46.22,19.14,45.77,38.32-.32,13.31-11.46,33.06-36.68,35.03Z"/></svg>