<?xml version="1.0" encoding="UTF-8"?><svg id="Layer_2" xmlns="http://www.w3.org/2000/svg" viewBox="0 0 227.73 114.37"><defs><style>.cls-1,.cls-2{fill:none;}.cls-1,.cls-2,.cls-3{stroke:#fff;}.cls-1,.cls-3,.cls-4{stroke-miterlimit:10;}.cls-5,.cls-6{stroke-width:0px;}.cls-2{stroke-linecap:round;stroke-linejoin:round;}.cls-6,.cls-4{fill:#fff;}.cls-4{stroke:#000;}</style></defs><path class="cls-3" d="m216.49,73.42c2.92.97,5.48.47,5.95,3.69s-1.89,7.28-1.8,10.11,2.27,9.73.76,10.49-3.4.66-3.87.09,3.21-16.35-1.04-24.38Z"/><path class="cls-3" d="m202.41,87.31c3.34-1.06,7.37.66,8.88-5.01s3.87-9.07,5.2-8.88,2.83-.38,2.36,12.76c0,11.72-.28,11.15-1.8,11.53s-10.49-2.17-12-1.51-7.09-5.1-2.65-8.88Z"/><path class="cls-3" d="m221.22,80.88c2.92.97,5.48.47,5.95,3.69s-1.89,7.28-1.8,10.11,2.27,9.73.76,10.49-3.4.66-3.87.09,3.21-16.35-1.04-24.38Z"/><path class="cls-3" d="m207.14,94.77c3.34-1.06,7.37.66,8.88-5.01s3.87-9.07,5.2-8.88,2.83-.38,2.36,12.76c0,11.72-.28,11.15-1.8,11.53s-10.49-2.17-12-1.51-7.09-5.1-2.65-8.88Z"/><path class="cls-3" d="m116.05,73.04c.52-2.76,7.18,4.35,10.02,3.69,1.32.38,3.12,1.23,3.12,1.23,0,0,9.92-2.65,15.4-.57,3.31-3.31,15.97-3.87,18.52-1.61,2.08.47,13.42-1.51,20.31,1.04,3.59-.09,9.45-2.74,12.57-.76s8.13.76,8.6,2.27,2.65,5.29,1.04,7.94-66.14,8.79-84-.19c-5.1-2.08-8.03.09-5.57-13.04Z"/><path class="cls-3" d="m109.25,107.15c4.55,7.39,15.21,10.58,31.37-.47,2.74-5.2,12.19-2.74,13.13-1.42s10.77,2.55,18.24-1.89c4.82-1.42,8.98.28,10.96,1.61s6.43,2.55,8.5-.85c1.98-1.51,4.72-3.4,9.35-.47s11.72,5.39,10.96-3.4c0-1.63-.74-2.78-1.47-4.07-.97-1.7-1.93-3.63-1.18-7.17,1.32-6.24,3.12-8.31-8.03-7.56-10.11-2.65-20.41.09-23.72,1.98-2.17-3.12-6.61-2.55-9.35.09-5.01.19-12.47-.19-15.21-1.51s-12.38-.94-15.78,1.23c-3.69-.19-15.4-.66-15.59-2.27s-6.24-2.46-6.24-2.46c0,0-.76,20.69-5.95,28.63Z"/><path class="cls-3" d="m120.59,94.07c1.02.21,2.41.94,2.41.94.19-3.5,1.04-10.2-6.66-12.61-.57,1.7-.14,2.31-.14,2.31,2.27,1.04,5.1,3.02,4.39,9.35,0,0-2.1.21-5.29-.14"/><path class="cls-3" d="m210.3,96.19c-2.01-.31-7.02.48-8.05-.21,0,0-2.23-.6-7.48.46-5.24,1.06-13.85.67-14.92,1.1s-34.72,1.7-36.57.07-16.72-2.6-20.29-2.6"/><path class="cls-5" d="m113.55,71.2c3.12,20.27-2.93,35.9-7.7,32.69-.81-.55-3.23-3.01-6.48-6.34,5.7-9.46,6.17-21.77,5.31-30.33l.03-.13c.34.09.69.17,1.04.23,2.84-1.22,7.29.58,7.8,3.88Z"/><path class="cls-5" d="m104.68,67.22c.86,8.56.39,20.87-5.31,30.33-7.61-7.79-19.8-20.31-26.69-24.08-9.49-4.89-8.98-12.11-9.62-20.46,12.25-1.35,9.82-4.89,7.69-7.08l-.02-.13c3.08-.51,6.96-.51,11.4-.87,10.58-.85,11.44,10.68,8.03,11.24,1.54,1.72,7.46,9.1,14.55,10.92l-.03.13Zm-34.45-.44c4.52.25,7.51-5.33,6.52-7.72-1.32-3.19-10.76-3.43-12.26-.22-1.1,2.34,1.41,7.71,5.74,7.94Z"/><path class="cls-5" d="m76.75,59.06c.99,2.39-2,7.97-6.52,7.72-4.33-.23-6.84-5.6-5.74-7.94,1.5-3.21,10.94-2.97,12.26.22Z"/><path class="cls-5" d="m63.88,50.9c3.86.19,4.64-1.33,4.57-2.96,0-.49-.1-.98-.21-1.44l-.04-.11c.77-.26,1.61-.45,2.53-.59l.02.13c2.13,2.19,4.56,5.73-7.69,7.08,0-.05-.01-.09-.01-.14.12-.91.32-1.7.6-2.39.08.15.16.29.23.42Z"/><path class="cls-5" d="m68.45,47.94c.07,1.63-.71,3.15-4.57,2.96-.07-.13-.15-.27-.23-.42.71-1.83,1.93-2.98,3.58-3.72.45.57.86.99,1.22,1.18Z"/><path class="cls-5" d="m68.24,46.5c.11.46.2.95.21,1.44-.36-.19-.77-.61-1.22-1.18.31-.14.63-.26.97-.37l.04.11Z"/><path class="cls-5" d="m63.42,40.9c1.22,1.87,2.63,4.37,3.81,5.86-1.65.74-2.87,1.89-3.58,3.72-.72-1.33-1.76-3.18-4.12-4.28,1.5-1.25,2.85-2.97,3.89-5.3Z"/><path class="cls-5" d="m59.53,46.2c-4.83,4.03-11.14,3.25-12.97,2.94-1.8-.31-9.97-3.92-16.07-10.08-.16-.16-.32-.33-.47-.5h-.01c-.71-.74-1.38-1.51-2-2.32.67-.31,1.38-1.51,1.68-2.48.25-.8.5-2.36-.07-2.66-.39-.21-1.21.16-1.9.84.28-.62.69-1.25,1.37-1.76.82-.61,1.31-.5,1.88-1.22.72-.93.97-2.48.44-2.87-.66-.5-2.88.55-4.55,2.14.36-.62.84-1.22,1.56-1.65,1.44-.87,2.77-.47,3.01-1.2.23-.72-.8-1.97-1.97-2.27-.37-.09-.77-.1-1.18-.01.48-.26,1.02-.52,1.61-.75.87-.35,1.66-.56,1.87-1.22.26-.78-.34-1.93-1.18-2.33-.16-.08-.34-.13-.52-.16.28-.1.59-.22.91-.33.83-.29,1.61-.53,1.87-1.22.26-.67-.05-1.56-.6-2.01-.25-.2-.55-.32-.88-.36.19-.19.41-.38.81-.61,1.27-.69,2.27-.46,2.32-.76.04-.25-.53-.69-1.32-.95.38-.08.76-.18,1.09-.29.52-.17,1.89-.63,1.88-1.22-.01-.42-.68-.75-1.08-.87-.81-.26-1.73-.08-2.55.29,1.49-1.26,2.89-2.13,3.95-2.5.33-.12.63-.19.88-.2,3.83-.21,6.1,3.19,6.1,3.19,3.19,4.39,3.12,8.43,10.63,11.48,7.51,3.04,13.89,6.59,9.78,17.57-.14.36-.28.71-.43,1.05-1.04,2.33-2.39,4.05-3.89,5.3Z"/><path class="cls-5" d="m36.14,10.89c.01.59-1.36,1.05-1.88,1.22-.33.11-.71.21-1.09.29-.34-.1-.72-.17-1.1-.17-.52,0-1.03.12-1.51.31-.11-.04-.19-.09-.23-.17.72-.77,1.46-1.46,2.17-2.06h.01c.82-.37,1.74-.55,2.55-.29.4.12,1.07.45,1.08.87Z"/><path class="cls-5" d="m33.17,12.4c.79.26,1.36.7,1.32.95-.05.3-1.05.07-2.32.76-.4.23-.62.42-.81.61-1.06-.16-2.43.4-3.41,1.1-.09-.03-.15-.08-.19-.15-.02-.03-.03-.08-.03-.13.65-.93,1.35-1.8,2.06-2.6.24-.15.5-.28.77-.4.48.19,1.58.09,2.61-.14Z"/><path class="cls-5" d="m32.24,15.08c.55.45.86,1.34.6,2.01-.26.69-1.04.93-1.87,1.22-.32.11-.63.23-.91.33-1.14-.16-2.69.57-3.96,1.77-.17.03-.29,0-.39-.1-.21-.2-.23-.6-.11-1.1.38-.83.82-1.64,1.29-2.41.23-.27.48-.52.75-.74.1-.08.2-.16.31-.24.49.23,1.67.02,2.52-.42.45-.23.65-.45.89-.68.33.04.63.16.88.36Z"/><path class="cls-5" d="m21.28,20.23c.17-5.3,1.46-10.5,5.29-12.69,0-.01,0-.01,0-.01,4.12-2.35,7.55-1.34,9.88.28-1.06.37-2.46,1.24-3.95,2.5h-.01c-1.31.57-2.34,1.6-2.19,2.03,0,.01.01.02.02.03-.18.18-.36.37-.54.57-1.27.8-2.14,2.05-2.06,2.6-.29.41-.57.83-.84,1.26-.67.78-1.13,1.69-1.29,2.41-.55,1.16-.98,2.36-1.27,3.59-.16.35-.29.71-.38,1.07-.1.42-.32,1.29,0,1.66-.04.79,0,1.59.11,2.38t0,.02c-.1,1.21.31,2.48.81,2.99.03.08.07.16.11.24-.08.34-.1.68-.05,1.02.15,1.05.99,2.09,1.61,2.02t.02-.01s.04.05.05.07c-.03.85.35,1.93.96,2.05.14.03.29,0,.44-.07.62.81,1.29,1.58,2,2.32-2.35-.1-5.53-1.05-6.93-4.4-.16-.37-.29-.76-.4-1.19-.69-2.71-1.54-7.76-1.4-12.74Z"/><path class="cls-5" d="m30.58,18.8c.84.4,1.44,1.55,1.18,2.33-.21.66-1,.87-1.87,1.22-.59.23-1.13.49-1.61.75-1.15.22-2.37,1.06-3.19,2.2-.49.33-.82.49-1.07.31-.03-.02-.06-.05-.07-.08.03-.92.17-1.83.38-2.73.42-.9,1.05-1.72,1.77-2.39.54-.12,1.58-.85,3.96-1.77.18.03.36.08.52.16Z"/><path class="cls-5" d="m31.41,26.09c.53.39.28,1.94-.44,2.87-.57.72-1.06.61-1.88,1.22-.68.51-1.09,1.14-1.37,1.76-.57.58-1.05,1.38-1.11,2.24-.02.01-.03.01-.05.01-.6-.97-1.14-1.98-1.58-3.03,0-.04,0-.08.03-.12.1.07.19.11.29.11.62.02.75-1.51,1.56-2.92,1.67-1.59,3.89-2.64,4.55-2.14Z"/><path class="cls-5" d="m29.46,23.11c1.17.3,2.2,1.55,1.97,2.27-.24.73-1.57.33-3.01,1.2-.72.43-1.2,1.03-1.56,1.65-.87.84-1.6,1.82-1.85,2.81-.05-.03-.09-.07-.14-.12-.41-.99-.67-2-.81-2.99t0-.02v-.07c.09-.91.47-1.79,1.03-2.54.7-.5,1.7-1.38,3.19-2.2.41-.09.81-.08,1.18.01Z"/><path class="cls-5" d="m29.62,31.1c.57.3.32,1.86.07,2.66-.3.97-1.01,2.17-1.68,2.48-.5-.64-.97-1.3-1.4-1.98v-.08c.53-.13.62-1.16,1.11-2.24.69-.68,1.51-1.05,1.9-.84Z"/><path class="cls-5" d="m19.43,16.56h0c-2.46-5.96-.9-9.1,1.41-10.24h0c2.12-1.06,4.87-.44,5.73,1.22-3.83,2.19-5.12,7.39-5.29,12.69-.77-1.32-1.38-2.55-1.85-3.67Z"/><path class="cls-5" d="m21.16,33.57c-6.61-3.07-3.5-15.24-1.73-17.01.47,1.12,1.08,2.35,1.85,3.67-.14,4.98.71,10.03,1.4,12.74.11.43.24.82.4,1.19-.07-.01-.15-.03-.23-.05-.56-.11-1.06-.27-1.52-.46-.06-.02-.11-.05-.17-.08Z"/><path class="cls-5" d="m14.86,32.64c-1.15.58-3.16.88-4.25-4.01-.68-1.94-2.96,1.93-4.55.53-.76.71-2.4.85-4.64-3.04-3.12-5.41,2.84-9,1.49-12.61S2.81-.31,5.77.9c2.95,1.2,4.84,1.01,7.2-.24,1.88-1,6.26,2.86,7.87,5.65h0c-2.31,1.15-3.87,4.29-1.41,10.24h0c-1.77,1.78-4.88,13.95,1.73,17.02-1.53.85-4.04,2.82-6.3-.93Z"/><path class="cls-2" d="m104.68,67.22c.86,8.56.39,20.87-5.31,30.33-.01.03-.03.06-.05.09"/><path class="cls-2" d="m64.49,58.84c-1.1,2.34,1.41,7.71,5.74,7.94,4.52.25,7.51-5.33,6.52-7.72-1.32-3.19-10.76-3.43-12.26-.22Z"/><path class="cls-2" d="m68.24,46.5c.11.46.2.95.21,1.44.07,1.63-.71,3.15-4.57,2.96-.11-.01-.22-.01-.33-.02"/><path class="cls-2" d="m70.75,45.93c2.13,2.19,4.56,5.73-7.69,7.08h-.01"/><path class="cls-2" d="m99.37,97.55c3.25,3.33,5.67,5.79,6.48,6.34,4.77,3.21,10.82-12.42,7.7-32.69-.51-3.3-4.96-5.1-7.8-3.88-.35-.06-.7-.14-1.04-.23-7.09-1.82-13.01-9.2-14.55-10.92,3.41-.56,2.55-12.09-8.03-11.24-4.44.36-8.32.36-11.4.87-.92.14-1.76.33-2.53.59-.34.11-.66.23-.97.37-1.65.74-2.87,1.89-3.58,3.72-.28.69-.48,1.48-.6,2.39,0,.05.01.09.01.14.64,8.35.13,15.57,9.62,20.46,6.89,3.77,19.08,16.29,26.69,24.08Z"/><path class="cls-1" d="m32.51,10.31c1.49-1.26,2.89-2.13,3.95-2.5.33-.12.63-.19.88-.2,3.83-.21,6.1,3.19,6.1,3.19,3.19,4.39,3.12,8.43,10.63,11.48,7.51,3.04,13.89,6.59,9.78,17.57-.14.36-.28.71-.43,1.05-1.04,2.33-2.39,4.05-3.89,5.3-4.83,4.03-11.14,3.25-12.97,2.94-1.8-.31-9.97-3.92-16.07-10.08-.16-.16-.32-.33-.47-.5"/><path class="cls-1" d="m24.06,27.91c-.11-.79-.15-1.59-.11-2.38.03-.92.17-1.83.38-2.73.29-1.23.72-2.43,1.27-3.59.38-.83.82-1.64,1.29-2.41.27-.43.55-.85.84-1.26.65-.93,1.35-1.8,2.06-2.6.18-.2.36-.39.54-.57.72-.77,1.46-1.46,2.17-2.06"/><path class="cls-1" d="m30.01,38.56c-.71-.74-1.38-1.51-2-2.32-.5-.64-.97-1.3-1.4-1.98-.01-.02-.03-.05-.05-.07-.6-.97-1.14-1.98-1.58-3.03-.04-.08-.08-.16-.11-.24-.41-.99-.67-2-.81-2.99"/><path class="cls-1" d="m30.02,38.56h-.01c-2.35-.1-5.53-1.05-6.93-4.4-.16-.37-.29-.76-.4-1.19-.69-2.71-1.54-7.76-1.4-12.74.17-5.3,1.46-10.5,5.29-12.69,0-.01,0-.01,0-.01,4.12-2.35,7.55-1.34,9.88.28"/><path class="cls-1" d="m20.84,6.32c-2.31,1.14-3.87,4.28-1.41,10.23h0c.47,1.13,1.08,2.36,1.85,3.68.04.06.08.13.12.2"/><path class="cls-1" d="m26.57,7.54c-.86-1.66-3.61-2.28-5.73-1.23"/><path class="cls-1" d="m19.44,16.55h-.01c-1.77,1.78-4.88,13.95,1.73,17.02.06.03.11.06.17.08.46.19.96.35,1.52.46.08.02.16.04.23.05"/><path class="cls-1" d="m21.28,33.5s-.08.04-.12.07c-1.53.85-4.04,2.82-6.3-.93-.35-.59-.7-1.32-1.04-2.21"/><path class="cls-1" d="m14.87,32.64h0c-1.15.58-3.16.88-4.25-4.01-.68-1.94-2.96,1.93-4.55.53"/><path class="cls-1" d="m6.06,29.16c-.76.71-2.4.85-4.64-3.04-3.12-5.41,2.84-9,1.49-12.61S2.81-.31,5.77.9c2.95,1.2,4.84,1.01,7.2-.24,1.88-1,6.26,2.86,7.87,5.65h0"/><path class="cls-1" d="m63.88,50.9c-.07-.13-.15-.27-.23-.42-.72-1.33-1.76-3.18-4.12-4.28h0"/><path class="cls-1" d="m63.42,40.9c1.22,1.87,2.63,4.37,3.81,5.86.45.57.86.99,1.22,1.18"/><path class="cls-1" d="m32.51,10.31c.82-.37,1.74-.55,2.55-.29.4.12,1.07.45,1.08.87.01.59-1.36,1.05-1.88,1.22-.33.11-.71.21-1.09.29-1.03.23-2.13.33-2.61.14-.11-.04-.19-.09-.23-.17,0-.01-.02-.02-.02-.03-.15-.43.88-1.46,2.19-2.03h.01Z"/><path class="cls-1" d="m33.17,12.4c.79.26,1.36.7,1.32.95-.05.3-1.05.07-2.32.76-.4.23-.62.42-.81.61-.24.23-.44.45-.89.68-.85.44-2.03.65-2.52.42-.09-.03-.15-.08-.19-.15-.02-.03-.03-.08-.03-.13-.08-.55.79-1.8,2.06-2.6.24-.15.5-.28.77-.4.48-.19.99-.31,1.51-.31.38,0,.76.07,1.1.17Z"/><path class="cls-1" d="m31.36,14.72c.33.04.63.16.88.36.55.45.86,1.34.6,2.01-.26.69-1.04.93-1.87,1.22-.32.11-.63.23-.91.33-2.38.92-3.42,1.65-3.96,1.77-.17.03-.29,0-.39-.1-.21-.2-.23-.6-.11-1.1.16-.72.62-1.63,1.29-2.41.23-.27.48-.52.75-.74.1-.08.2-.16.31-.24.98-.7,2.35-1.26,3.41-1.1Z"/><path class="cls-1" d="m30.06,18.64c.18.03.36.08.52.16.84.4,1.44,1.55,1.18,2.33-.21.66-1,.87-1.87,1.22-.59.23-1.13.49-1.61.75-1.49.82-2.49,1.7-3.19,2.2-.49.33-.82.49-1.07.31-.03-.02-.06-.05-.07-.08-.32-.37-.1-1.24,0-1.66.09-.36.22-.72.38-1.07.42-.9,1.05-1.72,1.77-2.39,1.27-1.2,2.82-1.93,3.96-1.77Z"/><path class="cls-1" d="m28.28,23.1c.41-.09.81-.08,1.18.01,1.17.3,2.2,1.55,1.97,2.27-.24.73-1.57.33-3.01,1.2-.72.43-1.2,1.03-1.56,1.65-.81,1.41-.94,2.94-1.56,2.92-.1,0-.19-.04-.29-.11-.05-.03-.09-.07-.14-.12-.5-.51-.91-1.78-.81-2.99t0-.02v-.07c.09-.91.47-1.79,1.03-2.54.82-1.14,2.04-1.98,3.19-2.2Z"/><path class="cls-1" d="m26.86,28.23c1.67-1.59,3.89-2.64,4.55-2.14.53.39.28,1.94-.44,2.87-.57.72-1.06.61-1.88,1.22-.68.51-1.09,1.14-1.37,1.76-.49,1.08-.58,2.11-1.11,2.24-.02.01-.03.01-.05.01t-.02.01c-.62.07-1.46-.97-1.61-2.02-.05-.34-.03-.68.05-1.02,0-.04,0-.08.03-.12.25-.99.98-1.97,1.85-2.81Z"/><path class="cls-1" d="m27.72,31.94c.69-.68,1.51-1.05,1.9-.84.57.3.32,1.86.07,2.66-.3.97-1.01,2.17-1.68,2.48-.15.07-.3.1-.44.07-.61-.12-.99-1.2-.96-2.05v-.08c.06-.86.54-1.66,1.11-2.24Z"/><path class="cls-1" d="m50.6,24.88c1.5.01,2.44,1.14,2.34,1.91-.1.72-1.16,1.5-2.51,1.3"/><path class="cls-4" d="m113.01,71.35c2.46,6.43-2.15,31.93-6.78,34.1,2.08,2.65,3.02,1.7,3.02,1.7,0,0,9.64-9.73,6.8-34.11-.57-3.02-3.04-1.69-3.04-1.69Z"/><path class="cls-6" d="m107.74,70.5c.3-.04.69.48.62.92-.03.16-.13.41-.34.46-.27.07-.59-.22-.67-.53-.1-.37.13-.82.39-.85Z"/><path class="cls-6" d="m108.94,70.3c.56.63.37,2.41-.71,2.16.7-.47.47-1.39.71-2.16h0Z"/></svg>