<?xml version="1.0" encoding="utf-8"?>
<!-- Generator: Adobe Illustrator 28.0.0, SVG Export Plug-In . SVG Version: 6.00 Build 0)  -->
<svg version="1.1" xmlns="http://www.w3.org/2000/svg" xmlns:xlink="http://www.w3.org/1999/xlink" x="0px" y="0px"
	 viewBox="0 0 305.9 452.8" style="enable-background:new 0 0 305.9 452.8;" xml:space="preserve">
<style type="text/css">
	.st0{fill:#C1272D;stroke:#FFFFFF;stroke-width:2;stroke-miterlimit:10;}
	.st1{fill:#9E005D;stroke:#FFFFFF;stroke-width:2;stroke-miterlimit:10;}
	.st2{fill:#FFFFFF;}
	.st3{fill:#93278F;stroke:#FFFFFF;stroke-width:2;stroke-miterlimit:10;}
	.st4{fill:#1B1464;stroke:#FFFFFF;stroke-width:2;stroke-miterlimit:10;}
	.st5{fill:none;stroke:#FFFFFF;stroke-width:5;stroke-miterlimit:10;}
</style>
<g id="Layer_1">
	<path class="st0" d="M35.3,30.4L152.1,8.7c8.3-1.5,16.3,3.9,17.8,12.2l31.2,167.1c1.5,8.3-3.9,16.3-12.2,17.8L72.1,227.6
		c-8.3,1.5-16.3-3.9-17.8-12.2L23.1,48.3C21.6,40,27,32,35.3,30.4z"/>
	<path class="st1" d="M91.3,26.4H210c8.4,0,15.3,6.8,15.3,15.3v169.9c0,8.4-6.8,15.3-15.3,15.3H91.3c-8.4,0-15.3-6.8-15.3-15.3V41.7
		C76,33.2,82.8,26.4,91.3,26.4z"/>
	<rect x="2.5" y="227" width="300.9" height="38.5"/>
	<path class="st2" d="M300.9,229.5v33.5H5v-33.5H300.9 M305.9,224.5H0v43.5h305.9V224.5L305.9,224.5z"/>
	<rect x="144.2" y="168.5" transform="matrix(0.527 -0.8499 0.8499 0.527 -207.227 287.5656)" width="21.1" height="322.8"/>
	<path class="st2" d="M23.4,237.3l272.6,169.1L286,422.6L13.4,253.5L23.4,237.3 M22.8,234.5l-12.2,19.6l276,171.2l12.2-19.6
		L22.8,234.5L22.8,234.5L22.8,234.5z"/>
	<rect x="273.9" y="236.8" width="21.9" height="215"/>
	<path class="st2" d="M294.9,237.8v213h-19.9v-213H294.9 M296.9,235.8h-23.9v217h23.9V235.8L296.9,235.8z"/>
	<path class="st3" d="M104.7,11.6h129.8c8.4,0,15.3,6.8,15.3,15.3v184.7c0,8.4-6.8,15.3-15.3,15.3H104.7c-8.4,0-15.3-6.8-15.3-15.3
		V26.9C89.4,18.5,96.3,11.6,104.7,11.6z"/>
	<path class="st4" d="M117.9,1h137.7c8.4,0,15.3,6.8,15.3,15.3v195.3c0,8.4-6.8,15.3-15.3,15.3H117.9c-8.4,0-15.3-6.8-15.3-15.3
		V16.3C102.7,7.8,109.5,1,117.9,1z"/>
</g>
<g id="Layer_3">
	<g>
		<circle class="st5" cx="179.6" cy="57.5" r="46"/>
		<g>
			<path class="st2" d="M184.3,103.5c-0.7,29.3-5.6,65.8,14.8,89.5c6.9,7.8,16.5,12.8,26.5,15.5c-5.2-0.9-10.3-2.4-15.1-4.6
				c-15-6.7-24.9-21.4-29.3-36.9c-4.6-15.6-5.4-31.7-5.9-47.7c0,0-0.4-15.8-0.4-15.8H184.3L184.3,103.5z"/>
		</g>
		<g>
			<path class="st2" d="M171.6,164.9c12-0.8,24.2,0.1,36,2.6c-8.9,2-17.9,2.7-27,2.9c-3,0-6,0-9-0.3V164.9L171.6,164.9z"/>
		</g>
		<g>
			<path class="st2" d="M147.6,169.5c-0.9-14-1.4-28-1.8-42c0,0-0.3-14-0.3-14s4.2-0.2,4.2-0.2c1.7,10.3,7.8,20.5,17.1,25.5
				c27.1,14.3,68.9-8.5,93.8-21.3c-9.3,6.6-18.9,12.6-29.1,17.7c-19.8,9.7-45.9,19.3-67.1,7.9c-10.7-5.9-17.4-17.4-18.9-29.4
				c0,0,4.2-0.2,4.2-0.2l-0.3,14C149.1,141.5,148.5,155.5,147.6,169.5L147.6,169.5z"/>
		</g>
	</g>
</g>
</svg>
