<?xml version="1.0" encoding="utf-8"?>
<!-- Generator: Adobe Illustrator 28.0.0, SVG Export Plug-In . SVG Version: 6.00 Build 0)  -->
<svg version="1.1" xmlns="http://www.w3.org/2000/svg" xmlns:xlink="http://www.w3.org/1999/xlink" x="0px" y="0px"
	 viewBox="0 0 506.9 587.4" style="enable-background:new 0 0 506.9 587.4;" xml:space="preserve">
<style type="text/css">
	.st0{fill:#F7931E;}
	.st1{fill:#FFFFFF;}
	.st2{font-family:'MonotypeCorsiva';}
	.st3{font-size:83px;}
</style>
<g id="Layer_2_00000183210817540100661040000013582498142878404994_">
	<path class="st0" d="M14.5,214.3h217.7c7.4,0,13.5,6,13.5,13.5V573c0,7.4-6,13.5-13.5,13.5H14.5C7,586.4,1,580.4,1,573V227.7
		C1,220.3,7,214.3,14.5,214.3z"/>
	<path class="st1" d="M232.2,215.3c6.9,0,12.5,5.6,12.5,12.5V573c0,6.9-5.6,12.5-12.5,12.5H14.5C7.6,585.4,2,579.8,2,573V227.7
		c0-6.9,5.6-12.5,12.5-12.5L232.2,215.3 M232.2,213.2H14.5c-8,0-14.5,6.5-14.5,14.5V573c0,8,6.5,14.5,14.5,14.5h217.7
		c8,0,14.5-6.5,14.5-14.5V227.7C246.6,219.7,240.2,213.2,232.2,213.2L232.2,213.2z"/>
</g>
<g id="Layer_3">
	<g>
		<g>
			<path class="st1" d="M155.3,455.3l-0.4-106l2.1,2.1c-24,0.3-48,0.3-72-0.3c0,0,1.8-1.8,1.8-1.8c0,0,0.7,71,0.7,71
				c0,0,0,2.7,0,2.7c-4.9-0.2-9.5-1.6-13.8-3.6c-10.9-4.9-17.6-15-16.7-27.1c0.4,7.2,3.3,14.2,9,18.7c5.4,4.3,12.4,6.4,19.2,6.8
				c0,0-2.7,2.5-2.7,2.5c0,0,0.7-71,0.7-71c0,0,0-1.8,0-1.8s1.9-0.1,1.9-0.1c24.7-0.6,49.4-0.5,74.1-0.3c0,0,0,2.1,0,2.1l-0.4,106
				C158.7,455.3,155.3,455.3,155.3,455.3L155.3,455.3z"/>
		</g>
		<g>
			<path class="st1" d="M19,424c5.8,12.1,17.3,31.4,32.8,30.2c44.4-0.4,99.1-1.8,143.2-1.2c0,0-2,2-2,2c0,0-0.5-75-0.5-75
				c0,0,0.2-2.7,0.2-2.7s2.3,0.2,2.3,0.2l38,2.5l-38,2.5l2.5-2.5c0,0-0.5,75-0.5,75c0,0,0,2,0,2c-46,0.5-102-0.7-148.2-1.3
				C34.3,454.1,24.3,436,19,424L19,424z"/>
		</g>
		<g>
			<path class="st1" d="M124,378c2,47.2,2.4,96.6,2.5,144c0,0-4.3-1.8-4.3-1.8c13.2-13.1,30.4-30.2,43.6-43.1
				c2.1,21.8,3.8,83.7-24.8,87.9c18.6-4.1,21-32.9,21.8-48.5c0.5-11.4,0.1-22.9-1-34.2c0,0,3.7,1.3,3.7,1.3
				c-13.1,13.5-30.7,31.1-44.1,44.5c0,0,0-6.1,0-6.1C121.6,474.6,122,425.3,124,378L124,378z"/>
		</g>
		<g>
			<path class="st1" d="M143.5,468.5c0,0-80-0.4-80-0.4c0,0,1.9-3.1,1.9-3.1c2.3,4.2,4.3,8.5,6,12.9c3.9,10.5,12,33.3,1.3,41.7
				c-5.8,4.2-15.3,2.6-21.4,0c-4.4-2-8.3-5.7-9.7-10.4c-1.5-4.4-0.2-11,5.1-11.9c2.4-0.4,4.8,0.5,6.7,1.7c-2-1.1-4.4-1.8-6.7-1.3
				c-3.5,0.7-5.1,4.6-4.8,7.9c0.2,3.4,2,6.5,4.4,8.8c4.9,4.7,12.3,5.9,18.9,5.4c7.6-0.7,9.9-7.1,9.5-13.9
				c-1.1-13.7-7.5-26.5-13.1-38.9c0,0-1.6-3.1-1.6-3.1l3.5,0c0,0,80-0.4,80-0.4V468.5L143.5,468.5z"/>
		</g>
	</g>
	<text transform="matrix(1 0 0 1 22.866 293.9921)" class="st1 st2 st3">Magic</text>
</g>
</svg>
