<?xml version="1.0" encoding="UTF-8"?><svg id="Layer_2" xmlns="http://www.w3.org/2000/svg" viewBox="0 0 272.67 458.55"><defs><style>.cls-1,.cls-2,.cls-3,.cls-4,.cls-5{stroke-width:0px;}.cls-6,.cls-7,.cls-8{fill:none;stroke:#000;}.cls-6,.cls-8{stroke-linecap:round;stroke-linejoin:round;}.cls-7{stroke-miterlimit:10;}.cls-7,.cls-8{stroke-width:2px;}.cls-2{fill:#93278f;}.cls-3{fill:#2e3192;}.cls-4{fill:#603813;}.cls-5{fill:#c69c6d;}</style></defs><path class="cls-5" d="m168.49,339.35c8.78-11.34,30.04-6.66,29.57-3.78-1.7,10.49-20.03,1.98-22.87,7.93-2.83,5.96-7.55,29.58-46.67,10.59,0,1.83,0,3.57-.01,5.21-5.09-2.09-9.81-11.25-12.78-24.14,6.58-.21,13.06.3,15.62,3.62,6.52,7.65,23.81,20.41,37.14.57Z"/><path class="cls-5" d="m153.08,420.7c2.11,4.22-6.4,9.82-17.4,14.69-.16-.2-.35-.4-.57-.59-5.36-4.8-8.06-5.7-16.84-4.67,12.41-4.41,10.89-6.5,7.12-7.68,5.27-3.22,10.38-8.13,13.2-11.92v-.02c5.95,2.31,12.19,5.58,14.49,10.19Z"/><path class="cls-2" d="m83.79,424.15c-3.33-3.88-10.4-8.86-15.54-12.24,3.19-2.52,6.31-4.86,8.18-6.23h.01c1.05,2.11,3.5,3.78,8.52,4.34,12.75,1.42,12.66,1.23,22.01.19,9.5-.42,16.16-.84,19.85-.56,1.51.12,2.55-.24,2.99-2.14,2.39.76,5.54,1.74,8.79,3v.02c-2.83,3.79-7.94,8.7-13.21,11.92,3.77,1.18,5.29,3.27-7.12,7.68-.2.02-.4.05-.6.07-9.26,1.13-17.88.52-21.47-.05s-20.79-.76-17.01-3.78c1.31-1.04,2.98-1.75,4.6-2.22Z"/><path class="cls-5" d="m87.22,441.71c-8.66.26-16.96.11-22.01-1.73-13.98-5.11-8.88-13.61-7.75-17.58.57-1.98,5.76-6.49,10.79-10.49,5.14,3.38,12.21,8.36,15.54,12.24-1.62.47-3.29,1.18-4.6,2.22-3.78,3.02,13.42,3.21,17.01,3.78s12.21,1.18,21.47.05c.2-.02.4-.05.6-.07,8.78-1.03,11.48-.13,16.84,4.67.22.19.41.39.57.59,4.16,4.84-4.93,11.06-10.38,17.06-5.66,6.24-10.72,4.24-9.96.46-.24-.61,1.96-3.6,5.17-9.46-.27-.7-1-1.22-2.1-1.6-5.18-1.81-18.57-.53-31.19-.14Z"/><path class="cls-4" d="m134.94,244.01c1.51.57.95,7.37-1.7,8.69-1.37.68-3.34,1.57-4.8,2.53-5.39-5.34-17.92-11.45-27.04-7.73-3.36,1.37-4.23,3.12-3.76,4.95-.47-.57-1.13-1.21-2-1.92-8.67-7.12-30.34,7.64-34.33,14.31-1.96-1.99-3.63-4.82-2.71-7.41,1.13-3.22,2.64-7.75.94-11.15-1.7-3.41-3.02-8.51-1.7-10.59s4.54-3.59,5.48-6.23c.94-2.65,3.78-12.29,8.13-10.02,4.34,2.27,5.1,2.65,12.47-2.64,7.37-5.3,10.2-5.11,12.28-2.84s8.69,7.75,11.72,5.29c3.02-2.45,11.34-3.59,11.53-.75.19,2.83,5.85,4.15,9.63,4.91s4.73-1.7,4.92,2.27.19,7.93-4.54,10.2c-1.89,4.35,3.97,7.56,5.48,8.13Z"/><path class="cls-3" d="m130.97,258.84c1.29,4.31.53,8.07-1.77,9.31-3.55-4.13-19.6-11.57-25.34-13.37-1.52-.47-3.37-.71-5.31-.67-.1-.5-.39-1.04-.91-1.66-.47-1.83.4-3.58,3.76-4.95,9.12-3.72,21.65,2.39,27.04,7.73,1.33,1.3,2.22,2.56,2.53,3.61Z"/><path class="cls-3" d="m129.65,268.76c1.7,2.9-1.15,9.93-5.51,10.86-1.47.32-3.1-.05-4.79-1.5-4.1-3.52-15.01-9.04-24.46-11.15,4.97-3.23,4.59-8.71,3.64-12.12.04-.16.05-.33.04-.5,0-.08-.01-.16-.02-.24,1.94-.04,3.79.2,5.31.67,5.74,1.8,21.79,9.24,25.34,13.37.19.21.34.42.45.61Z"/><path class="cls-5" d="m128.86,393.92c1.18,7.43,1.44,11.47.95,13.59-.44,1.9-1.48,2.26-2.99,2.14-3.69-.28-10.35.14-19.85.56-9.35,1.04-9.26,1.23-22.01-.19-5.02-.56-7.47-2.23-8.52-4.34h-.01c-1.62-3.2-.07-7.43.47-10.35,11.64,4.4,33.17,5.09,51.81-1.39l.15-.02Z"/><path class="cls-2" d="m128.86,393.92l-.15.02c-18.64,6.48-40.17,5.79-51.81,1.39.01-.05.02-.09.03-.14.72-4.07-.39-21.31-1.94-35.45,3.96-3.21,6.9-11.75,7.58-23.32,1.46-.13,2.96-.21,4.45-.25.82,6.71,4.47,11.73,8.33,12.44,3.54.65,8.4-2.13,11.37-7.5.9-1.62,1.63-3.48,2.09-5.55,2.2-.16,4.56-.33,6.92-.4,2.97,12.89,7.69,22.05,12.78,24.14-.1,22.97-.84,27.67-.84,27.67.47,2.59.86,4.9,1.19,6.95Z"/><path class="cls-5" d="m124.14,279.62c.84,12.09.86,29.84-5.07,37.9-3.9,5.3-10.18,7.64-16.65,8.06-3.34.22-6.72-.07-9.87-.74-5.57-1.17-10.38-3.49-12.79-6.19-5.21-5.83-7.19-26.83-4.72-40.61,3.77-1.49,8.39-7.34,15.68-9.28,1.69-.45,3.06-1.06,4.17-1.79,9.45,2.11,20.36,7.63,24.46,11.15,1.69,1.45,3.32,1.82,4.79,1.5Z"/><path class="cls-5" d="m87.22,441.71c12.62-.39,26.01-1.67,31.19.14-7.49,2.35-14.33,3.94-18.24,4.17-4.16,7.19,4.91,10.21-.38,11.34-5.29,1.14-9.82-2.64-12.09-12.47-.29-1.23-.44-2.28-.48-3.18Z"/><path class="cls-5" d="m108.81,335.56c-.46,2.07-1.19,3.93-2.09,5.55l-1.73-.63c-.69-.69-1.2-2.4-1.58-4.56,1.58-.07,3.43-.21,5.4-.36Z"/><path class="cls-5" d="m90.36,336.13h.01c.82-2.96,1.92-7.47,2.18-11.29,3.15.67,6.53.96,9.87.74.18,3.3.46,7.28.99,10.34.38,2.16.89,3.87,1.58,4.56l1.73.63c-2.97,5.37-7.83,8.15-11.37,7.5-3.86-.71-7.51-5.73-8.33-12.44,1.13-.03,2.26-.04,3.34-.04Z"/><path class="cls-3" d="m98.53,254.85c.95,3.41,1.33,8.89-3.64,12.12-1.11.73-2.48,1.34-4.17,1.79-7.29,1.94-11.91,7.79-15.68,9.28-2.15.84-4.03.26-5.96-3.32-1.04-1.93-.89-4.09.1-6.28,4.03-8.94,21.95-18.32,29.1-14.42l.03.09c.07.23.15.48.22.74Z"/><path class="cls-3" d="m98.41,254.11h-.1l-.03-.09c-7.15-3.9-25.07,5.48-29.1,14.42-3.71.39-8.58,2.47-8.51-1.85.01-.48.23-1.07.64-1.75,3.99-6.67,25.66-21.43,34.33-14.31.87.71,1.53,1.35,2,1.92.15.55.41,1.1.77,1.66Z"/><path class="cls-5" d="m82.57,336.42c-.68,11.57-3.62,20.11-7.58,23.32-.29-2.59-.59-5.07-.9-7.35-28.63,42.23-51.31-2.55-64.06-2.84-12.76-.28-11.91-6.23,1.98-7.65,13.89-1.42,5.34-2.51,17.11,9.26,15.68,20.41,39.87-5.29,42.7-10.68,1.33-2.52,5.77-3.61,10.75-4.06Z"/><path class="cls-7" d="m90.36,336.13c-.54,1.94-.96,3.22-.96,3.22"/><path class="cls-7" d="m92.55,324.84c-.26,3.82-1.36,8.33-2.18,11.29"/><path class="cls-7" d="m102.42,325.58c.18,3.3.46,7.28.99,10.34.38,2.16.89,3.87,1.58,4.56"/><path class="cls-7" d="m76.43,405.68c-1.62-3.2-.07-7.43.47-10.35.01-.05.02-.09.03-.14.72-4.07-.39-21.31-1.94-35.45-.29-2.59-.59-5.07-.9-7.35-28.63,42.23-51.31-2.55-64.06-2.84-12.76-.28-11.91-6.23,1.98-7.65,13.89-1.42,5.34-2.51,17.11,9.26,15.68,20.41,39.87-5.29,42.7-10.68,1.33-2.52,5.77-3.61,10.75-4.06,1.46-.13,2.96-.21,4.45-.25,1.13-.03,2.26-.04,3.34-.04h.01"/><path class="cls-7" d="m103.41,335.92c1.58-.07,3.43-.21,5.4-.36,2.2-.16,4.56-.33,6.92-.4,6.58-.21,13.06.3,15.62,3.62,6.52,7.65,23.81,20.41,37.14.57,8.78-11.34,30.04-6.66,29.57-3.78-1.7,10.49-20.03,1.98-22.87,7.93-2.83,5.96-7.55,29.58-46.67,10.59,0,1.83,0,3.57-.01,5.21-.1,22.97-.84,27.67-.84,27.67.47,2.59.86,4.9,1.19,6.95,1.18,7.43,1.44,11.47.95,13.59-.44,1.9-1.48,2.26-2.99,2.14-3.69-.28-10.35.14-19.85.56-9.35,1.04-9.26,1.23-22.01-.19-5.02-.56-7.47-2.23-8.52-4.34"/><path class="cls-7" d="m82.57,336.42c-.68,11.57-3.62,20.11-7.58,23.32"/><path class="cls-7" d="m115.73,335.16c2.97,12.89,7.69,22.05,12.78,24.14"/><path class="cls-7" d="m87.02,336.17c.82,6.71,4.47,11.73,8.33,12.44,3.54.65,8.4-2.13,11.37-7.5.9-1.62,1.63-3.48,2.09-5.55"/><path class="cls-7" d="m76.9,395.33c11.64,4.4,33.17,5.09,51.81-1.39"/><path class="cls-7" d="m76.44,405.68h-.01c-1.87,1.37-4.99,3.71-8.18,6.23-5.03,4-10.22,8.51-10.79,10.49-1.13,3.97-6.23,12.47,7.75,17.58,5.05,1.84,13.35,1.99,22.01,1.73,12.62-.39,26.01-1.67,31.19.14,1.1.38,1.83.9,2.1,1.6-3.21,5.86-5.41,8.85-5.17,9.46-.76,3.78,4.3,5.78,9.96-.46,5.45-6,14.54-12.22,10.38-17.06-.16-.2-.35-.4-.57-.59-5.36-4.8-8.06-5.7-16.84-4.67-.2.02-.4.05-.6.07-9.26,1.13-17.88.52-21.47-.05s-20.79-.76-17.01-3.78c1.31-1.04,2.98-1.75,4.6-2.22,3.08-.91,5.99-.99,5.99-.99"/><path class="cls-7" d="m83.79,424.15c-3.33-3.88-10.4-8.86-15.54-12.24-.02,0-.03-.02-.05-.03"/><path class="cls-7" d="m118.41,441.85c-7.49,2.35-14.33,3.94-18.24,4.17-4.16,7.19,4.91,10.21-.38,11.34-5.29,1.14-9.82-2.64-12.09-12.47-.29-1.23-.44-2.28-.48-3.18v-.04"/><path class="cls-7" d="m129.81,407.51c2.39.76,5.54,1.74,8.79,3,5.94,2.31,12.18,5.58,14.48,10.19,2.11,4.22-6.4,9.82-17.4,14.69"/><path class="cls-7" d="m119.07,421.08c1.48.34,4.24.72,6.32,1.37,3.77,1.18,5.29,3.27-7.12,7.68"/><path class="cls-7" d="m138.59,410.53c-2.82,3.79-7.93,8.7-13.2,11.92"/><path class="cls-8" d="m75.04,278.04c-2.47,13.78-.49,34.78,4.72,40.61,2.41,2.7,7.22,5.02,12.79,6.19,3.15.67,6.53.96,9.87.74,6.47-.42,12.75-2.76,16.65-8.06,5.93-8.06,5.91-25.81,5.07-37.9"/><path class="cls-8" d="m98.31,254.11l-.03-.09c-7.15-3.9-25.07,5.48-29.1,14.42-.99,2.19-1.14,4.35-.1,6.28,1.93,3.58,3.81,4.16,5.96,3.32,3.77-1.49,8.39-7.34,15.68-9.28,1.69-.45,3.06-1.06,4.17-1.79,4.97-3.23,4.59-8.71,3.64-12.12-.07-.26-.15-.51-.22-.74Z"/><path class="cls-8" d="m94.89,266.97c9.45,2.11,20.36,7.63,24.46,11.15,1.69,1.45,3.32,1.82,4.79,1.5,4.36-.93,7.21-7.96,5.51-10.86-.11-.19-.26-.4-.45-.61-3.55-4.13-19.6-11.57-25.34-13.37-1.52-.47-3.37-.71-5.31-.67-.05-.01-.09-.01-.14,0h-.1"/><path class="cls-8" d="m69.18,268.44c-3.71.39-8.58,2.47-8.51-1.85.01-.48.23-1.07.64-1.75,3.99-6.67,25.66-21.43,34.33-14.31.87.71,1.53,1.35,2,1.92.52.62.81,1.16.91,1.66.01.08.02.16.02.24.01.17,0,.34-.04.5"/><path class="cls-8" d="m129.2,268.15c2.3-1.24,3.06-5,1.77-9.31-.31-1.05-1.2-2.31-2.53-3.61-5.39-5.34-17.92-11.45-27.04-7.73-3.36,1.37-4.23,3.12-3.76,4.95.15.55.41,1.1.77,1.66.05.08.1.16.16.24"/><line class="cls-8" x1="122.51" y1="266.95" x2="122.52" y2="266.95"/><path class="cls-8" d="m61.31,264.84c-1.96-1.99-3.63-4.82-2.71-7.41,1.13-3.22,2.64-7.75.94-11.15-1.7-3.41-3.02-8.51-1.7-10.59s4.54-3.59,5.48-6.23c.94-2.65,3.78-12.29,8.13-10.02,4.34,2.27,5.1,2.65,12.47-2.64,7.37-5.3,10.2-5.11,12.28-2.84s8.69,7.75,11.72,5.29c3.02-2.45,11.34-3.59,11.53-.75.19,2.83,5.85,4.15,9.63,4.91s4.73-1.7,4.92,2.27.19,7.93-4.54,10.2c-1.89,4.35,3.97,7.56,5.48,8.13s.95,7.37-1.7,8.69c-1.37.68-3.34,1.57-4.8,2.53"/><path class="cls-8" d="m117.46,289.88c-5.55-3.66-9.74-2.8-9.74-2.8"/><path class="cls-8" d="m91.93,287.08c-6.59-.91-10,1.67-10,1.67"/><path class="cls-6" d="m97.89,295.49c-.31,5.39,5.4,5.53,5.6-.22"/><path class="cls-6" d="m95.91,310.75c4.82.99,8.36-1.28,8.36-1.28"/><path class="cls-1" d="m105.13,405.94c1.93,0,1.93-3,0-3s-1.93,3,0,3h0Z"/></svg>