<?xml version="1.0" encoding="UTF-8"?><svg id="Layer_10" xmlns="http://www.w3.org/2000/svg" viewBox="0 0 1566.24 1685.06"><defs><style>.cls-1{fill:#754c24;stroke-width:0px;}</style></defs><path class="cls-1" d="m621.34,813.55c17.47-1.75,35.17-1.1,52.67-.04,19.76,1.19,39.47,3.16,59.17,5.13,10.32,1.03,20.65,2.08,30.98,3,1.62.14,3-1.48,3-3,0-1.74-1.38-2.86-3-3-18.97-1.68-37.9-3.77-56.86-5.51s-38.62-3.33-57.99-3.57c-9.33-.12-18.68.07-27.97,1-1.61.16-3,1.26-3,3,0,1.5,1.38,3.16,3,3h0Z"/><path class="cls-1" d="m815.36,816.24c19.83-1.76,39.28,2.74,58.73,5.88,9.9,1.6,19.83,2.64,29.85,3.01,10.25.37,20.51.21,30.76-.06,11.42-.3,22.83-.74,34.26-.75,3.86,0,3.87-6,0-6-20.39.01-40.77,1.41-61.16.92-9.83-.23-19.62-.98-29.34-2.47s-19.57-3.47-29.41-4.91c-11.16-1.63-22.43-2.63-33.69-1.63-1.61.14-3,1.28-3,3,0,1.51,1.38,3.14,3,3h0Z"/><path class="cls-1" d="m1029.42,807.75c11.97,5.06,24.87,7.41,37.69,9.12,14.37,1.92,28.87,2.81,43.34,3.46,6.79.31,13.59.55,20.38.8,6.11.23,12.22.64,18.34.63,14.21-.03,28.37-1.58,42.55-2.21,7.05-.31,14.13-.45,21.17,0,6.17.38,11.88,1.11,17.9,3.08.62.2,1.23.42,1.84.65.32.12.64.25.96.38.07.03.53.22.09.04.18.08.35.16.53.23,1.48.66,3.22.43,4.1-1.08.75-1.28.41-3.44-1.08-4.1-11.98-5.33-25.7-5.69-38.61-5.41-14.43.31-28.8,1.85-43.22,2.33-6.22.2-12.39-.03-18.6-.28-6.56-.27-13.11-.49-19.67-.75-14.46-.58-28.92-1.32-43.3-2.93-12.68-1.41-25.79-3.44-37.99-7.81-.61-.22-1.22-.45-1.83-.68-.32-.12-.64-.25-.96-.38-.18-.07-1.05-.43-.63-.25-1.49-.63-3.21-.45-4.1,1.08-.74,1.26-.42,3.47,1.08,4.1h0Z"/><path class="cls-1" d="m277.02,893.28c-9.16-4.42-25-9.66-32.08.86-2.87,4.26-3.83,10.93-.67,15.28,2.82,3.88,7.56,5.57,12.04,6.71,4.11,1.04,8.38,1.58,12.39,3.01.58.21-.07-.04-.03-.02.18.1.38.17.56.27.32.16.63.35.93.55.28.19.69.52,1.19.94.58.47,1.14.96,1.69,1.47.9.83,1.7,1.73,2.52,2.63.36.4-.33-.49.08.1.12.18.26.36.38.54.25.38.47.78.69,1.18.07.13.29.71.11.2-.2-.53.02.07.05.19.05.18.1.35.15.53.22.78-.08-.16,0-.16.05,0,.02.84.02.91.04.53.18-.61.04-.28-.06.14-.09.35-.13.5-.14.6-.02-.24.12-.24-.02,0-.19.38-.21.41-.07.11-.16.23-.22.34-.25.47.55-.54.06-.09-.21.19-.41.41-.62.61-.42.4.22-.14.15-.1-.17.09-.34.24-.5.35-.28.18-.57.35-.87.5-.32.17-1.45.58-.53.28-.83.27-1.63.6-2.47.84-.89.25-1.8.45-2.71.62-.48.09-.97.17-1.45.24-.13.02-.26.04-.4.06,0,0,.64-.07.3-.04-.3.03-.61.07-.91.11-4.28.46-8.63.43-12.92,0-.48-.05-.95-.1-1.42-.16-.83-.1.26.05-.2-.02-.26-.04-.52-.07-.78-.11-.96-.15-1.91-.32-2.86-.53-.83-.18-1.65-.39-2.47-.64-.37-.11-.74-.23-1.1-.36-.16-.06-.32-.12-.48-.18-.73-.27.28.15.01.01-.54-.28-1.09-.52-1.6-.86-1.35-.9-3.32-.26-4.1,1.08-.86,1.47-.28,3.21,1.08,4.1,2.76,1.83,6.32,2.58,9.54,3.1,4.4.71,8.87,1.01,13.32.85,4.11-.15,8.4-.58,12.3-1.96,3.29-1.17,6.77-3.15,7.77-6.75,1.15-4.13-1.59-8.07-4.33-10.87-1.76-1.8-3.83-3.78-6.07-4.96-1.78-.94-3.74-1.5-5.69-1.97-4.34-1.04-8.81-1.65-13-3.24-.13-.05-.82-.33-.42-.16.43.18-.29-.13-.4-.18-.48-.23-.96-.47-1.42-.74-.22-.13-.44-.27-.66-.41-.1-.06-.71-.5-.31-.21s-.19-.16-.27-.24c-.21-.18-.4-.37-.59-.57-.15-.15-.28-.32-.42-.47.58.61.07.09-.06-.12-.11-.18-.21-.36-.32-.54-.04-.08-.08-.17-.12-.24-.29-.45.08.4.05.13-.05-.41-.27-.96-.39-1.36-.15-.5.02.6-.01-.1-.01-.32-.04-.63-.03-.95,0-.26.02-.52.04-.78.05-.76-.09.29.03-.27.15-.69.29-1.38.51-2.06.12-.37.24-.74.38-1.11-.17.43.16-.34.22-.46.15-.28.3-.56.47-.83.09-.15.2-.29.29-.44-.23.34-.08.09.09-.1.19-.22.39-.43.6-.64.14-.14.86-.7.33-.32.5-.36,1.02-.66,1.56-.94.64-.33-.27.06.41-.17.28-.09.55-.18.83-.26s.57-.15.86-.21c.16-.03,1.29-.19.6-.12,1.34-.14,2.69-.15,4.03-.05.37.03.74.07,1.11.11.03,0,.49.06.16.02-.37-.05.22.03.3.05.75.12,1.49.26,2.23.43,2.72.6,5.37,1.48,7.95,2.52.15.06.31.13.46.19-.03-.01-.47-.2-.16-.07.25.11.51.22.76.33.53.24,1.06.48,1.58.74,1.46.7,3.24.4,4.1-1.08.77-1.31.39-3.4-1.08-4.1h0Z"/><path class="cls-1" d="m302.19,895.07c-2.02,11.43-5.14,22.63-6.82,34.12-.23,1.6.4,3.22,2.1,3.69,1.41.39,3.45-.48,3.69-2.1,1.68-11.49,4.81-22.7,6.82-34.12.28-1.59-.43-3.23-2.1-3.69-1.45-.4-3.41.49-3.69,2.1h0Z"/><path class="cls-1" d="m349.1,892.98c-6.65-1.49-14.46-1.69-19.75,3.31-3.84,3.62-5.12,9.25-4.57,14.35s2.48,10.27,6.23,13.81,9.21,4.49,13.66,1.46c2.84-1.93,4.96-4.72,6.64-7.68,2.47-4.34,4.18-9.14,5.57-13.93.45-1.55.86-3.1,1.24-4.66l-5.89-.8c-.13,5.17-.37,10.34-.88,15.49-.13,1.37-.29,2.74-.46,4.11-.02.18-.05.35-.07.53,0-.04.07-.49.02-.14-.04.31-.09.62-.13.93-.1.7-.21,1.41-.33,2.11-.44,2.68-.99,5.34-1.68,7.96-.65,2.46-1.44,4.87-2.4,7.22-.17.41.2-.46.02-.05-.06.15-.13.29-.19.44-.11.25-.23.5-.35.75-.27.56-.54,1.12-.84,1.67-.55,1.03-1.15,2.04-1.81,3-.15.21-.3.42-.45.63-.08.12-.17.23-.26.35.05-.07.41-.5.07-.09s-.68.83-1.05,1.23c-.74.81-1.54,1.53-2.37,2.24-.37.32.45-.3-.22.16-.2.14-.4.28-.6.41-.46.31-.94.59-1.43.85-.22.11-.43.23-.65.33-.19.09-.99.42-.25.13-.53.21-1.07.41-1.62.57-.6.18-1.2.33-1.82.45-.17.03-1,.17-.61.11.36-.05-.57.06-.75.07-1.4.12-2.81.09-4.21-.05-.18-.02-.35-.04-.53-.06-.58-.06.23.04-.14-.02-.41-.07-.82-.13-1.23-.21-.81-.16-1.62-.34-2.42-.56-1.83-.49-3.62-1.12-5.38-1.83-1.5-.61-3.3.66-3.69,2.1-.47,1.71.59,3.08,2.1,3.69,5.8,2.34,12.11,3.72,18.34,2.55,4.87-.91,9.28-3.72,12.43-7.51,7.14-8.6,9.35-20.37,10.63-31.16.72-6.11,1.03-12.26,1.19-18.41.09-3.37-5.08-4.1-5.89-.8-.68,2.77-1.45,5.52-2.35,8.22-.37,1.11-.77,2.22-1.19,3.31-.1.26-.2.51-.3.77-.03.07-.37.9-.11.27-.23.55-.47,1.09-.72,1.62-.77,1.66-1.64,3.27-2.65,4.8-.21.31-.43.62-.65.93-.11.15-.52.66.04-.03-.11.14-.22.27-.33.41-.44.54-.91,1.05-1.41,1.53-.21.2-.43.39-.65.59-.69.62.43-.26-.15.12-.46.3-.92.58-1.4.85-.75.42.59-.16-.03.02-.21.06-.42.15-.64.21s-.42.09-.63.15c-.56.15.89-.02-.03,0-.33,0-.92-.13-1.22-.04.55-.16.81.15.4.05-.1-.03-.2-.04-.3-.06-.23-.05-.46-.12-.68-.19-.1-.03-.19-.07-.29-.1-.45-.14.16-.16.34.15-.06-.1-.45-.21-.56-.27-.41-.22-.77-.5-1.16-.74s.61.54.26.2c-.08-.08-.17-.14-.25-.21-.17-.15-.34-.3-.5-.45-.36-.35-.69-.72-1.02-1.1-.08-.09-.14-.19-.22-.28-.34-.37.44.66.18.23-.13-.2-.28-.39-.42-.59-.3-.45-.58-.9-.84-1.37-.23-.41-.44-.83-.63-1.25-.05-.12-.1-.24-.16-.35-.24-.48.29.74.1.24-.11-.29-.23-.57-.33-.85-.37-1.04-.67-2.1-.88-3.18-.05-.26-.09-.52-.14-.79-.16-.93.05.6-.02-.12-.05-.57-.11-1.14-.13-1.72-.02-.53-.01-1.05.02-1.58.01-.26.03-.52.06-.78.01-.13.03-.26.04-.39.04-.51-.16.89-.02.16.2-1.06.5-2.04.83-3.06.16-.5-.35.72-.11.25.06-.11.1-.23.16-.34.11-.22.22-.45.35-.66.12-.21.93-1.19.89-1.36.05.21-.53.63-.16.22.11-.12.22-.26.33-.38.2-.22.41-.43.63-.63.09-.09.19-.17.29-.26.51-.47-.09-.08-.1.06.01-.13.65-.46.76-.53.27-.17.54-.33.82-.48.26-.13,1.33-.55.31-.18.66-.24,1.31-.48,2-.65.37-.09.73-.16,1.1-.23.16-.03.33-.05.49-.08-1,.18-.17.03.05,0,.86-.08,1.72-.11,2.58-.09.96.02,1.92.11,2.88.23-.84-.1-.07,0,.08.02.3.05.6.1.9.15.55.1,1.1.22,1.64.34,1.58.36,3.25-.48,3.69-2.1.41-1.51-.51-3.33-2.1-3.69h0Z"/><path class="cls-1" d="m370.33,895.87c-.02,10.74,1,21.72-2.22,32.13l5.89.8c-.02-1.74.01-3.49.13-5.23.05-.83.13-1.65.22-2.47.02-.2.05-.41.07-.61.06-.51-.06.4.01-.11.06-.45.13-.9.21-1.34.27-1.59.62-3.17,1.07-4.71.21-.72.44-1.44.7-2.14.11-.3.23-.6.35-.91.21-.55.06-.16.01-.04.11-.25.22-.5.33-.74.61-1.31,1.33-2.58,2.17-3.76.11-.15.57-.76.22-.32.21-.26.43-.53.65-.78.5-.57,1.03-1.11,1.6-1.61.25-.22.51-.44.77-.65-.49.39.27-.19.41-.28.56-.38,1.14-.73,1.75-1.04.31-.16.62-.31.93-.45-.55.25.32-.12.5-.19.77-.28,1.56-.5,2.35-.68.37-.08.74-.14,1.11-.21.59-.11.2-.03.06-.01.29-.04.59-.06.89-.09.93-.08,1.87-.09,2.8-.06,2.26.07,3.96.36,6.23.9l-2.1-2.1c2.43,11.96,3.59,24.26.23,36.17l5.89.8c.08-2.05.29-4.09.05-6.14-.19-1.61-1.25-3-3-3-1.48,0-3.19,1.38-3,3,.24,2.04.03,4.09-.05,6.14-.13,3.42,4.99,4.02,5.89.8,3.65-12.96,2.42-26.34-.23-39.36-.2-.98-1.14-1.87-2.1-2.1-7.37-1.76-15.65-1.77-21.97,2.95-5.59,4.18-8.63,10.7-10.01,17.4-.88,4.26-1.21,8.63-1.16,12.97.04,3.41,4.89,4.03,5.89.8,3.38-10.94,2.41-22.45,2.43-33.73,0-3.86-5.99-3.87-6,0h0Z"/><path class="cls-1" d="m300.53,864.75c3.86,0,3.87-6,0-6s-3.87,6,0,6h0Z"/><path class="cls-1" d="m475.26,887.87c-.54,15.48-5.55,30.58-4.05,46.17.16,1.61,1.27,3,3,3s2.97-1.37,3-3c0-.45.03-.89.06-1.34.02-.22.04-.43.06-.65.01-.11.03-.22.04-.33.07-.74-.07.44,0,0,.17-1.09.38-2.18.65-3.25s.6-2.21.98-3.3c.19-.56.4-1.11.62-1.66.05-.13.1-.26.15-.38-.02.05-.17.4-.04.08.15-.34.3-.68.45-1.01.53-1.12,1.11-2.22,1.76-3.28.28-.46.58-.92.89-1.37.18-.26.36-.51.55-.76.21-.27-.03.04-.06.08.11-.14.22-.27.33-.41.75-.89,1.56-1.71,2.45-2.47.1-.08.19-.16.29-.24-.03.02-.39.28-.11.09.24-.16.47-.33.71-.49.48-.31.99-.56,1.49-.82s-.36.09.17-.07c.23-.07.45-.16.69-.23.27-.08.54-.15.82-.21.24-.05.9-.14.29-.07.54-.06,1.08-.08,1.63-.06.3.01.6.03.9.07-.59-.07.2.05.39.09,1.36.29,2.2.61,3.14,1.16.21.12.41.26.62.39.43.27-.28-.29.23.2.17.17.34.32.5.5.08.09.15.18.24.26.39.39-.15-.25.04.04.27.4.53.8.75,1.22.1.2.38.82.16.28.11.27.21.55.3.82.18.53.33,1.07.45,1.62.06.26.11.52.16.78.03.18.06.36.09.53-.05-.3-.03-.26,0,.02.26,2.59.19,5.17-.07,7.76-.04.4-.09.8-.14,1.21-.02.15-.04.3-.06.45.04-.33.01-.08-.02.1-.11.74-.23,1.49-.36,2.23-.25,1.42-.53,2.84-.84,4.25-.27,1.26-.57,2.52-.86,3.78-.13.54-.2,1.12-.39,1.64-.01.03-.13.34-.04.11.13-.32-.48.53-.08.04-.59.72-.56.15.73-.22h1.6-.04c.44.25.88.5,1.32.76l-.03-.03.77,1.32c-.12-.33.07.99.08.39,0-.24-.13.86-.03.19.09-.6.19-1.2.23-1.8.09-1.27-.23-2.66-1.19-3.56-2.82-2.63-7.07,1.6-4.24,4.24-.22-.21-.42-.59-.51-.89-.25-.85-.01-.56-.04-.33s-.03.49-.03.72c0,.44.09-.64-.02.11-.06.44-.15.88-.17,1.32-.12,2.49,2.5,4.33,4.75,2.98,2.83-1.71,3.18-5.59,3.83-8.51,1.45-6.55,2.67-13.44,1.57-20.14-.5-3.01-1.73-6.04-3.93-8.21-2.45-2.42-6.01-3.66-9.4-3.9-6.56-.46-11.9,4.12-15.28,9.29-3.55,5.44-5.86,12.33-5.98,18.85h6c-1.5-15.58,3.52-30.69,4.05-46.17.13-3.86-5.87-3.86-6,0h0Z"/><path class="cls-1" d="m516.82,909.13c7.39.11,14.77.06,22.15-.19,1.58-.05,3.06-1.33,3-3-.13-3.87-1.08-8.18-4.25-10.73-2.75-2.22-6.35-2.65-9.68-1.61-7.8,2.43-13.06,10.5-14.22,18.29-1.34,8.94,1.76,17.56,7.46,24.41,4.26,5.11,10.91,10.08,17.9,9.84,3.96-.14,7.33-2.1,9.58-5.33,2.85-4.09,3.46-9.53,3.52-14.37.05-3.86-5.95-3.86-6,0-.01,1.13-.06,2.26-.16,3.39-.03.31-.06.62-.1.93.06-.48,0,.02-.01.1-.08.56-.18,1.12-.3,1.68-.18.84-.4,1.67-.69,2.48-.07.19-.54,1.29-.21.58-.19.39-.37.78-.58,1.16-.17.3-.35.58-.53.87-.46.71.32-.3-.23.31-.2.23-.41.46-.63.67-.2.19-1.12.83-.33.32-.48.3-.96.57-1.45.85.81-.46.06-.03-.21.05-.32.1-.64.16-.96.25-.79.2.63,0-.2.03-.28.01-.57.04-.85.04s-.58-.01-.87-.03c-.12,0-.23-.03-.35-.03-.53-.03.74.16-.09-.02-.61-.13-1.21-.26-1.8-.45-.31-.1-.61-.21-.91-.32-.12-.04-.24-.1-.37-.14.8.3.07.03-.11-.05-1.31-.6-2.55-1.34-3.72-2.18-.18-.13-1.03-.79-.46-.33-.29-.24-.59-.47-.87-.71-.64-.55-1.26-1.12-1.86-1.72-.55-.56-1.09-1.13-1.6-1.73-.26-.3-.51-.61-.76-.92-.51-.62.35.5-.12-.15-.14-.2-.29-.39-.43-.58-.99-1.38-1.87-2.84-2.62-4.36-.18-.36-.34-.74-.52-1.1-.34-.71.15.39-.03-.07-.08-.19-.15-.38-.23-.56-.32-.83-.6-1.67-.84-2.53-.57-2.04-.75-3.33-.81-5.29-.03-1,0-2.01.1-3.01.02-.19.04-.39.06-.58-.08.64.05-.29.06-.34.09-.51.19-1.02.31-1.52.21-.89.48-1.76.8-2.61.08-.21.16-.42.24-.62-.22.55,0,0,.06-.13.2-.43.41-.86.63-1.28.39-.74.83-1.45,1.31-2.14.14-.2.28-.4.43-.59-.36.49-.11.14-.03.04.31-.36.61-.72.93-1.07.52-.56,1.08-1.06,1.64-1.57.11-.09.7-.55.08-.08.11-.09.23-.17.35-.26.35-.24.69-.48,1.05-.7s.7-.41,1.07-.59c.12-.06.24-.11.36-.17.46-.25-.62.2.18-.07.33-.11.65-.22.98-.31.15-.04.29-.08.44-.11.1-.02.88-.17.3-.07-.52.08.44-.03.63-.03.34,0,.67.04,1,.05-1-.03.01.03.32.12.13.04.25.09.38.13.64.17-.45-.33-.05-.02.24.19.58.36.84.51-.06-.03-.54-.49-.21-.16.14.14.3.26.44.41.1.1.19.22.3.32.42.39-.3-.51-.03-.04.19.33.41.64.59.98.09.18.18.36.26.55-.2-.44-.11-.28,0,.08.14.44.27.88.37,1.33.04.16.07.32.1.48.03.17.06.33.09.5-.04-.37-.05-.37,0-.02.05.56.09,1.13.11,1.69l3-3c-7.38.25-14.77.3-22.15.19-3.86-.06-3.86,5.94,0,6h0Z"/><path class="cls-1" d="m559.35,901.98c-7.59,7.82-4.89,20.18-4.94,29.97h6c-.24-3.25-.31-6.52-.06-9.78.05-.71.13-1.41.2-2.12.07-.62.03-.23,0-.1.03-.2.06-.39.09-.59.06-.39.12-.78.2-1.17.27-1.45.61-2.89,1.06-4.3.21-.65.44-1.3.7-1.94-.21.52.11-.24.18-.39.17-.36.34-.72.53-1.07.3-.57.64-1.14.99-1.68.16-.25.34-.49.51-.74.07-.1.35-.44,0,0,.13-.16.27-.33.4-.49.41-.48.85-.94,1.31-1.37.22-.2.44-.39.67-.58.1-.08.2-.16.3-.24-.53.41.15-.09.21-.14.5-.34,1.01-.65,1.55-.94.31-.17.63-.32.95-.46-.5.23.35-.13.54-.2.76-.27,1.53-.48,2.31-.65.44-.09.88-.18,1.32-.23-.48.06.59-.05.75-.06,1.93-.14,4.09-.05,5.85.21,1.6.24,3.22-.4,3.69-2.1.39-1.41-.48-3.45-2.1-3.69-7.28-1.07-14.91-.3-20.46,5.01-4.86,4.65-6.78,11.41-7.55,17.89-.47,3.95-.44,7.94-.14,11.9.12,1.62,1.29,3,3,3s2.99-1.37,3-3c.03-4.93-.48-9.85-.32-14.78.13-4.05.8-8.17,3.5-10.95s-1.55-7.02-4.24-4.24h0Z"/><path class="cls-1" d="m598,919.28c5.66.53,11.9.73,17.24-1.54,3.45-1.46,6.19-4.28,6.32-8.19.24-6.91-7.25-12.2-13.39-13.11-4.12-.61-8.32.23-11.72,2.69-4.47,3.23-7.52,8.37-8.85,13.68-2.87,11.44,2.31,23.86,11.55,30.88,4.03,3.06,9.04,4.91,14.12,4.17,5.38-.78,9.54-4.78,11.94-9.48.83-1.63,1.51-3.34,2.07-5.08.5-1.54-.58-3.28-2.1-3.69-1.63-.45-3.19.55-3.69,2.1-.24.73-.49,1.45-.77,2.16-.02.05-.23.53-.06.14-.06.14-.12.28-.19.41-.17.35-.33.71-.52,1.05-.3.57-.62,1.13-.96,1.67-.16.26-.33.51-.51.76-.07.1-.15.21-.22.31-.21.29.31-.34-.07.08s-.72.83-1.12,1.22c-.16.16-.33.31-.5.46-.11.1-.23.19-.34.29-.42.37.3-.2,0,0-.38.25-.75.52-1.15.74-.21.12-.42.22-.64.33-.59.32.49-.14-.3.13-.41.14-.81.27-1.23.37-.22.05-.45.1-.67.14-.75.15.24.02-.17.02-.46,0-.92.06-1.38.05-.23,0-.46-.02-.69-.04-.1,0-.2-.02-.3-.03-.66-.02.47.1.1.02-.98-.22-1.93-.4-2.88-.74-.11-.04-.85-.33-.43-.16.38.16-.3-.14-.43-.2-.5-.23-.98-.49-1.45-.77s-.9-.54-1.33-.84c-.22-.15-.44-.3-.65-.46-.09-.07-.18-.14-.28-.21-.35-.26.54.46-.03-.03-.84-.72-1.67-1.45-2.44-2.25-.39-.41-.77-.83-1.14-1.26-.19-.22-.36-.44-.55-.66-.28-.34.28.38.01.02-.1-.13-.2-.26-.3-.4-.72-.98-1.38-2-1.97-3.06-.29-.52-.56-1.05-.82-1.58-.13-.27-.25-.54-.38-.81-.28-.62.05.17-.19-.47-.44-1.17-.83-2.35-1.13-3.56-.14-.59-.27-1.18-.37-1.78-.04-.26-.08-.51-.12-.77.1.69-.04-.47-.05-.63-.1-1.22-.12-2.46-.03-3.68.02-.31.06-.62.08-.93.04-.52-.06.3.05-.4s.24-1.33.41-1.99.34-1.24.55-1.85c.11-.31.22-.62.34-.92.05-.13.1-.26.16-.39-.2.48.05-.11.1-.2.54-1.12,1.12-2.22,1.81-3.26.15-.22.3-.45.46-.67s.52-.66.14-.19c.34-.41.68-.82,1.04-1.2.32-.34.66-.67,1.01-.98.17-.15.35-.29.51-.44.33-.3-.51.34.14-.1.69-.47,1.39-.88,2.15-1.25.6-.29-.1.02-.01,0,.18-.05.37-.14.55-.2.39-.13.78-.24,1.18-.34.18-.04.37-.08.55-.12.14-.03.79-.11.23-.05s.09,0,.23-.01c.21-.01.42-.03.63-.04.36-.01.73,0,1.09,0,.18,0,.36.03.54.04.62.04.03,0-.03-.02.72.18,1.44.27,2.15.49.34.1.66.23.99.35.44.16.11.08-.16-.07.17.1.36.16.54.25.64.31,1.25.66,1.84,1.06.14.09.27.19.41.29.52.36-.17-.15-.1-.08.24.24.54.45.8.68.48.44.87.97,1.33,1.43.06.06-.44-.63-.12-.14.08.12.17.24.25.37.17.26.33.53.47.8.06.12.12.26.19.38.27.48-.19-.61-.09-.22.07.28.19.55.26.83.03.13.05.26.09.39.15.53-.13-.3-.04-.36-.04.03.04.77.04.87s-.03.22-.02.32c.03.35.2-.79.04-.32-.08.23-.18.54-.22.79-.05.34.38-.68.11-.26-.07.11-.12.24-.18.35s-.15.22-.22.34c-.25.48.51-.51.11-.13-.21.2-.4.43-.62.63-.11.11-.25.19-.36.3.34-.35.47-.33.04-.06-.3.19-.6.37-.92.53-.16.08-.37.14-.51.25.05-.03.57-.21-.08.03-.9.32-1.82.58-2.75.77-.52.11-1.05.19-1.57.27.55-.08.1-.02-.18.01-.34.03-.69.07-1.03.09-1.4.11-2.8.13-4.2.1-1.66-.03-3.33-.15-4.98-.3s-3,1.49-3,3c0,1.75,1.38,2.85,3,3h0Z"/><path class="cls-1" d="m693.5,905.01c-.81,9.83-1.98,19.63-1.79,29.52.1,5.18.44,10.59,2.04,15.55,1.31,4.06,3.77,8.26,8.2,9.38,6.4,1.63,12.71-3.23,17.23-7.1,1.23-1.06,1.08-3.16,0-4.24-1.22-1.22-3.01-1.06-4.24,0-.66.57-1.34,1.13-2.03,1.67.41-.32-.32.24-.47.34-.37.27-.75.54-1.14.8-1.1.74-2.24,1.4-3.43,1.98-.15.07-.29.13-.44.2.06-.03.67-.25.2-.09-.23.08-.45.17-.67.25-.52.18-1.05.31-1.59.43-.1.02-.21.03-.3.05-.49.14.38-.07.35-.04-.09.08-.53.05-.64.05-.21,0-.41.01-.62,0-.09,0-.18-.01-.27-.02-.57,0,.17-.16.28.05-.04-.08-.97-.23-1.1-.27-.73-.19.21,0,.14.08-.03.03-.5-.26-.55-.28-.16-.09-.31-.21-.47-.3-.51-.28.56.53.06.05-.28-.27-.55-.53-.82-.81-.56-.6.12.23-.03-.02-.1-.15-.21-.3-.32-.45-.25-.38-.48-.78-.69-1.18-.1-.2-.2-.41-.3-.61-.19-.4-.2-.52,0,0-.19-.51-.39-1.01-.56-1.53-.33-1.01-.59-2.04-.8-3.08-.11-.52-.21-1.05-.3-1.58-.05-.29-.09-.58-.14-.86-.02-.13-.04-.26-.06-.39-.11-.7.08.71,0,0-.27-2.53-.46-5.06-.52-7.61-.13-5.38.13-10.76.54-16.12.35-4.62.86-9.22,1.24-13.83.13-1.62-1.47-3-3-3-1.73,0-2.87,1.38-3,3h0Z"/><path class="cls-1" d="m680.05,926.51h30.84c3.86,0,3.87-6,0-6h-30.84c-3.86,0-3.87,6,0,6h0Z"/><path class="cls-1" d="m748.69,910.34c-4.46-.77-8.73.04-12.3,2.92-3.08,2.49-5.02,6.2-6.15,9.93-2.35,7.76-1.84,17.52,2.58,24.5,2.43,3.83,6.05,6.1,10.21,7.73,3.48,1.36,7.44,1.74,10.83-.04,6.33-3.31,7.22-12.22,7.2-18.51-.03-6.94-1.05-14.34-3.49-20.87-.28-.75-.59-1.49-.93-2.22-.67-1.47-2.81-1.84-4.1-1.08-1.51.89-1.75,2.63-1.08,4.1.05.11.09.24.16.35.26.46-.28-.74-.09-.22.1.27.21.53.31.8.22.6.42,1.2.61,1.81.44,1.42.8,2.85,1.12,4.3.35,1.56.63,3.14.87,4.72.03.21.06.43.09.64.11.75-.08-.69,0,.07.05.4.1.8.14,1.2.1.92.18,1.84.25,2.76.11,1.68.16,3.36.12,5.04-.02.85-.06,1.69-.14,2.53-.03.34-.07.68-.1,1.02-.02.18-.13.89,0,0-.04.26-.08.52-.12.79-.25,1.48-.66,2.87-1.14,4.29-.06.18-.25.48.11-.24-.07.15-.14.31-.21.46-.14.3-.29.59-.46.87s-.34.53-.51.8c-.05.09-.13.16-.18.25.52-.79.16-.2-.01-.02-.21.21-.42.42-.63.63-.1.1-.24.18-.34.28.56-.61.45-.3.25-.21-.25.12-.5.31-.75.46-.13.07-.27.12-.4.19.83-.46.29-.11.02-.04-.25.07-.5.12-.75.19s-.77.05.17,0c-.16,0-.33.04-.49.04-.35.01-.69.02-1.03,0-.18,0-.36-.03-.54-.04-.58-.02.67.15.04,0-.83-.2-1.64-.36-2.45-.64-.37-.13-.74-.27-1.11-.42.67.27-.12-.06-.21-.1-.32-.15-.64-.31-.96-.47-.86-.44-1.72-.9-2.51-1.43-.16-.11-.31-.22-.46-.33.68.49.15.11.01-.01-.31-.29-.62-.57-.91-.87-.25-.26-.48-.54-.71-.82.57.67-.23-.34-.36-.54-.46-.7-.87-1.43-1.23-2.19-.09-.19-.18-.39-.27-.59.33.73.02.05-.03-.09-.13-.35-.26-.69-.38-1.04-.31-.93-.57-1.88-.78-2.84-.08-.38-.15-.76-.22-1.14-.04-.23-.07-.46-.11-.69-.14-.78.05.66-.02-.13-.08-.95-.18-1.88-.2-2.84s0-1.9.05-2.85c.02-.39.06-.79.1-1.18.02-.24.05-.47.08-.7-.09.83.03-.21.06-.37.32-1.95.84-3.86,1.59-5.69-.31.74.31-.62.43-.86.2-.38.4-.75.63-1.11.25-.41.53-.81.81-1.2-.46.66-.08.1.03-.03.18-.2.35-.41.53-.6.27-.29.56-.57.85-.83.15-.13.3-.25.45-.38-.66.57.02,0,.18-.11.35-.24.72-.45,1.09-.65.15-.07.3-.14.44-.22.44-.24-.6.18.2-.07.45-.14.9-.28,1.36-.38.17-.04.34-.06.51-.09.23-.04.14-.02-.28.04.14-.02.28-.03.42-.04.51-.02,1.02-.05,1.54-.02.23.01.46.04.69.05.34.04.31.03-.09-.02.16.02.32.05.48.08,1.6.27,3.23-.42,3.69-2.1.4-1.44-.49-3.41-2.1-3.69h0Z"/><path class="cls-1" d="m863.29,908.13c-4.05-3.36-8.68-5.75-13.96-6.31-4.08-.44-8.4.5-11.86,2.73-8.2,5.27-10.21,15.58-7.58,24.49,1.47,4.97,4.02,10.06,7.54,13.9,2.5,2.73,5.93,4.77,9.72,4.73,7.46-.07,13.03-6.99,16.54-12.8,4.75-7.86,8.08-17.27,8.55-26.49h-6c0,9.06.85,18.11,1.24,27.15s.61,18.69-1.1,27.39c-.39,1.99-.88,3.96-1.53,5.88-.17.5-.34.99-.53,1.47-.07.19-.15.38-.23.57.14-.35.02-.05,0,.02-.27.6-.57,1.19-.89,1.76-.67,1.19-1.44,2.32-2.25,3.42-.1.13-.44.56-.03.05-.1.13-.2.25-.3.38-.23.28-.46.56-.69.84-.51.6-1.03,1.19-1.57,1.76-1.1,1.18-2.27,2.3-3.48,3.36-.58.5-1.17.99-1.76,1.47-.09.07-.45.35,0,0-.13.1-.27.2-.4.3-.37.27-.74.54-1.11.8-1.21.84-2.47,1.62-3.79,2.29-.34.17-.68.33-1.02.49-.13.06-.27.12-.4.18.63-.28.26-.1.11-.05-.66.24-1.3.48-1.98.66-.32.09-.64.16-.96.23-.12.02-.25.04-.38.07-.62.14.63-.03.05,0-.66.02-1.3.03-1.96,0,.76.03.19.03-.2-.07-.27-.07-.53-.18-.79-.25.88.26.02-.01-.25-.17-.12-.07-.23-.16-.35-.23-.46-.26.45.47.07.05-.19-.22-.42-.41-.63-.63-.53-.56.17.38-.21-.29-.17-.29-.34-.58-.5-.88-.02-.04-.32-.67-.12-.23.19.42-.11-.29-.14-.38-.3-.84-.51-1.71-.67-2.59-.03-.19-.06-.37-.09-.56.09.59-.03-.27-.04-.39-.07-.65-.1-1.29-.13-1.94-.06-1.62-1.33-3-3-3-1.58,0-3.06,1.37-3,3,.15,3.89.82,7.95,3.31,11.07,1.86,2.32,4.67,3.52,7.62,3.55,6.43.06,12.56-4.34,17.15-8.41,5.09-4.5,9.3-9.92,11.43-16.42,3.04-9.26,3.16-19.45,2.93-29.1-.26-10.88-1.43-21.73-1.43-32.62,0-3.88-5.8-3.84-6,0-.04.8-.11,1.6-.2,2.4-.02.17-.04.33-.06.5.09-.67,0-.08-.02.08-.08.47-.15.94-.24,1.41-.32,1.75-.74,3.48-1.23,5.2-.52,1.8-1.11,3.57-1.78,5.31-.42,1.09-.56,1.43-.92,2.24-.39.88-.8,1.75-1.23,2.61-.82,1.63-1.72,3.23-2.7,4.77-.46.72-.94,1.42-1.44,2.11-.1.14-.21.28-.31.42-.51.69.38-.45-.16.21-.27.33-.53.65-.81.97-.5.58-1.03,1.15-1.58,1.68-.25.24-.51.48-.77.72-.17.15-.35.3-.52.45-.13.11-.69.53-.09.08-.52.38-1.04.74-1.6,1.06-.29.17-.6.32-.9.48-.12.06-.24.11-.36.17.77-.36.09-.04-.1.02-.27.09-.55.18-.82.25-.23.06-1.28.18-.31.1-.63.05-1.23.04-1.86.02.94.04-.06-.03-.32-.09-.28-.07-.56-.18-.84-.26-.2-.06-.59-.3.06.04-.12-.06-.25-.11-.37-.18-.38-.21-.75-.41-1.11-.65-.13-.08-.25-.18-.37-.26-.62-.41.32.28-.04-.03-.28-.24-.56-.48-.83-.74-.32-.31-.62-.62-.91-.95-.15-.17-.86-1.04-.62-.72-1.4-1.84-2.53-3.89-3.51-5.98-1.93-4.08-2.94-7.99-2.53-12.34,0,.06.12-.91.05-.48s.1-.52.09-.47c.09-.47.19-.93.32-1.39.1-.36.21-.72.33-1.07.09-.26.19-.52.29-.77-.19.49.06-.13.13-.28.34-.72.74-1.41,1.18-2.07.15-.22.3-.43.45-.64-.07.1-.36.42.01,0,.31-.35.62-.71.95-1.04s.69-.63,1.04-.94c.42-.37.09-.07,0,0,.24-.17.48-.35.73-.51.39-.26.79-.49,1.2-.71.15-.08.3-.16.45-.23.15-.07.31-.15.46-.22-.29.12-.33.14-.13.06.89-.34,1.8-.61,2.74-.8.22-.04.43-.08.65-.11-.69.11.18,0,.26-.02.5-.04.99-.06,1.49-.06s1.01.05,1.52.08c.59.03.18.01.05,0,.33.04.66.11.99.17,1.08.22,2.13.54,3.17.92.45.17.55.22,1.17.52.55.27,1.08.56,1.6.87,1.08.64,2.12,1.37,3.01,2.11,1.25,1.03,3.02,1.22,4.24,0,1.06-1.06,1.25-3.2,0-4.24h0Z"/><path class="cls-1" d="m915.86,901.97c-5.96-1.46-12.25-1.09-17.69,1.9-4.87,2.68-8.43,7.16-10.5,12.25s-2.46,10.76-1.23,16.07c1.37,5.91,4.9,10.97,9.68,14.62,3.82,2.92,8.48,5.1,13.38,4.99,4.29-.1,8.22-1.91,11.4-4.74,6.23-5.55,9.36-14.74,9.09-22.95-.14-4.07-1.11-8.28-3.38-11.71-2.43-3.66-6.1-6.26-10.38-7.29-1.26-.3-2.57-.47-3.86-.57-1.62-.12-3,1.46-3,3,0,1.72,1.38,2.88,3,3,.26.02.52.05.78.07.72.06-.37-.09.17.02s1.02.18,1.52.31c.42.1.83.23,1.24.36.21.07.42.16.63.23.67.23-.46-.25.15.07.79.41,1.51.85,2.26,1.33.43.27-.51-.45.02.02.15.14.31.26.46.4.3.27.59.56.87.85.22.24.94,1.16.42.45.25.35.51.7.74,1.07.44.7.74,1.45,1.14,2.16.18.33-.18-.59-.1-.23.02.08.07.17.1.25.07.2.14.39.21.59.15.43.28.86.39,1.29.22.83.35,1.67.51,2.51-.18-.95.03.38.06.69.04.47.06.94.07,1.42.02.93,0,1.85-.08,2.78-.03.42-.11.84-.13,1.25s.12-.62.03-.22c-.02.09-.03.19-.04.29-.04.26-.08.51-.13.77-.17.93-.38,1.85-.63,2.76s-.53,1.74-.85,2.59c-.08.21-.17.42-.25.63-.19.5.28-.59-.04.09-.2.44-.4.88-.62,1.31-.4.79-.84,1.56-1.32,2.31-.24.37-.48.73-.73,1.08-.07.09-.51.69-.21.29s-.21.26-.28.34c-.54.65-1.12,1.27-1.73,1.84-.3.28-.62.55-.93.82-.5.43.41-.27-.02.02-.19.13-.38.27-.57.4-.67.45-1.37.84-2.1,1.19-.6.29.09-.02,0,0-.19.05-.38.15-.56.21-.41.14-.82.26-1.24.37-.39.1-.8.14-1.19.24-.17.04.7-.05.1-.02-.24.01-.47.04-.71.05-.42.02-.85.02-1.27,0-.22-.01-.43-.03-.65-.05-.77-.06.33.09-.14-.01-.92-.2-1.81-.38-2.7-.69-.23-.08-.46-.17-.69-.26-.7-.26.3.17-.19-.08s-1.03-.49-1.53-.77c-1.06-.58-2.06-1.25-3.03-1.97-.44-.33.19.17-.26-.2-.26-.21-.51-.42-.76-.64-.52-.46-1.03-.94-1.51-1.45-.44-.46-.85-.94-1.25-1.43-.32-.39.14.22-.26-.35-.2-.29-.4-.58-.59-.87-.66-1.01-1.22-2.08-1.71-3.18-.19-.42.17.44,0,.01-.04-.12-.09-.24-.14-.36-.1-.28-.2-.55-.3-.83-.2-.6-.37-1.2-.52-1.81-.13-.53-.24-1.06-.33-1.59-.04-.24-.12-.92-.05-.31-.04-.33-.07-.66-.1-.99-.09-1.19-.09-2.39,0-3.58.02-.29.06-.57.08-.86.04-.6-.08.41.02-.18s.2-1.21.34-1.8c.26-1.15.62-2.27,1.04-3.37.04-.11.09-.22.14-.34.16-.41-.21.45-.02.05.12-.25.23-.51.36-.77.25-.5.51-1,.8-1.48s.58-.96.9-1.42c.16-.23.32-.45.49-.68.2-.27-.08.11-.1.13.13-.15.25-.31.38-.46.74-.88,1.56-1.7,2.44-2.45.18-.15.37-.31.56-.45-.54.42.13-.08.26-.17.49-.34,1-.67,1.53-.96.49-.28,1.01-.52,1.52-.77s-.36.11.19-.08c.31-.11.62-.23.93-.34.56-.19,1.12-.34,1.7-.48.29-.07.58-.13.88-.18.13-.02.26-.04.38-.07.81-.16-.37.03.11-.02,1.31-.15,2.64-.18,3.96-.09.29.02.57.05.86.07.6.05.21.02.07,0,.15.02.29.04.44.07.76.13,1.5.28,2.25.46,3.75.92,5.35-4.86,1.6-5.79h0Z"/><path class="cls-1" d="m996.63,891.39c.5,16.84.3,34.22-3.94,50.63l5.89.8c-.11-1.07,0-2.11.08-3.18-.07.91.02-.09.06-.32.06-.32.12-.64.19-.95.14-.67.31-1.34.5-2.01.41-1.46.9-2.9,1.46-4.31.13-.33.27-.67.4-1-.23.55.24-.54.29-.67.36-.81.74-1.62,1.14-2.41,1.56-3.1,3.38-6.08,5.46-8.86.05-.06.34-.45.05-.08.12-.15.24-.3.35-.45.27-.33.54-.66.81-.99.57-.67,1.16-1.33,1.77-1.97.53-.55,1.08-1.09,1.64-1.6.29-.27.59-.53.89-.78.13-.11.27-.22.4-.33.11-.09.72-.55.2-.16,1.15-.85,2.35-1.57,3.63-2.22.16-.08.66-.28.02-.02.14-.06.28-.12.42-.17.28-.1.56-.2.85-.29.32-.1.64-.18.96-.26.18-.04.36-.07.54-.11.56-.14-.42.03-.05,0,.61-.05,1.22-.09,1.83-.05.14,0,.29.03.43.03.71.03-.49-.1-.04,0,.36.07.72.14,1.07.24.33.09.64.21.96.32-.61-.21.08.04.32.17.29.16.55.34.84.51.35.21-.4-.35-.1-.08.16.14.32.27.47.42.23.22.43.46.64.69.31.34-.25-.44.16.24.15.25.3.49.44.74.11.19.54,1.17.26.48.54,1.33.88,2.73,1.11,4.14,0,0,.12.83.06.36-.06-.4.02.15.03.24.04.39.09.79.12,1.18.07.82.12,1.63.15,2.45.07,1.7.08,3.41.09,5.11.02,7.11-.51,15.71,4.53,21.41,1.07,1.21,3.15,1.1,4.24,0,1.21-1.21,1.08-3.03,0-4.24-.03-.03-.48-.57-.18-.19s-.13-.18-.15-.22c-.16-.24-.32-.49-.46-.74-.18-.32-.34-.66-.5-.99.32.66-.12-.34-.2-.57-.23-.68-.42-1.39-.57-2.09-.08-.37-.15-.74-.21-1.11-.04-.21-.07-.42-.1-.63-.1-.66.04.49-.03-.24-.34-3.5-.35-7.01-.37-10.52-.02-6.45.23-14.52-4.59-19.52s-12.56-4.19-18.02-.79c-6.11,3.82-10.71,10-14.17,16.22-1.93,3.47-3.58,7.15-4.76,10.94-.91,2.91-1.69,6.15-1.38,9.22.15,1.48,1.03,2.76,2.6,2.95,1.45.17,2.91-.68,3.29-2.15,4.38-16.92,4.68-34.85,4.16-52.22-.11-3.85-6.12-3.87-6,0h0Z"/><path class="cls-1" d="m1062.06,905.7c.42-.15.85-.29,1.29-.4.21-.05.43-.08.64-.13.69-.18-.66.01.05,0,.35,0,.69-.04,1.04-.04.21,0,.41.02.61.03.86.03-.28-.11.21.02.36.1.73.15,1.08.26.22.06,1.33.51.52.15.76.34,1.47.75,2.16,1.22.13.09.68.54.07.04.17.14.33.27.49.41.33.28.64.58.95.89.26.26.51.54.75.82.15.17.29.34.43.52-.5-.61.12.18.21.3.49.69.93,1.42,1.32,2.17.22.42.41.85.62,1.27.25.49.02.03-.02-.07.12.29.24.59.34.89.3.82.55,1.66.75,2.52.11.47.2.94.28,1.41.03.14.12.94.03.15.04.32.07.63.09.95.07.87.08,1.74.03,2.61-.01.24-.03.47-.05.71,0,.03-.1.8-.03.3s-.05.27-.05.3c-.06.31-.12.62-.19.92-.11.46-.23.91-.38,1.36-.05.15-.5,1.3-.2.6-.4.91-.9,1.75-1.44,2.58-.09.14-.44.56-.04.07-.15.19-.31.38-.47.56-.33.37-.68.72-1.04,1.06-.14.13-1.06.86-.58.51-.5.37-1.02.71-1.56,1.02-.46.26-.93.49-1.4.72-.13.07-.27.12-.41.18.72-.32.04-.02-.1.03-.77.27-1.55.52-2.35.68-.19.04-.38.06-.57.1-.66.14.72-.03.06-.01-.36.01-.72.06-1.08.06-.29,0-.58,0-.87-.03-.17-.01-.34-.04-.51-.05.98.06.21.03-.03-.02-.6-.12-1.15-.35-1.73-.49s.63.34.12.06c-.14-.08-.29-.14-.43-.21-.29-.14-.57-.3-.84-.47s-.53-.37-.79-.54c.83.54-.06-.06-.26-.25-.49-.44-.89-.95-1.34-1.41-.42-.43.39.59.06.09-.06-.09-.13-.18-.19-.27-.19-.28-.38-.55-.55-.83-.36-.58-.64-1.19-.95-1.79-.29-.56.25.68.03.09-.06-.16-.13-.32-.19-.48-.1-.27-.19-.54-.28-.82-.23-.72-.41-1.46-.55-2.21-.04-.24-.16-1.26-.06-.25-.04-.35-.08-.7-.1-1.06-.05-.71-.06-1.42-.03-2.13.02-.36.05-.71.08-1.07.07-.86-.12.59.03-.26.13-.73.28-1.46.5-2.17.11-.37.24-.73.37-1.1.07-.19.34-.75-.03.06.1-.22.19-.43.3-.65.34-.7.74-1.37,1.18-2.01.1-.15.21-.29.32-.44-.23.32-.31.38-.01.04s.57-.64.87-.95c.27-.26.55-.51.83-.76.13-.12.67-.5-.01,0,.21-.15.41-.3.63-.45.73-.49,1.5-.87,2.28-1.27.64-.32-.63.21.06-.02.27-.09.54-.2.81-.29.42-.14.85-.27,1.28-.38.53-.14,1.06-.24,1.6-.34.13-.02.93-.13.17-.03.25-.03.5-.06.75-.08,1.25-.11,2.51-.12,3.77-.07,1.62.07,3-1.43,3-3,0-1.68-1.37-2.93-3-3-8.07-.36-16.5,2.8-19.97,10.59-2.77,6.24-2.39,13.99,1.41,19.75,1.91,2.89,4.55,5.15,7.85,6.28s7.28.75,10.59-.6c4.61-1.88,8.31-5.17,10.26-9.8,1.78-4.25,1.87-9.04.8-13.48-1.89-7.81-8.54-16.6-17.51-15.65-1.15.12-2.27.33-3.36.73-1.52.55-2.55,2.04-2.1,3.69.4,1.47,2.16,2.65,3.69,2.1h0Z"/><path class="cls-1" d="m1094.9,904.29c-3.55,11.17-2.37,22.95-2.39,34.47h6c-.34-3.11-.46-6.25-.23-9.37.05-.63.11-1.25.18-1.87,0-.08.09-.67.04-.3-.05.34.02-.12.03-.15.06-.36.11-.72.18-1.08.22-1.22.51-2.44.87-3.63.15-.5.31-.99.49-1.48.09-.26.19-.51.29-.76.26-.69-.16.31.14-.33.43-.93.89-1.85,1.44-2.73.25-.39.51-.77.77-1.15.05-.08.12-.15.17-.23.23-.32-.38.45-.12.16.16-.19.31-.38.48-.57.54-.62,1.15-1.16,1.76-1.71.52-.46-.43.27-.02.01.16-.1.31-.22.47-.32.33-.22.67-.42,1.02-.6.15-.08.34-.14.48-.23.06-.04-.67.24-.09.05.35-.12.69-.24,1.05-.32.16-.04.33-.07.49-.1.6-.13-.2-.03-.23.02.07-.12.92-.05,1.05-.05.16,0,.33.02.49.02.61.02-.23-.06-.17-.03.32.12.7.14,1.03.24.16.05.32.11.47.16.58.17-.54-.29-.11-.05.32.18.66.33.98.53.15.09.3.2.45.3.38.25.13.15-.11-.09.28.29.62.53.91.82s.54.59.81.9c.43.49-.25-.4.03.04.13.21.29.41.42.62.54.83.98,1.7,1.39,2.6.14.31-.08-.2-.09-.21.07.17.14.35.2.52.11.29.21.58.31.87.21.62.39,1.24.55,1.87.17.68.33,1.36.46,2.05.07.36.13.73.19,1.09.02.14.04.28.06.42-.07-.44,0,0,.03.21.43,3.67.39,7.36.11,11.04h6c-.03-1.52,0-3.04.1-4.56.05-.67.12-1.34.19-2.02,0-.02.06-.51.02-.2-.05.34.04-.26.05-.33.05-.33.11-.66.17-.99.22-1.19.5-2.37.85-3.52.16-.51.33-1.02.52-1.52.03-.09.35-.88.2-.52-.14.34.16-.36.22-.48.42-.9.9-1.77,1.46-2.59.11-.16.23-.33.34-.49.06-.08.12-.16.17-.24.23-.32-.38.45-.12.15.29-.32.55-.66.86-.97.26-.27.54-.53.83-.78.13-.11.27-.21.39-.32-.43.39-.3.21.06-.02.29-.19.58-.37.88-.54.14-.07.28-.14.41-.21.54-.28.05-.01-.02,0,.3-.06.61-.22.91-.3.14-.04.28-.07.42-.1.71-.17.03-.15-.09-.01.11-.12.75-.06.91-.06.22,0,1.23.02.65.01-.56,0,.32.07.56.13.31.08.63.25.94.31-.35-.07-.61-.3-.13-.04.13.07.26.13.39.2.29.16.57.42.87.56.05.02-.52-.45-.07-.05.12.1.24.2.35.31.28.25.53.53.78.8.09.1.5.61.19.21s.05.08.12.18c.23.34.45.69.66,1.05s.38.71.55,1.08c.06.12.1.23.16.35,0,0-.22-.58-.12-.26.08.22.17.44.25.66.33.95.58,1.93.77,2.92.05.27.09.53.13.8.06.35-.02-.19-.03-.21.02.2.05.4.07.6.06.63.1,1.27.12,1.9.04,1.4,0,2.8-.14,4.19-.1,1.1-.09.98-.24,1.96-.13.82-.29,1.63-.46,2.44-.39,1.83-.89,3.64-1.46,5.43-.49,1.54.58,3.27,2.1,3.69,1.62.44,3.2-.55,3.69-2.1,1.91-6.01,3.08-12.45,2.24-18.75-.56-4.14-2.08-8.5-5.3-11.34-2.86-2.52-6.59-3.61-10.33-2.69s-7,3.99-8.99,7.37c-3.32,5.62-4.16,12.48-4.04,18.9.03,1.62,1.36,3,3,3,1.73,0,2.88-1.38,3-3,.48-6.3.35-13.06-1.88-19.05-1.47-3.94-3.93-7.96-7.92-9.76-3.63-1.63-7.66-1.32-11.07.75-3.93,2.39-6.47,6.39-8.14,10.57-2.54,6.38-2.84,13.59-2.1,20.35.18,1.61,1.25,3,3,3,1.63,0,3-1.37,3-3,.02-10.98-1.2-22.23,2.18-32.87.49-1.54-.58-3.27-2.1-3.69-1.62-.44-3.2.55-3.69,2.1h0Z"/><path class="cls-1" d="m1163.19,921.68c5.33,1.59,11.65,2.46,16.73-.39,3.85-2.16,5.86-6.21,6.15-10.5.55-8.31-5.47-17.34-14.12-18.13-5.3-.48-10.21,2.62-13.8,6.23-5.26,5.28-9.39,12.32-10.48,19.76-1.87,12.75,4.81,25.66,15.85,32.17,4.27,2.51,9.61,4.2,14.55,2.85,5.28-1.44,8.34-6.25,9.13-11.44.26-1.72.38-3.44.34-5.18-.08-3.86-6.08-3.87-6,0,.02.77.01,1.54-.03,2.3-.02.32-.04.63-.07.95-.02.19-.04.38-.06.57-.04.39.11-.6,0-.02-.23,1.19-.52,2.32-.93,3.46.32-.88,0-.02-.1.17-.11.23-.24.45-.37.67-.11.19-.24.37-.35.56-.07.11-.17.21-.23.33-.16.29.48-.5.13-.17-.33.3-.64.66-.96.98-.51.51.41-.23.03,0-.21.12-.4.28-.61.4s-.43.23-.64.35c-.61.33.41-.12.05,0-.42.13-.83.29-1.27.39-.15.03-.6.19-.74.14-.02,0,.85-.07.35-.05-.1,0-.2.02-.3.03-.5.03-.99.05-1.49.03-.24,0-.48-.03-.72-.05-.28-.02-.94-.2-.02,0-.52-.12-1.06-.19-1.58-.32-.48-.12-.96-.26-1.44-.42-.26-.09-.51-.18-.77-.28-.11-.04-.23-.09-.34-.13-.27-.1.65.31.03.01-1.05-.49-2.07-1.01-3.06-1.62-.48-.3-.96-.61-1.42-.94-.25-.18-.49-.36-.74-.54-.33-.24.43.35.12.09-.16-.13-.32-.26-.49-.39-.98-.81-1.92-1.68-2.8-2.61-.42-.45-.84-.91-1.23-1.38-.21-.25-.42-.51-.63-.76-.27-.32.32.42.06.08-.13-.18-.27-.35-.4-.53-.79-1.09-1.51-2.22-2.16-3.4-.31-.56-.6-1.14-.87-1.72-.07-.15-.45-1.03-.31-.69.18.45-.1-.25-.11-.28-.07-.18-.14-.36-.2-.54-.48-1.31-.87-2.65-1.15-4.02-.07-.35-.13-.69-.19-1.04-.03-.15-.05-.31-.07-.47.11.68.03.24.01.09-.07-.76-.15-1.51-.17-2.27-.02-.69-.02-1.39.02-2.08.02-.37.04-.74.08-1.11.02-.21.04-.42.06-.62.06-.59-.05.29,0-.08.26-1.6.62-3.18,1.13-4.72.12-.35.24-.69.37-1.03.04-.1.44-1.1.22-.58.38-.89.81-1.76,1.27-2.61.87-1.61,1.88-3.15,2.98-4.62.11-.15.23-.31.35-.46-.08.1-.31.4.05-.06.25-.32.51-.63.77-.94.52-.61,1.06-1.21,1.62-1.78.46-.47.94-.93,1.43-1.36.25-.22.5-.43.75-.64.11-.09.22-.18.33-.26-.36.28-.25.19.05-.03.93-.65,1.89-1.18,2.9-1.7.41-.22-.63.21.07-.02.23-.08.46-.17.69-.24.47-.15.95-.26,1.44-.36.1-.02.2-.03.3-.05.49-.11-.37.06-.36.05.09-.08.54-.05.65-.05.45-.02.89,0,1.34.02.79.05-.1-.06-.11-.03.02-.03.57.11.6.11.42.09.82.22,1.23.35.68.22.03-.12-.09-.06.06-.03.49.23.54.25.38.19.75.4,1.1.63.15.1.29.2.44.3.62.42-.46-.43-.02-.02.31.29.65.56.95.87.27.28.53.57.79.86.19.22.52.8,0-.02.12.19.28.37.41.56.47.69.89,1.42,1.26,2.17.08.17.15.34.23.51.18.37-.28-.77-.01,0,.15.42.3.83.43,1.25.11.38.21.76.29,1.14.04.2.08.4.12.61.02.09.03.18.05.27.12.61-.04-.26-.03-.26.22.07.1,2.15.09,2.42,0,.18-.03.35-.04.53-.06.85.08-.33,0-.02-.09.38-.14.76-.24,1.14s-.25.73-.36,1.09c-.13.44.37-.74.05-.13-.1.19-.18.38-.29.56-.18.33-.41.64-.61.96-.23.38.54-.6.07-.11-.15.15-.28.32-.43.47-.14.14-.28.27-.43.4-.06.06-.14.11-.2.17-.38.37.24-.21.24-.18-.02.18-.88.58-1.03.66-.19.1-.39.18-.57.29-.53.3.71-.24-.03.01-.44.15-.88.3-1.33.41-.24.06-.48.11-.72.15s-1.13.1-.13.03c-.55.04-1.09.1-1.64.11-.6.01-1.2,0-1.8-.05-.28-.02-.57-.05-.85-.08-.15-.01-.29-.03-.44-.05.8.09.08.01-.1-.02-1.5-.27-2.97-.61-4.44-1.04-3.71-1.1-5.29,4.68-1.6,5.79h0Z"/></svg>