<?xml version="1.0" encoding="UTF-8"?><svg id="Layer_1" xmlns="http://www.w3.org/2000/svg" viewBox="0 0 264.38 254.84"><defs><style>.cls-1{fill:#ef5e69;}.cls-1,.cls-2,.cls-3,.cls-4,.cls-5,.cls-6,.cls-7{stroke-width:0px;}.cls-8,.cls-9,.cls-10,.cls-11,.cls-12,.cls-13{stroke:#000;}.cls-8,.cls-9,.cls-11,.cls-13{stroke-miterlimit:10;}.cls-8,.cls-10,.cls-11,.cls-12{fill:none;}.cls-9{fill:#754c24;}.cls-10{stroke-width:.5px;}.cls-10,.cls-12{stroke-linecap:round;stroke-linejoin:round;}.cls-3{fill:#ff0;}.cls-4{fill:red;}.cls-11{stroke-width:3px;}.cls-12{stroke-width:.25px;}.cls-5{fill:#f15a24;}.cls-6{fill:#2e3192;}.cls-13{fill:#534741;}.cls-7{fill:#c69c6d;}</style></defs><path class="cls-13" d="m99.22,185.91c-2.79-1.31-5.39-1.11-5.48-4.35s2.72-7.01,2.96-9.83-1.12-9.93.47-10.5,3.46-.26,3.86.36-5.1,15.86-1.81,24.33Z"/><path class="cls-9" d="m114.82,173.75c-3.44.67-7.24-1.52-9.41,3.94-2.16,5.45-4.9,8.56-6.2,8.22s-2.86.05-.86-12.94c1.37-11.64,1.58-11.04,3.13-11.24s10.16,3.38,11.74,2.9c1.58-.48,6.44,5.89,1.59,9.13Z"/><path class="cls-13" d="m173.18,229.61c-1,2.91-.52,5.48-3.74,5.92s-7.26-1.96-10.09-1.89c-2.84.07-9.75,2.17-10.49.66s-.63-3.41-.06-3.87,16.31,3.37,24.39-.81Z"/><path class="cls-9" d="m159.43,215.4c1.03,3.35-.73,7.36,4.92,8.93,5.65,1.57,9.03,3.96,8.83,5.28s.35,2.84-12.78,2.24c-11.72-.11-11.15-.39-11.51-1.91s2.27-10.47,1.63-11.98,5.17-7.04,8.91-2.56Z"/><path class="cls-2" d="m176.56,86.02c6.96,8.02-1.82,15.54-4.3,13.14-.19.91-.24,3.13-.21,5.84.03,2.11.1,4.52.18,6.85.09,2.39.2,4.68.29,6.47.89,6.42,2.41,18.21.65,22.11-1.42,1.27-14.93,4.1-30.02-.15,0-.07-.02-.14-.02-.21-.08-1.93,2.17-13.45,3.7-24.81,2.95-3.15,5.24-6.51,6.45-9.92.87-2.44,1.4-4.85,1.66-7.07.89-.75,1.58-2.08,1.98-4.14,1.79-9.23-3-8.97-7.96-8.25,1.75-3.83,5.13-6.5,8.72-9.54.71.49,1.55,1.01,2.46,1.5,1.6.89,3.41,1.7,5.03,2.14,2.49.69,4.56.51,4.89-1.64,1.94,2.09,3.99,4.79,6.5,7.68Z"/><path class="cls-7" d="m174.39,106.75c.1.09.22.18.33.26.26.2.53.38.8.57.27.17.52.34.78.52.12.08.22.18.34.26.14.09.33.14.48.23.24.13.51.3.78.4.15.06.25.12.39.22s.29.14.45.22c.27.14.51.37.79.49.12.05.23.09.35.15.14.08.28.11.43.18.06.03.11.08.18.12.08.04.16.03.24.06.12.04.22.14.34.18.28.09.57.15.85.24.62.22,1.06.6,1.52,1.06.24.25.46.51.69.76.19.22.39.64.43.93.04.22.03.56-.02.78-.02.11-.06.25-.1.36-.07.16-.08.29-.13.46-.08.26-.23.58-.43.74-.13.11-.24.23-.4.28-.17.06-.35.07-.53.07-.29,0-.57.02-.86,0-.15,0-.26-.06-.4-.1-.17-.06-.3-.08-.46-.11-.1-.02-.15-.1-.23-.13-.07-.02-.14,0-.2-.01-.14-.02-.29-.1-.42-.14-.15-.05-.3-.1-.45-.14-.17-.05-.31-.14-.47-.22-.26-.12-.53-.33-.8-.41-.19-.05-.27-.07-.45-.19-.17-.12-.35-.21-.55-.3-.14-.07-.26-.17-.4-.24-.18-.08-.31-.18-.48-.28-.3-.17-.61-.32-.92-.47-.19-.1-.4-.16-.59-.26-.18-.1-.37-.18-.56-.26-.22-.08-.43-.16-.63-.28-.2-.13-.42-.17-.62-.28-.39-.22-.8-.39-1.19-.6,0-.01-.03-.02-.04-.02-.08-2.33-.15-4.74-.18-6.85.17.17.33.37.53.48.25.12.46.3.7.45.12.08.24.2.37.28.13.09.23.22.36.31.14.08.25.13.38.23Z"/><path class="cls-3" d="m163.33,147.44c3.88-.03,7.29-.45,9.15-1.56l.1.15c-.68.58-.63,1.73-.64,2.54,0,.27-.05.59.03.86.09.28.27.55.36.85.2.58.43,1.16.64,1.73.39,1.05.81,2.01,1.18,3.06.17.49.06,1.15.06,1.66s.15.95.14,1.44c0,.48.08,1.03-.01,1.5-.1.53-.18,1.06-.3,1.59-.05.26-.2.5-.27.76-.07.25-.13.51-.2.76-.14.54-.12,1.15-.2,1.7-.18,1.09-.29,2.33-.04,3.41.11.47.03,1.05.03,1.53v3.03c0,.32-.03.66,0,.97.02.25.13.45.15.7.04.64-.18,1.06-.47,1.59-.27.5-.5,1.02-.76,1.53-.23.47-.34.94-.56,1.41-.27.55-.47,1.15-.59,1.74-.09.43-.13,1.18-.03,1.6.16.64.47,1.08.85,1.59.36.5.52,1.03.73,1.6.22.56.48,1.1.41,1.73-.14,1.17-.57,2.35-1.12,3.37-.25.47-.23.96-.41,1.42-.22.55-.46,1.08-.62,1.65-.09.32-.21.66-.36.96-.19.34-.16.55-.23.93-.08.52-.16,1.03-.1,1.57.07.62.36,1.12.28,1.77-.08.63-.51,1.07-.85,1.58-.2.28-.34.53-.6.75-.29.24-.47.54-.75.77-.26.22-.35.2-.5.56-.11.25-.13.38-.14.65,0,.48-.08,1.05-.01,1.53.05.27.15.49.16.78,0,.35.1.58.14.92.06.43.02.98,0,1.42-.01.26-.09.36-.19.59-.14.35-.1.57-.38.86-.35.35-.83.64-.85,1.16-.02.32-.02.55.14.83.12.22.25.36.29.63.02.16.05.56-.01.71-.11.33-.47.54-.61.89-.21.54-.45,1.14-.75,1.65-.22.37-.3.86-.34,1.3-.06.49-.07,1.17,0,1.66.06.52.27.97.28,1.52.01.27.16.52.16.77,0,.31-.27.61-.47.82-.44.48-.97.91-1.53,1.25-.51.3-1.22.74-1.85.71-.47-.03-.89-.37-1.37-.44-.56-.08-1.04-.23-1.6-.03-.51.18-1.03.44-1.53.71-.21.11-.39.27-.62.33-.22.04-.59,0-.81-.03-.62-.09-1.19-.2-1.78.1-.53.27-1.05.48-1.56.77-1.14.66-2.01,1.76-3.16,2.42-.91.51-2.37-.07-3.16-.59-.17-.11-.43-.22-.57-.38-.18-.21-.13-.43-.13-.71.01-.49.1-1.12.01-1.6-.04-.21-.11-.38-.15-.59-.04-.29-.1-.61-.17-.89-.09-.34-.24-.57-.26-.93-.01-.3,0-.57.11-.85.45-1.14.68-2.32,1.09-3.47.13-.36.37-.48.59-.78.17-.24.25-.52.41-.77.2-.34.39-.64.57-1,.19-.39.54-.86.63-1.3.11-.53.01-1.19-.12-1.7-.08-.34-.11-.63-.25-.96-.16-.43-.14-.64-.18-1.07-.06-.57-.42-1.09-.44-1.66-.02-.41-.02-.75-.1-1.15-.09-.41-.19-.81-.18-1.23,0-.7-.16-1.33-.14-2.03.01-.81.47-1.37.68-2.12.19-.66.27-1.35.42-2.01.09-.41.14-.69.32-1.08.16-.32.17-.68.31-1.01.21-.5.54-1.01.54-1.56.01-.67-.26-1.44-.45-2.09-.17-.62-.04-1.25-.19-1.85-.16-.67-.07-1.42-.07-2.11,0-.51.04-1.08.15-1.57.06-.26.14-.36.13-.64v-.63c.05-.09.1-.18.17-.24.37-.32.82-.25,1.1-.69.48-.78,1.16-1.39,1.71-2.13.28-.38.64-.75.86-1.17.2-.4.26-.65.58-.98.22-.22.44-.51.69-.7.2-.16.37-.19.6-.3.18-.08.24-.14.39-.25.25-.19.46-.27.74-.42.4-.22.68-.53,1.1-.72.38-.16.82-.29,1.14-.56.26-.22.6-.53.78-.81.25-.39.3-.92.45-1.35.12-.35.21-.72.35-1.06.2-.48.26-.8.25-1.32,0-.41.15-.74.15-1.16,0-.45,0-.9,0-1.35,0-.91-.04-1.78.28-2.62.17-.46.47-.78.68-1.21.1-.2.21-.4.32-.6.12-.24.14-.48.27-.72.21-.39.29-.61.29-1.09v-1.02c0-.74-.18-1.74.1-2.41.14-.33.25-.65.36-.99.15-.47.45-.73.68-1.14.18-.33.13-.61.13-.99,0-.51-.42-.16-.42-.71.76-.76.71-7.9.74-10.21v-.03Z"/><path class="cls-1" d="m170.22,62.56c-.36-.11-.21-.82-.62-1.02-.43-.22-.87.42-1.3.23-.36-.16-.18-.66-.64-1.7-.28-.63-.51-.82-.4-1.07.13-.31.6-.42,1.06-.53.48-.11.53-.02.78-.13.61-.26.55-.89.95-1.05.73-.3,2.44,1.22,2.21,2.25-.09.42-.4.37-.71,1.06-.3.66-.12.98-.49,1.46-.17.22-.55.59-.84.5Z"/><path class="cls-7" d="m165.7,77.93c-.08-.7.05-1.77.27-2.98,1.39.72,2.72,1.9,4.09,3.39-.33,2.15-2.4,2.33-4.89,1.64l.53-2.05Z"/><path class="cls-2" d="m167.95,27.85c.2.36.46,1.07.18,1.37-.4.44-1.71-.19-2.2-.42-.33-.16-.68-.35-1.02-.56-.17-.31-.38-.61-.65-.87-.37-.36-.82-.63-1.3-.81-.06-.11-.08-.21-.05-.3,1.05-.05,2.06-.04,2.99.02.84.31,1.64.82,2.05,1.57Z"/><path class="cls-7" d="m167.03,69.76c-.31,1.61-.77,3.53-1.06,5.19-.22,1.21-.35,2.28-.27,2.98l-.53,2.05c-1.62-.44-3.43-1.25-5.03-2.14l.3-.54c.2-.76.5-1.72.6-2.85.1-1.06.02-2.26-.48-3.57,1.94.15,4.1-.15,6.47-1.12Z"/><path class="cls-3" d="m162.59,157.68c0-.64-4.92,4.42-4.11-10.35,1.65.09,3.29.14,4.85.11v.03c-.03,2.31.02,9.45-.74,10.21Z"/><path class="cls-2" d="m162.02,28.67c-.33.01-.63.03-1.11-.12-.91-.26-1.9-.93-2.11-1.43,1.19.16,2.57.71,3.22,1.55Z"/><path class="cls-2" d="m164.91,28.24c.41.73.53,1.47.33,1.62-.25.18-.81-.68-2.2-1.06-.45-.12-.74-.13-1.02-.13-.65-.84-2.03-1.39-3.22-1.55-.04-.09-.05-.17-.03-.25.01-.04.03-.07.05-.11,1.11-.22,2.22-.37,3.3-.45.29.06.57.14.84.25.23.47,1.07,1.14,1.95,1.68Z"/><path class="cls-7" d="m161.04,74.45c-.1,1.13-.4,2.09-.6,2.85l-.3.54c-.91-.49-1.75-1.01-2.46-1.5.39-.32.78-.65,1.17-.99.77-.42,1.5-.71,2.19-.9Z"/><path class="cls-4" d="m172.04,141.66c-9.82,3.28-17.03,4.3-21.8,3.78-4.55-.5-6.87-2.42-7.09-5.16,15.09,4.25,28.6,1.42,30.02.15-.28.64-.65,1.07-1.13,1.23Z"/><path class="cls-2" d="m154.73,27.94c.88-.35,1.79-.63,2.7-.86.32-.03.65-.04.98-.01.13.01.25.02.39.05.21.5,1.2,1.17,2.11,1.43.48.15.78.13,1.11.12.21.26.35.56.39.88.09.71-.31,1.56-.95,1.86-.67.32-1.4-.05-2.2-.42-.32-.14-.62-.27-.9-.39-.72-.91-2.33-1.45-4.07-1.47-.14-.09-.21-.19-.21-.33-.01-.28.24-.58.65-.86Z"/><path class="cls-6" d="m163.55,20.18c-4.29-1.07-8.83,1.8-12.62,5.51.37-1.5.78-2.81,1.22-3.94h0c2.35-6,5.64-7.19,8.1-6.42,2.27.7,3.83,3.05,3.3,4.85Z"/><path class="cls-7" d="m154.94,98.27c-.26,2.22-.79,4.63-1.66,7.07-1.21,3.41-3.5,6.77-6.45,9.92-12.71,13.61-37.61,23.51-39.99,18.56-4.27-8.88,30.99-1.89,41.2-36.66.01-.03.01-.05.02-.08.03.02.05.03.08.05-.01-.1-.01-.21-.02-.31,3.43-15.18,8.07-9.01,6.82,1.45Z"/><path class="cls-2" d="m154.29,29.13c-.99-.01-2.02.15-2.94.53,1.05-.69,2.19-1.26,3.38-1.72-.41.28-.66.58-.65.86,0,.14.07.24.21.33Z"/><path class="cls-4" d="m158.48,147.33c-2.91-.16-5.83-.45-8.37-.77l.13-1.12c4.77.52,11.98-.5,21.8-3.78.48-.16.85-.59,1.13-1.23.02-.01.04-.03.05-.04,1.18-1.28,2.98-1.56.57,4.11-.23.54-.68,1-1.31,1.38-1.86,1.11-5.27,1.53-9.15,1.56-1.56.03-3.2-.02-4.85-.11Z"/><path class="cls-2" d="m151.35,29.66c.92-.38,1.95-.54,2.94-.53.46.3,1.7.48,4.07,1.47.12.15.21.31.28.48.33.88-.03,2.12-.75,2.5-.62.33-1.33-.06-2.21-.42-.59-.24-1.16-.43-1.69-.57-.97-.64-2.41-.87-3.77-.63-.61-.09-.96-.2-1.02-.51,0-.03,0-.06,0-.09.66-.64,1.39-1.21,2.16-1.7Z"/><path class="cls-7" d="m154.94,98.27c1.25-10.46-3.39-16.63-6.82-1.45-.04-.53-.09-1.03-.15-1.49-.63-3.94-.17-6.94.99-9.45,4.96-.72,9.75-.98,7.96,8.25-.4,2.06-1.09,3.39-1.98,4.14Z"/><path class="cls-7" d="m165.93,28.8c.49.23,1.8.86,2.2.42.28-.3.02-1.01-.18-1.37-.41-.75-1.21-1.26-2.05-1.57,1.94.13,3.57.47,4.59.94.32.14.58.3.78.47,2.91,2.49,2.19,6.52,2.19,6.52-.74,5.38-3.59,8.24-.28,15.64s5.46,14.37-5.11,19.45c-.35.17-.7.32-1.04.46-2.37.97-4.53,1.27-6.47,1.12-6.28-.43-10.29-5.35-11.39-6.85-1.08-1.46-4.48-9.73-4.62-18.4,0-.23-.01-.46-.01-.69,0-1.02.05-2.04.17-3.06.71.25,2.04-.12,2.93-.62.74-.41,2-1.36,1.79-1.97-.14-.42-.98-.72-1.95-.7.63-.26,1.36-.44,2.21-.33,1.01.13,1.29.55,2.2.42,1.16-.17,2.41-1.12,2.31-1.77-.14-.81-2.47-1.59-4.77-1.6.68-.2,1.44-.29,2.26-.11,1.65.36,2.33,1.58,3.01,1.21.66-.36.79-1.97.15-2.99-.21-.33-.5-.62-.86-.83.53.14,1.1.33,1.69.57.88.36,1.59.75,2.21.42.72-.38,1.08-1.62.75-2.5-.07-.17-.16-.33-.28-.48.28.12.58.25.9.39.8.37,1.53.74,2.2.42.64-.3,1.04-1.15.95-1.86-.04-.32-.18-.62-.39-.88.28,0,.57.01,1.02.13,1.39.38,1.95,1.24,2.2,1.06.2-.15.08-.89-.33-1.62.34.21.69.4,1.02.56Zm3.67,32.74c.41.2.26.91.62,1.02.29.09.67-.28.84-.5.37-.48.19-.8.49-1.46.31-.69.62-.64.71-1.06.23-1.03-1.48-2.55-2.21-2.25-.4.16-.34.79-.95,1.05-.25.11-.3.02-.78.13-.46.11-.93.22-1.06.53-.11.25.12.44.4,1.07.46,1.04.28,1.54.64,1.7.43.19.87-.45,1.3-.23Z"/><path class="cls-2" d="m147.67,33.09c.45-.63.97-1.21,1.52-1.73,0,.03,0,.06,0,.09.06.31.41.42,1.02.51-.94.15-1.84.53-2.54,1.13h-.01Z"/><path class="cls-2" d="m149.43,35.31c-1.57.46-2.72,1.47-3.15,1.03-.07-.07-.11-.17-.13-.29.87-.53,2.07-.74,3.28-.74Z"/><path class="cls-2" d="m146.13,35.88h0c.4-1.02.91-1.93,1.51-2.75,0-.01.02-.02.03-.04h.01c.7-.6,1.6-.98,2.54-1.13.84.13,2.16.19,3.77.63.36.21.65.5.86.83.64,1.02.51,2.63-.15,2.99-.68.37-1.36-.85-3.01-1.21-.82-.18-1.58-.09-2.26.11-1.21,0-2.41.21-3.28.74,0-.05-.02-.11-.02-.17Z"/><path class="cls-2" d="m146.28,36.34c.43.44,1.58-.57,3.15-1.03,2.3,0,4.63.79,4.77,1.6.1.65-1.15,1.6-2.31,1.77-.91.13-1.19-.29-2.2-.42-.85-.11-1.58.07-2.21.33h-.02c-.81.02-1.7.26-2.33.85,0,0-.03,0-.04-.02.23-1.13.55-2.24.96-3.31.04-.02.07-.04.1-.06.02.12.06.22.13.29Z"/><path class="cls-2" d="m146.05,36.11c-.41,1.07-.73,2.18-.96,3.31-.01-.01-.02-.01-.03-.02-.49-.38-.38-1.71.24-2.58.2-.28.46-.52.75-.71Z"/><path class="cls-2" d="m147.64,41.26c-.89.5-2.22.87-2.93.62.08-.81.2-1.61.37-2.4l.02-.02s.02-.02.03-.02c.48.25,1.24-.4,2.33-.85h.02c.97-.02,1.81.28,1.95.7.21.61-1.05,1.56-1.79,1.97Z"/><path class="cls-2" d="m144.34,41.63c-.35-.5.12-1.56.74-2.15-.17.79-.29,1.59-.37,2.4-.16-.04-.28-.13-.37-.25Z"/><path class="cls-6" d="m143.12,35.84c1.38-2.43,4.26-6.66,7.81-10.15,3.79-3.71,8.33-6.58,12.62-5.51,4.6,1.16,6.38,4.26,6.94,7.04-1.02-.47-2.65-.81-4.59-.94-1.34-.49-2.79-.46-2.98-.05-.01.01-.01.02-.01.03-.26.02-.52.03-.79.05-1.47-.3-2.98,0-3.3.45-.46.09-.93.2-1.39.32-1.06.09-2.07.44-2.7.86-1.19.46-2.33,1.03-3.38,1.72-.35.13-.69.29-1,.49-.37.24-1.15.73-1.16,1.21-.55.52-1.07,1.1-1.52,1.73-.01.02-.02.03-.03.04-.92.8-1.51,2.02-1.51,2.74h0c-.03.09-.06.16-.08.24-.29.19-.55.43-.75.71-.62.87-.73,2.2-.24,2.58.01.01.02.01.03.02-.01.01-.01.03-.01.06-.62.59-1.09,1.65-.74,2.15.09.12.21.21.37.25-.12,1.02-.17,2.04-.17,3.06-1.63-1.7-3.26-4.58-1.95-7.97.13-.37.31-.75.53-1.13Z"/><path class="cls-6" d="m150.93,25.69c-3.55,3.49-6.43,7.72-7.81,10.15-.22.38-.4.76-.53,1.13-.05-.05-.09-.12-.13-.19-.33-.47-.58-.93-.78-1.39-.03-.06-.05-.12-.07-.18-2.63-6.8,8.06-13.43,10.54-13.46-.44,1.13-.85,2.44-1.22,3.94Z"/><path class="cls-4" d="m141.61,139.82c.52.16,1.03.31,1.54.46.22,2.74,2.54,4.66,7.09,5.16l-.13,1.12c-3.79-.47-6.73-1-7.5-1.21-.62-.17-1.13-.63-1.51-1.21-1.2-1.8-1.18-4.84.51-4.32Z"/><path class="cls-2" d="m152.15,21.75c-2.48.03-13.17,6.66-10.54,13.46-1.7-.44-4.85-.76-3.89-5.02-1.24-.38-2.91-1.55-.3-5.84.85-1.87-3.47-.66-3.65-2.77-1.04-.01-2.32-1.05-1.25-5.4,1.5-6.07,8.28-4.53,9.81-8.07,1.52-3.54,9.5-10.04,10.79-7.12,1.3,2.91,2.8,4.08,5.37,4.81,2.04.58,2.53,6.41,1.76,9.53-2.46-.77-5.75.42-8.1,6.41h0Z"/><path class="cls-5" d="m142.61,145.35c.77.21,3.71.74,7.5,1.21,2.54.32,5.46.61,8.37.77-.81,14.77,4.11,9.71,4.11,10.35,0,.55.42.2.42.71,0,.38.05.66-.13.99-.23.41-.53.67-.68,1.14-.11.34-.22.66-.36.99-.28.67-.1,1.67-.1,2.41v1.02c0,.48-.08.7-.29,1.09-.13.24-.15.48-.27.72-.11.2-.22.4-.32.6-.21.43-.51.75-.68,1.21-.32.84-.28,1.71-.28,2.62,0,.45,0,.9,0,1.35,0,.42-.15.75-.15,1.16.01.52-.05.84-.25,1.32-.14.34-.23.71-.35,1.06-.15.43-.2.96-.45,1.35-.18.28-.52.59-.78.81-.32.27-.76.4-1.14.56-.42.19-.7.5-1.1.72-.28.15-.49.23-.74.42-.15.11-.21.17-.39.25-.23.11-.4.14-.6.3-.25.19-.47.48-.69.7-.32.33-.38.58-.58.98-.22.42-.58.79-.86,1.17-.55.74-1.23,1.35-1.71,2.13-.28.44-.73.37-1.1.69-.07.06-.12.15-.17.24-.08.13-.16.28-.27.33-.15.06-.27,0-.4.01-.72.12-1.5.49-2.19.74-.4.15-1,.31-1.43.23-.2-.03-.33-.11-.57-.12-.31,0-.53,0-.84-.1-.46-.16-.81-.12-1.28-.17-.42-.05-.77-.15-1.2-.15-.29,0-.59-.02-.88-.01-.39.02-.71.16-1.11.15-.43-.01-.73.09-1.14.25-.14.06-.33.11-.46.2-.18.13-.18.25-.3.4-.54.68-1.27.57-2.05.57s-1.5-.03-2.21-.28c-.43-.15-.82-.33-1.29-.4-.36-.05-.62.01-.95-.17-.7-.37-1.31-.98-2.11-1.14-.27-.05-.43-.01-.7-.14-.18-.09-.2-.11-.39-.14-.35-.07-.65-.15-1.01-.14-.36,0-.79-.07-1.14,0-.36.06-.63.16-1.02.15-.36,0-.67-.13-1.03-.15-.21,0-.44.05-.64,0-.2-.03-.36-.13-.57-.15-.7-.08-1.46-.22-2.13-.52-.39-.18-.66-.53-1.02-.76-.18-.12-.38-.15-.57-.27-.14-.08-.14-.19-.31-.26-.13-.02-.26-.03-.4-.05-.13-.08-.26-.16-.38-.26-.21-.13-.42-.26-.61-.42-.28-.24-.59-.45-.85-.71-.16-.16-.26-.38-.42-.54-.2-.21-.36-.2-.58-.35-.11-.07-.17-.15-.27-.25-.2-.18-.31-.19-.54-.32-.68-.37-1.34-.78-2.05-1.09-.26-.12-.54-.32-.81-.4-.36-.11-.64-.03-1-.21-.67-.34-1.28-.78-1.84-1.26-.25-.21-.34-.55-.56-.79-.29-.32-.43-.54-.57-.95-.22-.6-.16-1.28-.14-1.92.01-.47.11-1.2.45-1.56.01-.02.02-.03.04-.03h0c.05-.08.11-.11.18-.15.04-.07.04-.16.02-.24.06-.14.12-.23.2-.36.11-.18.23-.36.34-.53,0-.01,0-.02.02-.03l.03-.03c.04-.06.08-.13.12-.19.37-.57.42-1.04.43-1.7,0-.29-.07-.52-.11-.77,0-.05.01-.09.01-.14v-.2c0-.14.03-.28.03-.42v-.81c0-.16-.05-.31-.05-.47,0-.04-.01-.08-.01-.12v-.03s-.01-.05-.01-.08c0-.03,0-.07,0-.1,0-.04-.03-.06-.03-.1,0-.07.01-.14,0-.21-.01-.06-.02-.11-.02-.18s-.03-.13-.04-.19c-.02-.05-.01-.11-.01-.16,0-.07-.02-.12-.02-.19h0c-1.08-1.1-1.61-2.61-.79-3.43,5-3,10-1,15,1,1,0,1,2,2,2,2,1,5,1,6,2,2,4,7,5,7,3,2-6,2-13,2-20,0-2,2-4,.94-5.77h-.07v-.02c.02-.11.15-.11.22-.17.01-.01.01-.03.03-.05.01-.03.03-.03.05-.05.05-.03.05-.08.09-.11.03-.03.09-.04.13-.07.04-.04.07-.06.14-.05.03.01.11.03.13.05l.04-.03c.38.58.89,1.04,1.51,1.21Z"/><path class="cls-5" d="m107.87,171.93l.03-.03-.03.03Z"/><path class="cls-10" d="m147.67,33.09c.45-.63.97-1.21,1.52-1.73.66-.64,1.39-1.21,2.16-1.7,1.05-.69,2.19-1.26,3.38-1.72.88-.35,1.79-.63,2.7-.86.46-.12.93-.23,1.39-.32,1.11-.22,2.22-.37,3.3-.45.27-.02.53-.03.79-.05,1.05-.05,2.06-.04,2.99.02,1.94.13,3.57.47,4.59.94.32.14.58.3.78.47,2.91,2.49,2.19,6.52,2.19,6.52-.74,5.38-3.59,8.24-.28,15.64s5.46,14.37-5.11,19.45c-.35.17-.7.32-1.04.46-2.37.97-4.53,1.27-6.47,1.12-6.28-.43-10.29-5.35-11.39-6.85-1.08-1.46-4.48-9.73-4.62-18.4,0-.23-.01-.46-.01-.69,0-1.02.05-2.04.17-3.06.08-.81.2-1.61.37-2.4,0-.03,0-.05.01-.06.23-1.13.55-2.24.96-3.31.02-.08.05-.15.08-.23"/><path class="cls-10" d="m146.13,35.87c.4-1.01.91-1.92,1.51-2.74"/><path class="cls-10" d="m144.55,44.95h-.01c-1.63-1.71-3.26-4.59-1.95-7.98.13-.37.31-.75.53-1.13,1.38-2.43,4.26-6.66,7.81-10.15,3.79-3.71,8.33-6.58,12.62-5.51,4.6,1.16,6.38,4.26,6.94,7.04"/><path class="cls-10" d="m163.55,20.18c.53-1.8-1.03-4.15-3.3-4.85-2.46-.77-5.75.42-8.1,6.41h0c-.44,1.14-.85,2.45-1.22,3.95-.01.07-.03.15-.05.22"/><path class="cls-10" d="m152.15,21.75c-2.48.03-13.17,6.66-10.54,13.46.02.06.04.12.07.18.2.46.45.92.78,1.39.04.07.08.14.13.19"/><path class="cls-10" d="m141.76,35.25s-.1-.03-.15-.04c-1.7-.44-4.85-.76-3.89-5.02.15-.67.4-1.44.78-2.32"/><path class="cls-10" d="m137.72,30.19c-1.24-.38-2.91-1.55-.3-5.84.85-1.87-3.47-.66-3.65-2.77"/><path class="cls-10" d="m133.77,21.58c-1.04-.01-2.32-1.05-1.25-5.4,1.5-6.07,8.28-4.53,9.81-8.07,1.52-3.54,9.5-10.04,10.79-7.12,1.3,2.91,2.8,4.08,5.37,4.81,2.04.58,2.53,6.41,1.76,9.53"/><path class="cls-10" d="m160.44,77.3c.2-.76.5-1.72.6-2.85.1-1.06.02-2.26-.48-3.57"/><path class="cls-10" d="m167.03,69.76c-.31,1.61-.77,3.53-1.06,5.19-.22,1.21-.35,2.28-.27,2.98.02.15.05.29.09.4"/><path class="cls-10" d="m165.9,26.28c.84.31,1.64.82,2.05,1.57.2.36.46,1.07.18,1.37-.4.44-1.71-.19-2.2-.42-.33-.16-.68-.35-1.02-.56-.88-.54-1.72-1.21-1.95-1.68-.06-.11-.08-.21-.05-.3,0-.01,0-.02.01-.03.19-.41,1.64-.44,2.98.05Z"/><path class="cls-10" d="m164.91,28.24c.41.73.53,1.47.33,1.62-.25.18-.81-.68-2.2-1.06-.45-.12-.74-.13-1.02-.13-.33.01-.63.03-1.11-.12-.91-.26-1.9-.93-2.11-1.43-.04-.09-.05-.17-.03-.25.01-.04.03-.07.05-.11.32-.45,1.83-.75,3.3-.45.29.06.57.14.84.25.48.18.93.45,1.3.81.27.26.48.56.65.87Z"/><path class="cls-10" d="m162.02,28.67c.21.26.35.56.39.88.09.71-.31,1.56-.95,1.86-.67.32-1.4-.05-2.2-.42-.32-.14-.62-.27-.9-.39-2.37-.99-3.61-1.17-4.07-1.47-.14-.09-.21-.19-.21-.33-.01-.28.24-.58.65-.86.63-.42,1.64-.77,2.7-.86.32-.03.65-.04.98-.01.13.01.25.02.39.05,1.19.16,2.57.71,3.22,1.55Z"/><path class="cls-10" d="m158.36,30.6c.12.15.21.31.28.48.33.88-.03,2.12-.75,2.5-.62.33-1.33-.06-2.21-.42-.59-.24-1.16-.43-1.69-.57-1.61-.44-2.93-.5-3.77-.63-.61-.09-.96-.2-1.02-.51,0-.03,0-.06,0-.09,0-.48.79-.97,1.16-1.21.31-.2.65-.36,1-.49.92-.38,1.95-.54,2.94-.53,1.74.02,3.35.56,4.07,1.47Z"/><path class="cls-10" d="m153.99,32.59c.36.21.65.5.86.83.64,1.02.51,2.63-.15,2.99-.68.37-1.36-.85-3.01-1.21-.82-.18-1.58-.09-2.26.11-1.57.46-2.72,1.47-3.15,1.03-.07-.07-.11-.17-.13-.29,0-.05-.02-.11-.02-.17h0c0-.73.59-1.95,1.51-2.75,0-.01.02-.02.03-.04h.01c.7-.6,1.6-.98,2.54-1.13,1.36-.24,2.8-.01,3.77.63Z"/><path class="cls-10" d="m147.46,38.59c-1.09.45-1.85,1.1-2.33.85,0,0-.03,0-.04-.02s-.02-.01-.03-.02c-.49-.38-.38-1.71.24-2.58.2-.28.46-.52.75-.71.04-.02.07-.04.1-.06.87-.53,2.07-.74,3.28-.74,2.3,0,4.63.79,4.77,1.6.1.65-1.15,1.6-2.31,1.77-.91.13-1.19-.29-2.2-.42-.85-.11-1.58.07-2.21.33"/><path class="cls-10" d="m147.48,38.59c.97-.02,1.81.28,1.95.7.21.61-1.05,1.56-1.79,1.97-.89.5-2.22.87-2.93.62-.16-.04-.28-.13-.37-.25-.35-.5.12-1.56.74-2.15l.02-.02s.02-.02.03-.02c.63-.59,1.52-.83,2.33-.85h.02Z"/><path class="cls-10" d="m171.34,40.92c-1.31,1.86-2.99,2.53-3.81,2.03"/><path class="cls-10" d="m162.39,44.21c-.33.29-2.87,2.46-5.28,1.61-.28-.09-.59-.25-.91-.48"/><path class="cls-10" d="m168.88,49.32c1.08,1.05.97,2.52.36,3-.57.46-1.87.28-2.7-.79"/><path class="cls-10" d="m171.06,62.06c-.17.22-.55.59-.84.5-.36-.11-.21-.82-.62-1.02-.43-.22-.87.42-1.3.23-.36-.16-.18-.66-.64-1.7-.28-.63-.51-.82-.4-1.07.13-.31.6-.42,1.06-.53.48-.11.53-.02.78-.13.61-.26.55-.89.95-1.05.73-.3,2.44,1.22,2.21,2.25-.09.42-.4.37-.71,1.06-.3.66-.12.98-.49,1.46Z"/><path class="cls-10" d="m161.04,74.45c-.69.19-1.42.48-2.19.9-.39.34-.78.67-1.17.99-3.59,3.04-6.97,5.71-8.72,9.54-1.16,2.51-1.62,5.51-.99,9.45.06.46.11.96.15,1.49,0,.1,0,.21.02.31"/><path class="cls-10" d="m173.17,140.43c1.76-3.9.24-15.69-.65-22.11-.09-1.79-.2-4.08-.29-6.47-.08-2.33-.15-4.74-.18-6.85-.03-2.71.02-4.93.21-5.84,2.48,2.4,11.26-5.12,4.3-13.14-2.51-2.89-4.56-5.59-6.5-7.68-1.37-1.49-2.7-2.67-4.09-3.39"/><path class="cls-10" d="m146.83,115.26c-1.53,11.36-3.78,22.88-3.7,24.81,0,.07.01.14.02.21.22,2.74,2.54,4.66,7.09,5.16"/><path class="cls-10" d="m154.94,98.27c-.26,2.22-.79,4.63-1.66,7.07-1.21,3.41-3.5,6.77-6.45,9.92-12.71,13.61-37.61,23.51-39.99,18.56-4.27-8.88,30.99-1.89,41.2-36.66.01-.03.01-.05.02-.08.02-.09.04-.18.06-.26,3.43-15.18,8.07-9.01,6.82,1.45Z"/><path class="cls-10" d="m157.68,76.34c.71.49,1.55,1.01,2.46,1.5,1.6.89,3.41,1.7,5.03,2.14,2.49.69,4.56.51,4.89-1.64v-.02"/><path class="cls-10" d="m148.14,97.13s-.05-.03-.08-.05"/><path class="cls-10" d="m148.96,85.88c4.96-.72,9.75-.98,7.96,8.25-.4,2.06-1.09,3.39-1.98,4.14h-.01"/><path class="cls-10" d="m143.15,140.28c-.51-.15-1.02-.3-1.54-.46-1.69-.52-1.71,2.52-.51,4.32.38.58.89,1.04,1.51,1.21.77.21,3.71.74,7.5,1.21,2.54.32,5.46.61,8.37.77,1.65.09,3.29.14,4.85.11,3.88-.03,7.29-.45,9.15-1.56.63-.38,1.08-.84,1.31-1.38,2.41-5.67.61-5.39-.57-4.11,0,0-.03.03-.05.04-1.42,1.27-14.93,4.1-30.02-.15Z"/><path class="cls-12" d="m108.19,165.84c.23.24.49.45.76.64"/><path class="cls-12" d="m140.34,144.64c1.06,1.77-.94,3.77-.94,5.77,0,7,0,14-2,20,0,2-5,1-7-3-1-1-4-1-6-2-1,0-1-2-2-2-5-2-10-4-15-1-.82.82-.29,2.33.79,3.42"/><path class="cls-12" d="m107.85,171.96c-.09.09-.17.16-.25.18"/><path class="cls-12" d="m108.16,171.57c-.08.07-.16.21-.26.33l-.03.03"/><path class="cls-12" d="m163.33,147.44v.03c-.03,2.31.02,9.45-.74,10.21"/><path class="cls-12" d="m107.1,173.24s-.03,0-.04.03c-.34.36-.44,1.09-.45,1.56-.02.64-.08,1.32.14,1.92.14.41.28.63.57.95.22.24.31.58.56.79.56.48,1.17.92,1.84,1.26.36.18.64.1,1,.21.27.08.55.28.81.4.71.31,1.37.72,2.05,1.09.23.13.34.14.54.32.1.1.16.18.27.25.22.15.38.14.58.35.16.16.26.38.42.54.26.26.57.47.85.71.19.16.4.29.61.42.12.1.25.18.38.26.14.02.27.03.4.05.17.07.17.18.31.26.19.12.39.15.57.27.36.23.63.58,1.02.76.67.3,1.43.44,2.13.52.21.02.37.12.57.15.2.04.43,0,.64,0,.36.02.67.14,1.03.15.39.01.66-.09,1.02-.15.35-.06.78,0,1.14,0,.36,0,.66.07,1.01.14.19.03.21.05.39.14.27.13.43.09.7.14.8.16,1.41.77,2.11,1.14.33.18.59.12.95.17.47.07.86.25,1.29.4.71.25,1.46.28,2.21.28s1.51.11,2.05-.57c.12-.15.12-.27.3-.4.13-.09.32-.14.46-.2.41-.16.71-.26,1.14-.25.4,0,.72-.13,1.11-.15.29,0,.59.01.88.01.43,0,.78.1,1.2.15.47.05.82.01,1.28.17.31.11.53.09.84.1.24,0,.37.09.57.12.43.08,1.03-.08,1.43-.23.69-.25,1.47-.62,2.19-.74.13-.02.25.05.4-.01.11-.05.19-.2.27-.33.05-.09.1-.18.17-.24.37-.32.82-.25,1.1-.69.48-.78,1.16-1.39,1.71-2.13.28-.38.64-.75.86-1.17.2-.4.26-.65.58-.98.22-.22.44-.51.69-.7.2-.16.37-.19.6-.3.18-.08.24-.14.39-.25.25-.19.46-.27.74-.42.4-.22.68-.53,1.1-.72.38-.16.82-.29,1.14-.56.26-.22.6-.53.78-.81.25-.39.3-.92.45-1.35.12-.35.21-.72.35-1.06.2-.48.26-.8.25-1.32,0-.41.15-.74.15-1.16,0-.45,0-.9,0-1.35,0-.91-.04-1.78.28-2.62.17-.46.47-.78.68-1.21.1-.2.21-.4.32-.6.12-.24.14-.48.27-.72.21-.39.29-.61.29-1.09v-1.02c0-.74-.18-1.74.1-2.41.14-.33.25-.65.36-.99.15-.47.45-.73.68-1.14.18-.33.13-.61.13-.99,0-.51-.42-.16-.42-.71,0-.64-4.92,4.42-4.11-10.35"/><path class="cls-12" d="m108.32,167.08s-.01.06-.01.09v.86c0,.32-.05.67,0,.98,0,.08.02.15.04.23.04.25.11.48.11.77-.01.66-.06,1.13-.43,1.7-.04.06-.08.13-.12.19l-.03.03s-.02.02-.02.03c-.11.17-.23.35-.34.53-.08.13-.14.22-.2.36.02.08.02.17-.02.24-.07.04-.13.07-.18.14"/><path class="cls-12" d="m108.45,166.32c-.03.27-.12.47-.13.73"/><path class="cls-12" d="m172.94,146.06c.03-.08.02-.17-.02-.24-.13.06-.24.12-.34.21-.68.58-.63,1.73-.64,2.54,0,.27-.05.59.03.86.09.28.27.55.36.85.2.58.43,1.16.64,1.73.39,1.05.81,2.01,1.18,3.06.17.49.06,1.15.06,1.66s.15.95.14,1.44c0,.48.08,1.03-.01,1.5-.1.53-.18,1.06-.3,1.59-.05.26-.2.5-.27.76-.07.25-.13.51-.2.76-.14.54-.12,1.15-.2,1.7-.18,1.09-.29,2.33-.04,3.41.11.47.03,1.05.03,1.53v3.03c0,.32-.03.66,0,.97.02.25.13.45.15.7.04.64-.18,1.06-.47,1.59-.27.5-.5,1.02-.76,1.53-.23.47-.34.94-.56,1.41-.27.55-.47,1.15-.59,1.74-.09.43-.13,1.18-.03,1.6.16.64.47,1.08.85,1.59.36.5.52,1.03.73,1.6.22.56.48,1.1.41,1.73-.14,1.17-.57,2.35-1.12,3.37-.25.47-.23.96-.41,1.42-.22.55-.46,1.08-.62,1.65-.09.32-.21.66-.36.96-.19.34-.16.55-.23.93-.08.52-.16,1.03-.1,1.57.07.62.36,1.12.28,1.77-.08.63-.51,1.07-.85,1.58-.2.28-.34.53-.6.75-.29.24-.47.54-.75.77-.26.22-.35.2-.5.56-.11.25-.13.38-.14.65,0,.48-.08,1.05-.01,1.53.05.27.15.49.16.78,0,.35.1.58.14.92.06.43.02.98,0,1.42-.01.26-.09.36-.19.59-.14.35-.1.57-.38.86-.35.35-.83.64-.85,1.16-.02.32-.02.55.14.83.12.22.25.36.29.63.02.16.05.56-.01.71-.11.33-.47.54-.61.89-.21.54-.45,1.14-.75,1.65-.22.37-.3.86-.34,1.3-.06.49-.07,1.17,0,1.66.06.52.27.97.28,1.52.01.27.16.52.16.77,0,.31-.27.61-.47.82-.44.48-.97.91-1.53,1.25-.51.3-1.22.74-1.85.71-.47-.03-.89-.37-1.37-.44-.56-.08-1.04-.23-1.6-.03-.51.18-1.03.44-1.53.71-.21.11-.39.27-.62.33-.22.04-.59,0-.81-.03-.62-.09-1.19-.2-1.78.1-.53.27-1.05.48-1.56.77-1.14.66-2.01,1.76-3.16,2.42-.91.51-2.37-.07-3.16-.59-.17-.11-.43-.22-.57-.38-.18-.21-.13-.43-.13-.71.01-.49.1-1.12.01-1.6-.04-.21-.11-.38-.15-.59-.04-.29-.1-.61-.17-.89-.09-.34-.24-.57-.26-.93-.01-.3,0-.57.11-.85.45-1.14.68-2.32,1.09-3.47.13-.36.37-.48.59-.78.17-.24.25-.52.41-.77.2-.34.39-.64.57-1,.19-.39.54-.86.63-1.3.11-.53.01-1.19-.12-1.7-.08-.34-.11-.63-.25-.96-.16-.43-.14-.64-.18-1.07-.06-.57-.42-1.09-.44-1.66-.02-.41-.02-.75-.1-1.15-.09-.41-.19-.81-.18-1.23,0-.7-.16-1.33-.14-2.03.01-.81.47-1.37.68-2.12.19-.66.27-1.35.42-2.01.09-.41.14-.69.32-1.08.16-.32.17-.68.31-1.01.21-.5.54-1.01.54-1.56.01-.67-.26-1.44-.45-2.09-.17-.62-.04-1.25-.19-1.85-.16-.67-.07-1.42-.07-2.11,0-.51.04-1.08.15-1.57.06-.26.14-.36.13-.64v-.71"/><path class="cls-12" d="m141.09,144.24s-.02-.05-.03-.07c-.02-.02-.1-.04-.13-.05-.07-.01-.1.01-.14.05-.04.03-.1.04-.13.07-.04.03-.04.08-.09.11-.02.02-.04.02-.05.05-.02.02-.02.04-.03.05-.07.06-.2.06-.22.17h0c-.04.17-.03.35,0,.51.02.09.06.17.07.26v.13s.03.08.02.11"/><path class="cls-12" d="m108.19,165.67v.16h0c0,.08.02.13.02.2,0,.05-.01.11.01.16,0,.06.04.12.04.19s0,.12.02.18c.01.07,0,.14,0,.21,0,.04.02.06.03.1,0,.03,0,.07,0,.1,0,.03,0,.06.01.08v.03s.01.08.01.12c0,.16.05.31.05.47v.81c0,.14-.03.28-.03.42v.2s-.01.09-.01.14c-.01.02-.01.04-.01.06v.22c0,.08-.02.15-.03.23,0,.07-.04.13-.04.19,0,.07-.02.13-.02.19-.02.14-.09.27-.1.4-.01.07-.04.13-.05.2-.02.07-.05.14-.09.21-.03.06-.07.13-.1.19-.03.07-.07.12-.09.19-.03.13-.09.27-.14.39-.02.03-.03.07-.04.1-.01.04-.04.06-.05.1-.01.03-.01.05-.03.09-.03.04-.07.09-.09.14-.03.07-.05.14-.08.21-.02.07-.06.14-.08.21-.03.08-.07.15-.08.23,0,.04-.01.06-.02.1-.02.04-.02.08-.03.12-.01.02-.03.03-.04.05s0,.03,0,.05c-.01.04-.02.09-.02.12h0c-.02.06-.04.08-.05.12-.01.05-.03.08-.04.12-.06.14-.1.32-.1.46"/><path class="cls-12" d="m147.31,227.14c.06.05.11.09.16.13"/><path class="cls-12" d="m161.27,222.8v.12"/><path class="cls-12" d="m172.05,105c.17.17.33.37.53.48.25.12.46.3.7.45.12.08.24.2.37.28.13.09.23.22.36.31.14.08.25.13.38.23.1.09.22.18.33.26.26.2.53.38.8.57.27.17.52.34.78.52.12.08.22.18.34.26.14.09.33.14.48.23.24.13.51.3.78.4.15.06.25.12.39.22s.29.14.45.22c.27.14.51.37.79.49.12.05.23.09.35.15.14.08.28.11.43.18.06.03.11.08.18.12.08.04.16.03.24.06.12.04.22.14.34.18.28.09.57.15.85.24.62.22,1.06.6,1.52,1.06.24.25.46.51.69.76.19.22.39.64.43.93.04.22.03.56-.02.78-.02.11-.06.25-.1.36-.07.16-.08.29-.13.46-.08.26-.23.58-.43.74-.13.11-.24.23-.4.28-.17.06-.35.07-.53.07-.29,0-.57.02-.86,0-.15,0-.26-.06-.4-.1-.17-.06-.3-.08-.46-.11-.1-.02-.15-.1-.23-.13-.07-.02-.14,0-.2-.01-.14-.02-.29-.1-.42-.14-.15-.05-.3-.1-.45-.14-.17-.05-.31-.14-.47-.22-.26-.12-.53-.33-.8-.41-.19-.05-.27-.07-.45-.19-.17-.12-.35-.21-.55-.3-.14-.07-.26-.17-.4-.24-.18-.08-.31-.18-.48-.28-.3-.17-.61-.32-.92-.47-.19-.1-.4-.16-.59-.26-.18-.1-.37-.18-.56-.26-.22-.08-.43-.16-.63-.28-.2-.13-.42-.17-.62-.28-.39-.22-.8-.39-1.19-.6,0-.01-.03-.02-.04-.02"/><path class="cls-2" d="m206.19,236.91h15.15c-.77,2.56-1.6,4.49-2.47,5.88-.91-.54-1.98-.85-3.12-.85-1.86,0-3.52.82-4.66,2.12-1.82-1.66-3.52-4.33-4.9-7.15Z"/><path class="cls-6" d="m218.87,242.79c1.84,1.07,3.08,3.07,3.08,5.35,0,3.43-2.77,6.2-6.2,6.2s-6.2-2.77-6.2-6.2c0-1.56.58-2.99,1.54-4.08,1.14-1.3,2.8-2.12,4.66-2.12,1.14,0,2.21.31,3.12.85Z"/><path class="cls-2" d="m48.58,236.91h15.16c-.92,3.05-1.93,5.19-2.98,6.61-1.09-.98-2.55-1.58-4.13-1.58-1.48,0-2.84.52-3.9,1.39h0c-1.54-1.67-2.96-3.99-4.15-6.42Z"/><path class="cls-6" d="m60.76,243.52c1.27,1.13,2.07,2.78,2.07,4.62,0,3.43-2.77,6.2-6.2,6.2s-6.2-2.77-6.2-6.2c0-1.94.9-3.68,2.3-4.81,1.06-.87,2.42-1.39,3.9-1.39,1.58,0,3.04.6,4.13,1.58Z"/><path class="cls-11" d="m.26,231.62l26.89,4.71c2.23.38,4.48.58,6.74.58h196.96c2.99,0,5.97-.31,8.89-.93l24.33-5.12"/><path class="cls-11" d="m60.76,243.52c1.05-1.42,2.06-3.56,2.98-6.61"/><path class="cls-11" d="m48.58,236.91c1.19,2.43,2.61,4.75,4.15,6.41"/><path class="cls-11" d="m218.87,242.79c.87-1.39,1.7-3.32,2.47-5.88"/><path class="cls-11" d="m206.19,236.91c1.38,2.82,3.08,5.49,4.9,7.15"/><path class="cls-8" d="m60.76,243.52c1.27,1.13,2.07,2.78,2.07,4.62,0,3.43-2.77,6.2-6.2,6.2s-6.2-2.77-6.2-6.2c0-1.94.9-3.68,2.3-4.81,1.06-.87,2.42-1.39,3.9-1.39,1.58,0,3.04.6,4.13,1.58Z"/><path class="cls-8" d="m218.87,242.79c1.84,1.07,3.08,3.07,3.08,5.35,0,3.43-2.77,6.2-6.2,6.2s-6.2-2.77-6.2-6.2c0-1.56.58-2.99,1.54-4.08,1.14-1.3,2.8-2.12,4.66-2.12,1.14,0,2.21.31,3.12.85Z"/></svg>