<?xml version="1.0" encoding="UTF-8"?><svg id="Layer_1" xmlns="http://www.w3.org/2000/svg" viewBox="0 0 355.26 248.32"><defs><style>.cls-1,.cls-2{stroke-width:0px;}.cls-2{fill:#fff;}</style></defs><path class="cls-2" d="m59.62,160.4c-11.46-19.82-7.64-48.8-7.66-71.63-.02-25.29,17.82-52.29,39.41-65.35C113.77,9.88,143.09,3.92,168.86,2.71c29.84-1.4,60.66-2.63,89.85,2.77,29.29,5.42,66.83,21.01,82.04,48.04,12.68,22.54,14.84,57.24,11.73,83.23-3.46,29.01-22.24,64.89-44.4,83.99s-49.76,20.73-76.18,24.4c-58.63,8.14-110.95-13.84-155.19-52.29-4.71-4.09-10.68-9.99-13.26-15.31-.88,9.59-25.75,6.7-32.48,4.7-12.08-3.59-19.96-10.06-29.46-18.09,20.4.31,40.54,6.93,59.01-3.76"/><path class="cls-1" d="m60.92,159.64c-6.89-12.08-7.96-26.52-8.05-40.14-.04-7.08.24-14.15.44-21.23.18-6.57-.1-13.17,1.08-19.66,2.48-13.54,9.16-26.24,17.99-36.71s20.55-18.61,33.51-24.23c13.68-5.93,28.37-9.51,43.11-11.61,15.67-2.23,31.66-2.54,47.46-2.91,30.29-.69,61,.84,89.67,11.45,23.41,8.66,46.73,23.06,56.87,46.88,5.39,12.66,7.81,26.57,8.79,40.23.96,13.39.79,27.26-1.63,40.5-2.47,13.52-7.43,26.59-13.76,38.75s-14.03,23.55-23.58,33.28-21.87,16.9-35.34,21.05c-13.44,4.13-27.44,5.9-41.33,7.78s-28.64,2.88-43.11,1.63c-14-1.21-27.82-4.23-41.12-8.76-27.07-9.24-51.67-24.76-73.25-43.37-5.24-4.52-10.77-9.5-13.92-15.77-.74-1.47-2.64-.57-2.8.76-.32,2.81-3.75,3.9-6.05,4.44-3.84.9-7.91.89-11.83.69-8.88-.47-17.07-2.61-24.82-7.11-6.03-3.49-11.37-7.99-16.67-12.46l-1.06,2.56c20.09.36,41.14,6.63,59.77-3.97,1.68-.95.17-3.55-1.51-2.59-18.01,10.24-38.83,3.91-58.26,3.56-1.23-.02-2.07,1.71-1.06,2.56,9.43,7.96,19.46,16.09,31.79,18.9,3.87.88,7.87,1.34,11.83,1.55,4.34.23,8.87.19,13.1-.91,3.75-.97,7.31-3.06,7.78-7.22l-2.8.76c3.25,6.49,8.96,11.7,14.39,16.38s11.51,9.53,17.54,13.94c11.84,8.63,24.43,16.25,37.72,22.42,26.21,12.17,54.93,18.43,83.85,17.1,7.42-.34,14.75-1.31,22.11-2.3,7.19-.97,14.39-1.92,21.53-3.2,14.08-2.52,28.21-6.38,40.48-13.97,11.7-7.23,21.06-17.81,28.85-29.02,8.21-11.81,14.83-24.82,19.54-38.41,4.45-12.83,6.49-26,6.96-39.55.5-14.41-.49-29.01-3.64-43.1-2.86-12.81-7.68-25.27-16.14-35.45-8.25-9.94-19.11-17.56-30.49-23.51C278.87,6.04,249.85,1.09,220.78.19c-17.49-.54-35.01.18-52.47,1.05-15.09.75-30.18,2.97-44.73,7.05s-28.18,9.62-39.81,18.55c-11.12,8.54-20.23,19.91-26.21,32.59-2.95,6.24-5.17,12.85-6.28,19.68s-.8,13.5-1,20.26c-.41,14.4-1.19,29.01,1.5,43.25,1.22,6.48,3.28,12.81,6.55,18.55.96,1.68,3.55.17,2.59-1.51h0Z"/><path class="cls-1" d="m128.22,42.31c-.97,10.74-2.23,21.53-5.01,31.98l2.95.4c.02-.97.03-1.95.02-2.92-.02-1.93-3.02-1.93-3,0,0,.97,0,1.95-.02,2.92-.04,1.69,2.51,2.03,2.95.4,2.86-10.7,4.13-21.77,5.12-32.77.17-1.92-2.83-1.91-3,0h0Z"/><path class="cls-1" d="m138.32,41.47c.15,4.66,0,9.34-.3,13.99-.26,4.19-.59,8.4-1.33,12.53-.34,1.89,2.55,2.7,2.89.8.77-4.27,1.13-8.62,1.41-12.94.31-4.78.48-9.59.32-14.38-.06-1.93-3.06-1.93-3,0h0Z"/><path class="cls-1" d="m138.14,55.12c-2.8-.23-5.61.04-8.41,0-.78,0-1.54.7-1.5,1.5s.66,1.49,1.5,1.5c2.8.04,5.61-.23,8.41,0,.78.06,1.53-.74,1.5-1.5-.04-.87-.66-1.43-1.5-1.5h0Z"/><path class="cls-1" d="m149.29,57.68c.7-.76,1.28-1.3,2.23-1.72-.23.1.22-.08.31-.1.17-.05.35-.09.53-.13.42-.09-.19.01.06-.01.09,0,.17-.02.26-.02.22,0,.43,0,.65.02.23.02-.24-.04-.01,0,.11.02.21.04.32.07.17.04.34.1.5.15.08.03.17.06.25.09-.26-.1-.04-.02,0,0,.2.1.41.21.6.32.18.11.36.23.53.35.25.18.02,0,.26.21.36.31.7.64,1.02,1,2.26,2.51,3.71,6.41,3.55,9.84-.04.77-.11,1.33-.46,2.23.1-.27-.08.16-.12.24-.09.17-.19.34-.3.5-.17.27.08-.03-.2.25-.13.14-.27.28-.41.41-.5.45-1.22.82-1.88,1-.1.03-.57.12-.48.11s-.38.03-.48.03c-.18,0-.36,0-.55-.01-.42-.01,0,.04-.42-.05-1.6-.34-2.91-1.12-4.11-2.25-1.41-1.32-2.4-2.74-3.23-4.54-.32-.69-.68-1.83-.86-2.77-.09-.46-.11-.66-.13-1.28,0-.25,0-.5.01-.75,0-.1.01-.2.02-.3.04-.47-.06.28.02-.18.33-1.97,1.26-3.21,3.04-4.16s.19-3.5-1.51-2.59c-9.25,4.96-2.94,18.79,5,21.45,4.19,1.4,8.82-1.01,9.79-5.38s-.66-9.37-3.29-12.85c-1.41-1.87-3.32-3.6-5.69-4.05-2.71-.5-5.15.78-6.95,2.74-1.3,1.42.81,3.55,2.12,2.12h0Z"/><path class="cls-1" d="m169.45,55.77c0,11.02-.06,22.55-3.97,33h2.89c-.18-.89-.1-1.81-.13-2.71-.07-1.93-3.07-1.93-3,0,.04,1.19,0,2.34.24,3.51.32,1.58,2.42,1.26,2.89,0,4-10.69,4.07-22.54,4.07-33.8,0-1.93-3-1.93-3,0h0Z"/><path class="cls-1" d="m173.39,58.75c1.01-.47,2.21-.64,3.1-.5,1.1.16,2.05.61,2.78,1.25,1.63,1.42,2.47,3.62,1.96,5.78-.04.19-.1.38-.17.56,0,0-.15.37-.06.15s-.07.14-.08.15c-.1.18-.19.36-.3.54-.06.09-.11.18-.17.26-.04.05-.31.42-.11.16-.27.34-.57.66-.89.96-.16.15-.33.3-.5.44.01-.01-.33.26-.17.13.11-.09-.25.17-.29.2-.38.26-.77.49-1.17.71-.2.11-.41.2-.61.3-.27.12-.07.03-.02,0-.17.07-.33.13-.5.19-.41.14-.84.26-1.27.35-.08.02-.17.03-.25.05-.41.09.31,0-.1.01-.25.01-.49.04-.74.04-.22,0-.44-.02-.66-.04-.23-.02.35.09,0,0-.11-.03-.23-.05-.34-.08-.13-.03-.73-.29-.39-.12-.2-.1-.4-.21-.59-.33-.31-.2.2.22-.06-.04-.08-.08-.17-.16-.25-.24-.07-.07-.13-.15-.2-.22-.07-.08-.05-.06.05.07-.05-.07-.1-.13-.14-.2-.13-.22-.27-.45-.37-.69.03.06.09.25,0-.03-.06-.19-.12-.37-.17-.56-.5-1.86-3.39-1.07-2.89.8.68,2.54,2.58,4.31,5.2,4.63,2.27.28,4.64-.51,6.55-1.69s3.77-3.04,4.47-5.32c.91-2.96-.05-6.36-2.16-8.57-2.64-2.77-6.61-3.26-10.01-1.68-.73.34-.92,1.4-.54,2.05.44.75,1.32.88,2.05.54h0Z"/><path class="cls-1" d="m194.51,65.69c2.77-.03,5.55.01,8.32-.08,1.04-.04,1.62-.93,1.45-1.9-.51-2.92-1.93-5.93-4.59-7.46-2.16-1.25-4.92-1.23-6.99.21-2.67,1.86-3.8,5.07-4.08,8.21s.72,6.47,3.42,8.35c2.97,2.07,6.87,1.48,9.95.04.73-.34.92-1.4.54-2.05-.44-.75-1.32-.88-2.05-.54-.48.22-1.14.47-1.8.64-.3.08-.6.13-.9.19-.28.05.09,0-.19.03-.17.01-.34.03-.5.04-.3.01-.61.01-.91,0-.14,0-.27-.02-.41-.04.29.03-.1-.02-.19-.04-.26-.05-.51-.12-.76-.2-.12-.04-.24-.08-.36-.13-.16-.06.05.02.07.03-.1-.04-.19-.09-.28-.14-.22-.11-.43-.25-.65-.38-.05-.03-.1-.07-.15-.11.02.01.19.15.06.04-.11-.09-.22-.19-.33-.29-.18-.17-.35-.36-.51-.56.19.23-.07-.1-.11-.16-.08-.13-.16-.26-.24-.39-.07-.12-.12-.24-.19-.36-.13-.25.03.12-.07-.15-.11-.29-.2-.59-.28-.89-.04-.17-.08-.34-.11-.51-.01-.06-.06-.43-.04-.22-.04-.35-.06-.71-.06-1.06-.01-1.4.22-2.75.73-4.1.03-.07.05-.14.08-.21.09-.23-.08.18.02-.05.06-.13.12-.26.19-.39.14-.26.28-.52.45-.77.07-.11.15-.21.22-.32-.15.21.01-.02.08-.09.18-.21.38-.42.59-.61.09-.08.18-.15.27-.23-.2.16-.05.04.06-.04.2-.13.4-.26.62-.36.05-.03.36-.16.16-.08s.15-.05.22-.07c.22-.07.44-.11.66-.16.09-.02-.3.02.01,0,.1,0,.21-.01.31-.02s.21,0,.31,0c.07,0,.49.05.27.02s.11.02.16.04c.1.02.21.05.31.08s.2.06.31.1c.14.05.36.16.09.03.25.13.5.25.73.4.11.07.22.15.33.23-.24-.17.02.02.11.1.22.19.42.39.61.61.1.11.2.23.29.34-.17-.22.1.15.15.23.18.27.35.55.5.84.08.15.15.31.22.46s.01.02,0-.01c.04.09.08.19.11.29.3.78.5,1.6.64,2.42l1.45-1.9c-2.77.09-5.55.05-8.32.08-1.93.02-1.93,3.02,0,3h0Z"/><path class="cls-1" d="m225.87,47.14c-2.21-1.99-5.06-3.97-8.2-3.44-2.46.42-4.21,2.44-5.29,4.57-2.87,5.72-3.17,12.89-2.92,19.16.12,2.96.33,6.11,1.28,8.94.61,1.82,3.51,1.04,2.89-.8-.72-2.13-.93-4.24-1.08-6.44-.21-3.04-.19-6.11.06-9.14.24-2.84.69-5.71,1.62-8.41.67-1.95,1.67-3.94,3.3-4.74.14-.07.74-.23.95-.24.64-.02.77,0,1.41.19,1.39.42,2.73,1.45,3.86,2.46,1.43,1.29,3.56-.83,2.12-2.12h0Z"/><path class="cls-1" d="m205.01,64.79c4.13-1.34,8.73-2.05,13.06-1.63.81.08,1.5-.75,1.5-1.5,0-.88-.69-1.42-1.5-1.5-2.47-.24-4.95-.04-7.39.3-2.19.3-4.37.75-6.47,1.43-1.83.59-1.05,3.49.8,2.89h0Z"/><path class="cls-1" d="m225.04,58.74c-.85,2.87-1.27,5.96-1.32,8.95-.05,2.77.16,6.44,2.5,8.33s5.7,1.92,8.01.24,3.61-4.48,4.42-7.16,1.37-5.83,1.11-8.71c-.17-1.89-3-1.96-3,0v16.43c0,1.93,3,1.93,3,0v-16.43h-3c.2,2.22-.09,4.2-.57,6.28-.53,2.28-1.37,4.74-2.81,6.34-.67.74-1.27,1.17-2.09,1.38-.14.03-.28.07-.42.09.28-.04-.04,0-.11,0-.13,0-.25,0-.38,0,0,0-.5-.04-.22,0-.57-.07-1.18-.26-1.67-.51-.1-.05-.2-.11-.3-.17-.21-.14.24.23-.08-.05-.07-.07-.45-.52-.32-.33-.4-.55-.48-.83-.66-1.43-.37-1.28-.44-2.52-.43-3.86,0-2.87.4-5.8,1.22-8.56.55-1.85-2.34-2.65-2.89-.8h0Z"/><path class="cls-1" d="m246.02,46.52c-.09,9.84-1.66,19.6-1.68,29.45,0,1.93,3,1.93,3,0,.03-9.85,1.59-19.61,1.68-29.45.02-1.93-2.98-1.93-3,0h0Z"/><path class="cls-1" d="m256.96,49.04c.02,9.85,1.47,19.97-.76,29.68l2.74-.36c-.3-.63-.46-1.31-.71-1.96-.71-1.77-3.61-1-2.89.8.36.89.6,1.8,1.02,2.67.55,1.17,2.46.85,2.74-.36,2.3-10,.89-20.34.87-30.48,0-1.93-3-1.93-3,0h0Z"/><path class="cls-1" d="m267.06,60.82c-.01,5.53-3.26,13.25,1.73,17.61,2.2,1.93,5.44,2.7,8.14,1.41,2.41-1.15,3.97-3.62,5.02-5.97,1.11-2.48,1.85-5.1,2.37-7.77.36-1.88-2.47-2.7-2.89-.8-1.78,8.01-.61,16.22-1.74,24.29-.29,2.09-.75,4.5-2.16,6.16-1.08,1.27-2.66,1.79-4.27,2.03-2.65.39-5.39.23-8.06.24-1.93,0-1.93,3,0,3,4.41-.01,10.01.66,13.66-2.38,1.76-1.46,2.71-3.66,3.26-5.83.96-3.8,1.02-7.84,1.09-11.74.08-5.02.03-10.05,1.12-14.98l-2.89-.8c-.73,3.75-1.8,8.64-4.87,11.22-1.65,1.38-3.86,1.17-5.53-.11-1.98-1.52-2.06-4.29-1.93-6.56.17-3.02.95-6,.95-9.03,0-1.93-3-1.93-3,0h0Z"/><path class="cls-1" d="m102.71,98.23c-3.73-2.35-9.34-3.28-12.59.39-1.29,1.45-2.78,3.52-2.56,5.58.17,1.64,1.39,2.72,2.81,3.39.37.17.74.33,1.12.49.14.06.28.12.42.18.08.03.16.07.24.1.39.16-.16-.07.06.03.6.26,1.14.58,1.71.91,1.13.65,2.5.72,3.76.86.16.02.32.04.48.06.26.03-.23-.04.19.03.3.05.61.1.91.18.14.04.28.08.42.12.07.02.13.05.2.07,0,0-.27-.13-.12-.05.12.06.23.13.35.19.05.03.22.16.04.02-.19-.16.04.05.06.07.06.07.14.2-.05-.09,0,.01.07.12.08.12.13.01.13.41.05.09.04.17.06.36.04.08.02.21.01.42,0,.63.03-.28-.04.18-.06.26-.05.19-.1.39-.17.58-.14.42-.31.82-.56,1.19-.07.1-.5.52-.65.61-.45.27-.55.32-.98.46-.97.3-1.71.33-2.78.27-1.74-.1-3.58-.62-5.02-1.67-.65-.48-1.67-.11-2.05.54-.44.76-.12,1.57.54,2.05,1.41,1.03,3.2,1.62,4.91,1.89,1.89.3,3.91.34,5.72-.38,2-.79,3.2-2.3,3.83-4.33.48-1.56.45-3.37-.84-4.54-1.09-.98-2.59-1.2-3.98-1.38-.3-.04-.6-.07-.89-.1-.16-.02-.31-.04-.47-.06-.08,0-.3-.04.06,0-.09-.01-.18-.03-.28-.04-.26-.05-.52-.09-.77-.16-.12-.03-.24-.08-.36-.11-.18-.04.23.17-.04-.03-.51-.38-1.1-.65-1.68-.9-.38-.17-.76-.32-1.14-.48-.08-.03-.16-.07-.24-.1-.21-.09.21.09,0,0-.17-.08-.35-.15-.52-.23-.27-.13-.53-.27-.79-.43-.12-.07-.33-.25-.11-.06-.14-.11-.26-.24-.38-.37.18.2.07.08-.03-.07-.11-.17.12.26.03.08-.02-.04-.04-.1-.05-.15-.05-.26,0,.04,0,.08,0-.08-.01-.15-.01-.23,0-.08,0-.16.01-.24-.02.23-.02.09.02-.06.28-.9.89-1.91,1.61-2.75s1.61-1.35,2.69-1.58c2.14-.45,4.51.43,6.33,1.57,1.64,1.03,3.15-1.56,1.51-2.59h0Z"/><path class="cls-1" d="m110.29,103.35c.39-.27.8-.51,1.23-.71-.25.12.02,0,.08-.03.11-.04.21-.08.32-.11.23-.07.47-.13.71-.18.11-.02.22-.04.32-.06-.32.05-.02,0,.06,0,.2,0,.39-.02.59-.02.22,0,.43,0,.65.03.05,0,.48.07.12,0,.13.02.26.04.39.07.41.08.81.2,1.2.34.1.04.21.08.31.12-.27-.12,0,0,.06.04.22.11.43.22.64.34.19.11.38.23.56.35.09.06.18.13.27.19.06.04.29.22.07.05.34.28.67.58.98.9.15.16.29.33.44.5.28.33-.16-.24.09.11.05.07.1.14.15.22.27.4.5.82.71,1.25.03.05.11.26,0,0,.04.1.08.2.12.3.07.2.14.41.19.62.05.19.09.38.13.57.01.06.05.48.02.12.01.13.02.26.03.39.01.22.01.44,0,.66,0,.09-.01.18-.02.26-.02.43.07-.29-.01.13-.09.46-.2.89-.36,1.33s.13-.23-.08.17c-.05.09-.09.18-.13.26-.1.2-.22.39-.34.59-.11.17-.22.33-.34.5-.15.23,0,.01.02-.03-.08.1-.17.2-.25.3-.22.25-.47.48-.72.71-.32.28.17-.1-.17.13-.16.11-.32.21-.49.31-.14.08-.28.14-.42.21.31-.16.05-.02-.12.04-.31.1-.61.16-.93.23s.28.01.08-.01c-.07,0-.16.02-.23.02-.15.01-.3.02-.45.01s-.3,0-.46-.02c-.18-.01-.54-.08-.15,0-.65-.13-1.24-.31-1.86-.52-.2-.07.34.16.05.02-.07-.03-.15-.07-.22-.1-.13-.06-.26-.13-.39-.2-.32-.17-.63-.35-.93-.55-.14-.09-.27-.19-.41-.28-.05-.04-.11-.08-.16-.12-.27-.19.2.16.03.02-.27-.22-.53-.44-.79-.68-.24-.23-.47-.46-.69-.71-.11-.12-.21-.25-.32-.37-.04-.05-.08-.1-.12-.15.26.32.06.08,0,0-.38-.54-.71-1.09-1-1.69-.17-.35.07.22-.06-.14-.06-.17-.12-.33-.17-.5s-.29-.77-.21-.91c-.05.09.03.37.01.07,0-.08-.01-.16-.02-.25,0-.16,0-.32,0-.49,0-.05,0-.11.01-.16.02-.36-.04.12,0,.04.05-.13.06-.29.09-.43.04-.16.1-.3.15-.46-.12.37-.02.06.08-.12.07-.13.17-.26.24-.39.14-.25-.2.18-.05.07.07-.06.13-.16.2-.23.11-.12.24-.23.36-.35.06-.05.12-.1.18-.15-.26.27-.09.07,0,0,.35-.24.72-.45,1.11-.63.73-.34.92-1.4.54-2.05-.44-.75-1.32-.88-2.05-.54-1.58.74-2.86,1.95-3.49,3.59-.52,1.35-.44,2.9-.01,4.26.94,2.99,3.36,5.58,6.14,6.98,3.09,1.56,6.71,1.6,9.38-.81,1.61-1.45,2.65-3.54,2.9-5.68s-.43-4.33-1.65-6.06c-2.93-4.15-8.83-6.23-13.27-3.12-.66.46-.97,1.31-.54,2.05.38.66,1.39,1.01,2.05.54h0Z"/><path class="cls-1" d="m126.54,101.21c0,4.22-.38,8.51.94,12.6.5,1.56,2.98,1.35,2.95-.4-.04-2.01-.22-4.02-.18-6.04.03-1.73.11-3.81,1.15-5.27s3.26-1.5,4.82-.84c1.84.78,2.22,3.04,2.33,4.81.17,2.8-.22,5.6-.24,8.4h3c.01-3.18-.14-6.94,1.39-9.84,1.66-3.14,5.26-3.11,8.36-2.51l-1.1-1.45c.21,4.67.13,9.34.13,14.01,0,1.93,3,1.93,3,0,0-4.67.09-9.34-.13-14.01-.03-.62-.44-1.32-1.1-1.45-4.2-.81-8.9-.62-11.43,3.34-2.18,3.41-2.1,8.01-2.12,11.9,0,1.93,2.99,1.93,3,0,.03-4.79,1.91-12.75-3.29-15.65-2.26-1.26-5.61-1.35-7.74.21s-2.68,4.01-2.93,6.38c-.28,2.67,0,5.34.06,8.01l2.95-.4c-1.23-3.82-.83-7.85-.83-11.8,0-1.93-3-1.93-3,0h0Z"/><path class="cls-1" d="m159.62,106.87c4.51,1.3,9.5,1.48,14.01.08.57-.18,1.17-.79,1.1-1.45-.38-3.5-2.42-6.36-5.86-7.4-3.03-.92-6.57-.3-9.2,1.43-2.96,1.94-4.73,5.21-4.54,8.77.23,4.2,2.78,7.97,6.68,9.6,2.02.84,4.32,1.03,6.42.4,2.44-.73,4.35-2.43,5.7-4.54,1.04-1.63-1.55-3.14-2.59-1.51-.85,1.33-2.11,2.52-3.5,3.03s-2.72.53-4.09.15c-2.82-.79-4.99-3.24-5.53-6.25-.27-1.47-.14-2.69.4-4.03.06-.16,0-.02,0,.01.04-.09.08-.18.13-.27.07-.13.14-.26.21-.39.17-.3.35-.58.56-.85-.14.18.09-.1.13-.15.11-.13.22-.25.34-.37.24-.24.48-.47.75-.68.13-.11,0,0-.02.01.06-.04.12-.09.17-.13.14-.1.28-.19.42-.28.28-.18.58-.34.88-.49.44-.22.9-.4,1.59-.58.77-.2.94-.23,1.63-.27.28-.02.56-.02.84,0,.16,0,.32.01.48.03.09,0,.5.07.22.02.36.06.71.13,1.06.24.15.04.3.09.45.15.32.11-.05-.04.26.1s.59.3.87.48c.07.04.37.26.28.19-.08-.06.22.2.3.27.11.11.22.22.33.34.06.06.12.14.18.2-.1-.12-.05-.07.01.02.2.29.38.59.54.9.09.18.19.43.3.82.11.37.19.85.21,1.04l1.1-1.45c-4.02,1.25-8.39,1.08-12.41-.08-1.86-.54-2.65,2.36-.8,2.89h0Z"/><path class="cls-1" d="m192.75,99.08c-2.02-.9-4.27-1.37-6.43-.65-1.89.63-3.4,1.96-4.45,3.63-2.04,3.23-2.48,7.73-1.03,11.27s5.66,6.58,9.74,5.31c3.62-1.12,5.79-4.93,6.35-8.49.67-4.3-.8-9.07-5.38-10.39-1.86-.53-2.65,2.36-.8,2.89,1.25.36,2.04.98,2.68,2.19.08.15.15.3.22.45-.13-.3.05.14.08.23.12.37.21.74.29,1.13.02.09.03.17.04.26,0-.06-.03-.3,0,0,.02.18.03.35.04.53.02.41.02.81,0,1.22-.01.18-.03.36-.04.55,0,.06-.04.3,0,.01-.01.09-.03.18-.04.27-.07.41-.16.82-.27,1.22-.1.36-.21.7-.34,1.05-.09.24-.15.39-.37.82-.17.34-.36.66-.57.98-.1.15-.2.29-.3.43.18-.24-.16.19-.21.25-.24.27-.5.51-.77.75-.05.04-.22.18.01,0-.06.05-.13.1-.2.14-.15.1-.3.2-.46.29-.14.08-.28.15-.43.22-.2.1.23-.09.02-.01-.08.03-.15.06-.23.08-.16.05-.31.1-.47.13-.1.02-.2.04-.3.06-.29.06.16,0-.03,0-.34.02-.68.02-1.02,0-.23-.02.24.04,0,0-.09-.02-.18-.03-.27-.05-.21-.05-.41-.1-.62-.17-1.34-.43-2.44-1.34-3.13-2.52-.09-.16-.18-.32-.26-.48-.03-.05-.24-.54-.13-.27-.16-.39-.28-.79-.39-1.19-.23-.92-.26-1.2-.28-2.15,0-.39,0-.77.04-1.16.02-.19.03-.39.06-.58-.03.26.06-.35.09-.46.07-.38.17-.75.28-1.11.05-.18.11-.36.18-.54.03-.09.07-.18.1-.26.16-.43-.12.26.07-.16.17-.38.36-.75.58-1.1.12-.19.24-.38.37-.56.03-.04.17-.22,0-.02.08-.1.17-.21.26-.3.26-.29.54-.57.85-.81-.23.19.24-.16.32-.22.16-.1.33-.2.5-.28.08-.04.15-.08.23-.11s-.17.05.12-.04c.19-.06.37-.12.57-.16.09-.02.17-.04.26-.06.42-.09-.3.02.14-.02.21-.02.42-.03.63-.03.61,0,.58,0,1.16.13.49.11,1.05.3,1.42.46.74.33,1.61.22,2.05-.54.37-.64.21-1.72-.54-2.05h0Z"/><path class="cls-1" d="m202.27,100.37c-.01,5.83-.79,11.63-.84,17.46-.01,1.64,2.68,2.11,2.95.4.42-2.66.51-5.48.9-8.07.35-2.3.9-4.56,2.61-5.98,1.8-1.5,5.18-1.86,7.56-1.24,2.02.53,2.79,2.03,3,4.03.32,3.11-.17,6.26-.18,9.38,0,1.93,2.99,1.93,3,0,0-3.06.48-6.15.2-9.21-.25-2.74-1.25-5.43-3.92-6.63-3.04-1.38-7.24-1.08-10.18.44-2.56,1.32-3.98,3.89-4.63,6.6-.77,3.23-.73,6.63-1.24,9.87l2.95.4c.05-5.83.83-11.63.84-17.46,0-1.93-3-1.93-3,0h0Z"/><path class="cls-1" d="m229.85,110.29c3.34,0,6.69.03,10.03-.08.99-.03,1.68-.93,1.45-1.9-.75-3.04-2.45-6.16-5.31-7.67-2.53-1.33-5.43-1.08-7.65.73-2.6,2.13-3.79,6.07-3.64,9.33s1.85,6.67,4.81,8.46c3.51,2.12,7.84,1.53,11.16-.66,1.61-1.06.1-3.66-1.51-2.59-.59.39-1.26.78-1.87,1.02-.33.13-.68.24-1.02.33-.17.04-.34.08-.51.12-.07.01-.6.09-.44.08-.33.04-.66.05-.98.05-.16,0-.32,0-.48-.02,0,0-.52-.05-.23-.01-.31-.04-.62-.11-.92-.19-.15-.04-.3-.08-.44-.13-.05-.02-.56-.22-.36-.13-2.31-1-3.7-2.99-4.12-5.51-.07-.44-.11-1.28-.07-1.9.04-.77.19-1.48.41-2.25.2-.69.38-1.18.68-1.76.32-.62.62-1.06.94-1.42.18-.2.37-.38.58-.56.32-.28-.24.16.1-.08.1-.07.21-.14.31-.21.21-.13.42-.24.64-.34-.34.15.02,0,.08-.02.15-.04.3-.09.45-.13.11-.03.23-.05.34-.07-.39.07-.02,0,.06,0,.23,0,.46,0,.69,0,.08,0,.45.08.07,0,.12.02.23.04.35.07.27.06.54.15.8.25-.34-.13.04.02.09.05.15.08.3.15.45.24.11.07.22.13.33.21.05.03.47.36.23.16.25.2.49.42.71.65.1.1.2.21.29.32.03.04.37.46.23.27.97,1.29,1.48,2.58,1.86,4.11l1.45-1.9c-3.34.11-6.69.08-10.03.08-1.93,0-1.93,3,0,3h0Z"/><path class="cls-1" d="m259.69,101.97c2.63,4.62,3.14,10.05,5.22,14.89.41.95,1.71.87,2.36.3,3.57-3.13,5.32-7.68,7.8-11.62h-2.59c3.09,4.42,5.29,9.37,9.69,12.71.81.61,1.95-.07,2.2-.9.66-2.13.74-4.38,1.06-6.58.29-1.98.7-4.46,2.4-5.75,1.51-1.16.02-3.76-1.51-2.59-4.52,3.45-3.35,9.29-4.84,14.12l2.2-.9c-3.9-2.97-5.87-7.71-8.61-11.64-.65-.93-1.96-1-2.59,0-2.34,3.71-3.96,8.06-7.33,11.01l2.36.3c-2.09-4.86-2.57-10.24-5.22-14.89-.95-1.68-3.55-.17-2.59,1.51h0Z"/><path class="cls-1" d="m290.67,101.61c.16.58.27,1.17.35,1.77-.04-.27.02.22.02.22.02.16.03.32.05.48.04.36.06.72.09,1.08.1,1.46.15,2.92.21,4.37.06,1.29.12,2.58.32,3.86.16,1,.45,1.98,1.32,2.58.67.46,1.66.13,2.05-.54.43-.74.13-1.59-.54-2.05.29.2.15.11.35.36-.04-.05-.07-.11-.1-.16-.11-.23.06.34.04.08,0-.08-.05-.17-.08-.25-.05-.2-.09-.39-.13-.59-.02-.11-.04-.23-.05-.34.06.39,0-.04,0-.1-.12-1.23-.17-2.45-.22-3.68-.11-2.61-.1-5.34-.8-7.88-.51-1.86-3.41-1.07-2.89.8h0Z"/><path class="cls-1" d="m290.44,95.14c1.93,0,1.93-3,0-3s-1.93,3,0,3h0Z"/><path class="cls-1" d="m299.88,96.16c0,8-.2,16.13,1.74,23.96.46,1.87,3.36,1.08,2.89-.8-1.87-7.56-1.63-15.43-1.63-23.16,0-1.93-3-1.93-3,0h0Z"/><path class="cls-1" d="m307.5,99.09c1.5,3.74,1.34,7.89,1.53,11.84s.51,8.02,2.83,11.24c1.12,1.55,3.72.05,2.59-1.51-2.21-3.07-2.32-7.08-2.47-10.71-.16-3.88-.13-7.98-1.59-11.65-.71-1.77-3.61-1-2.89.8h0Z"/><path class="cls-1" d="m89.21,140.93c0,6.73.11,13.47-.11,20.19-.08,2.36-.19,4.76.19,7.1.4,2.5,2.84,4.73,5.39,3.08,1.36-.88,1.92-2.66,1.08-4.1-.79-1.35-2.74-1.96-4.1-1.08-.47.28-.06.3,1.23.07.77-.3,1.36-.15,1.77.45-.06-.06.68.84.6.82-.14-.03-.19-1.22-.09-.23-.08-.83-.11-1.66-.12-2.49-.01-1.99.09-3.98.14-5.96.17-5.94.03-11.9.03-17.84,0-3.86-6-3.87-6,0h0Z"/><path class="cls-1" d="m92.04,143.82c1.27-.51,2.58-.94,3.93-1.19.14-.03.27-.04.41-.07.2-.04-.82.09-.27.04.27-.03.55-.05.82-.07.5-.02.99,0,1.49.04.45.03-.81-.14-.38-.05.1.02.2.04.3.06.21.04.41.1.61.16.17.05.81.31.2.05s.07.05.23.14c.14.08.27.2.42.27s-.66-.57-.35-.27c.07.06.14.12.21.19.11.11.21.23.32.34.26.25-.47-.67-.28-.36.05.09.12.17.17.25.08.13.15.27.22.4.21.39-.18-.38-.18-.44,0,.07.07.19.09.25.05.15.09.3.13.45.02.08.03.15.05.23.11.46-.07-.81-.06-.45s.04.7.01,1.05c-.06.71.14-.74.03-.21-.04.18-.07.37-.12.55s-.11.37-.17.55c-.03.09-.07.17-.09.25-.12.36.37-.79.14-.34-.18.36-.36.71-.57,1.05-.11.17-.23.33-.34.49-.24.35.5-.61.22-.28-.09.11-.18.21-.27.32-.3.34-.62.65-.95.95-.1.09-.2.17-.3.25-.04.04-.09.07-.13.11-.24.21.61-.44.33-.26-.25.16-.48.34-.73.5-.49.31-1,.58-1.53.82-.06.03-.12.05-.18.08-.31.15.68-.27.36-.15-.15.05-.29.11-.43.17-.32.12-.65.23-.98.32-.68.2-1.37.35-2.07.46s-1.45.8-1.79,1.38c-.38.64-.54,1.59-.3,2.31.55,1.69,2.02,2.36,3.69,2.1,5.1-.82,10.04-3.97,11.74-9.02.72-2.14.58-4.5-.42-6.52s-3.06-3.4-5.19-3.9c-3.23-.75-6.62,0-9.64,1.2-.75.3-1.37.65-1.79,1.38-.38.64-.54,1.59-.3,2.31.45,1.4,2.13,2.72,3.69,2.1h0Z"/><path class="cls-1" d="m105.69,139.08c0,5.06,0,10.13,0,15.19h6v-.89c0-1.57-1.38-3.07-3-3s-3,1.32-3,3v.89c0,1.57,1.38,3.07,3,3s3-1.32,3-3c0-5.06,0-10.13,0-15.19,0-1.57-1.38-3.07-3-3s-3,1.32-3,3h0Z"/><path class="cls-1" d="m110.37,133.66c3.86,0,3.87-6,0-6s-3.87,6,0,6h0Z"/><path class="cls-1" d="m125.11,138.64c-1.53-1.4-3.17-2.65-5.12-3.39-1.48-.56-3.3-.54-4.68.31-2.61,1.61-3.05,5-2.81,7.8.27,3.21,1.14,6.31,2.52,9.22,1.13,2.39,3.02,5.22,5.78,5.85,1.9.43,3.63-.15,5.07-1.41s2.21-3.08,2.88-4.78c.18-.47.35-.95.5-1.43.48-1.5-.56-3.34-2.1-3.69-1.64-.37-3.18.49-3.69,2.1-.2.64-.43,1.27-.69,1.89l.3-.72c-.34.8-.74,1.59-1.27,2.29l.47-.61c-.24.31-.51.6-.82.85l.61-.47c-.19.15-.4.28-.63.37l.72-.3c-.18.08-.37.13-.57.16l.8-.11c-.19.02-.38.02-.57,0l.8.11c-.22-.03-.44-.1-.65-.18l.72.3c-.28-.12-.54-.28-.78-.47l.61.47c-.46-.36-.86-.79-1.22-1.25l.47.61c-.79-1.03-1.39-2.19-1.89-3.37l.3.72c-.81-1.92-1.38-3.96-1.66-6.03l.11.8c-.15-1.16-.22-2.34-.07-3.5l-.11.8c.07-.49.17-.98.37-1.44l-.3.72c.1-.24.23-.47.39-.68l-.47.61c.11-.14.24-.27.38-.39l-.61.47c.13-.1.26-.18.41-.24l-.72.3c.16-.07.33-.11.51-.14l-.8.11c.23-.03.46-.02.69,0l-.8-.11c.38.05.74.17,1.09.32l-.72-.3c.81.34,1.54.84,2.23,1.37l-.61-.47c.48.37.95.77,1.4,1.18,1.16,1.06,3.11,1.23,4.24,0,1.06-1.15,1.24-3.11,0-4.24h0Z"/><path class="cls-1" d="m133.86,126.62c-1.86,4.35-2.21,9.13-2.4,13.82-.09,2.31-.12,4.63-.17,6.94-.02,1.02-.05,2.05-.11,3.07-.02.46-.05.91-.09,1.36-.02.21-.04.42-.06.63-.02.18-.11.93,0,.13-.22,1.6.39,3.22,2.1,3.69,1.4.38,3.47-.48,3.69-2.1.58-4.2.47-8.44.6-12.67.07-2.29.19-4.59.47-6.87.06-.52.28-1.81.49-2.72.1-.44.21-.87.34-1.3.07-.23.14-.45.22-.68.04-.12.34-.88.09-.3.64-1.49.44-3.22-1.08-4.1-1.26-.74-3.46-.42-4.1,1.08h0Z"/><path class="cls-1" d="m142.3,137.03c-1.93-.27-3.75.09-5.38,1.2s-2.97,2.59-3.88,4.34c-.62,1.19-.5,2.66.47,3.64,1.79,1.8,3.39,3.79,5.03,5.73,1.47,1.73,2.93,3.56,4.81,4.88,1.29.91,3.39.27,4.1-1.08.81-1.54.3-3.14-1.08-4.1-.48-.34.6.54.11.08-.14-.13-.28-.25-.42-.38-.35-.33-.68-.68-1.01-1.03-.83-.9-1.62-1.83-2.41-2.76-1.6-1.88-3.16-3.82-4.9-5.57l.47,3.64c.15-.3.32-.59.5-.87.08-.12.17-.24.25-.36.22-.34-.34.39-.07.09.22-.23.42-.47.65-.69.1-.09.2-.18.3-.28.4-.38-.36.23-.06.04.21-.14.42-.29.64-.41.07-.04.38-.16.4-.21-.04.08-.64.22-.23.1.19-.05.47-.08.64-.17-.5.25-.62.04-.26.05.23,0,.65.06-.28-.07.84.12,1.55.14,2.31-.3.62-.36,1.22-1.08,1.38-1.79.32-1.41-.43-3.46-2.1-3.69h0Z"/><path class="cls-1" d="m169.11,139.11c0,2.65-.24,5.3,0,7.95.27,3,1.02,6.23,3.46,8.23,2.82,2.3,7.19,2.69,10.41.96,2.92-1.57,3.93-4.82,4.18-7.9s-.26-5.86-.27-8.79c0-1.57-1.38-3.07-3-3s-2.95,1.32-3,3c-.15,5.54.41,11.09,1.81,16.46.24.92,1.11,1.94,2.1,2.1,1.25.19,2.08,0,3.07-.78,1.11-.88.97-2.51.47-3.64-.29-.64-.96-1.12-1.48-1.56-1.2-1.01-3.08-1.27-4.24,0-1.02,1.11-1.28,3.17,0,4.24.2.17.4.33.59.5l.17.15c.26.26.19.16-.22-.3l.47-3.64-.04.03,2.92-.77-.12-.02,2.1,2.1c-.33-1.25-.62-2.52-.85-3.79-.12-.63-.22-1.26-.31-1.89-.02-.15-.04-.29-.06-.44.04.31.04.29,0-.08-.03-.29-.07-.58-.1-.88-.27-2.59-.33-5.19-.26-7.79h-6c0,2.35.33,4.69.33,7.04,0,.59-.01,1.17-.06,1.76,0,.11-.02.22-.03.32-.06.65-.1-.1.03-.17-.08.04-.15.81-.18.91-.06.24-.14.47-.21.71-.22.72.34-.58-.03.07-.11.2-.24.39-.35.59-.2.37.18-.27.22-.28-.09.03-.3.32-.37.4-.49.51.59-.3-.05.04-.08.04-.17.09-.25.14-.41.26-.27-.11.18-.06-.17-.02-.58.19-.76.23-.1.02-.65.09-.11.04.58-.06-.24,0-.34.01-.33.01-.67.01-1-.01-.08,0-.72-.05-.16,0s-.03-.02-.13-.04c-.27-.06-.53-.15-.8-.23-.56-.18.61.37.14.05-.12-.08-.27-.15-.39-.22-.65-.37.42.46-.09-.06-.05-.05-.42-.52-.5-.52.24,0,.42.65.13.14-.05-.08-.11-.16-.16-.25-.08-.13-.14-.26-.21-.39-.29-.5.19,0,.05.17.06-.08-.43-1.33-.47-1.5-.06-.27-.11-.54-.16-.81-.04-.24-.03-.78.01.13,0-.17-.04-.34-.06-.51-.26-2.7,0-5.41-.02-8.12,0-1.57-1.38-3.07-3-3s-3.01,1.32-3,3h0Z"/><path class="cls-1" d="m190.25,137.48c-1.18,6.97-1.23,14.03-1.11,21.08.06,3.48.15,6.95.15,10.43,0,2.1.48,4.66,3.17,4.69,1.12.01,2.16-.59,2.72-1.56.17-.29.33-.69.42-1.03.13-.52-.21.33-.33.44,1.2-1.09,1.11-3.14,0-4.24-1.2-1.2-3.04-1.09-4.24,0-.76.69-.95,1.62-1.33,2.52l.77-1.32-.06.08,2.12-.88h-.07c.86.49,1.73.99,2.59,1.48-.09-.09-.14-.2-.18-.33l.41,1.51c.07-10.39-.99-20.98.75-31.28.27-1.6-.42-3.23-2.1-3.69-1.44-.4-3.42.49-3.69,2.1h0Z"/><path class="cls-1" d="m194.43,141.24c.56-.63,1.15-1.23,1.8-1.76.61-.5-.58.41-.08.06.13-.09.27-.19.4-.28.27-.17.54-.34.82-.48s.87-.27-.23.08c.13-.04.25-.1.37-.14.25-.08.5-.14.76-.19.52-.11-.99.07-.35.05.11,0,.23-.01.34-.01s.22.01.33.02c.51.01-.97-.19-.39-.05.22.05.43.11.65.18.52.17-.81-.4-.37-.16.1.06.21.1.31.16.37.21.85.7,0-.05.18.16.36.3.52.47s.32.36.48.55c-.77-.88-.22-.28,0,.07.29.45.51.93.74,1.42-.57-1.19-.09-.2.03.13.09.27.18.54.25.82.16.56.27,1.14.36,1.71s-.11-.97-.04-.26c.01.14.03.28.04.42.03.29.04.59.05.88.02.58,0,1.17-.06,1.75-.01.15-.04.3-.05.45.12-1.24.09-.62.04-.32-.05.28-.1.55-.17.82s-.14.53-.23.79c-.04.12-.08.24-.13.36-.25.66.23-.51.12-.27-.23.46-.47.89-.76,1.32-.13.2.63-.76.19-.26-.08.09-.15.17-.24.26s-.16.16-.25.24c-.05.04-.1.08-.14.12-.31.29.39-.33.41-.31-.02-.01-.61.39-.69.44-.06.03-.11.06-.17.08-.45.23.8-.3.42-.18-.12.04-.25.09-.37.13-.15.04-.3.08-.46.11-.04,0-.09.02-.13.02-.52.11.87-.08.45-.06-.32.02-.64.04-.96.02-.16,0-.31-.03-.47-.04-.43-.03.9.14.47.06-.11-.02-.22-.04-.33-.06-.39-.08-.77-.18-1.14-.31-.19-.06-.37-.13-.56-.2-.1-.04-.19-.08-.29-.11,1.03.37.47.2.23.09-.46-.21-.9-.44-1.34-.68-1.37-.77-3.34-.37-4.1,1.08s-.38,3.28,1.08,4.1c3.27,1.84,7.19,2.93,10.7,1.12,2.6-1.34,4.15-4.26,4.63-7.05s.36-5.98-.63-8.78-2.87-5.63-5.91-6.69c-3.9-1.36-7.76,1.28-10.24,4.07-1.04,1.17-1.24,3.1,0,4.24,1.14,1.05,3.13,1.25,4.24,0h0Z"/><path class="cls-1" d="m234.43,130.66c.19,4.88.92,9.82,1.93,14.59.63,2.96,1.45,5.87,2.68,8.64.94,2.14,2.32,4.35,4.44,5.48,3.14,1.68,6.41.17,8.69-2.19,2.68-2.78-1.55-7.03-4.24-4.24-.22.22-.44.43-.66.64-.09.08-.22.15-.29.25-.22.28.5-.27.18-.15-.2.08-.43.26-.62.38-.58.37.56-.09-.08.02-.75.13.13-.03.17.02,0-.01-.48,0-.49,0-.04.05.85.11.44.06.02,0-.23-.06-.23-.06-.03.05-.63-.31.02.03.52.27.13.06.03,0-.12-.08-.71-.48-.23-.12s-.07-.08-.16-.17c-.15-.15-.29-.34-.44-.48s-.18-.43.18.25c-.07-.14-.19-.26-.28-.39-.25-.39-.48-.77-.7-1.18-.11-.22-.22-.44-.33-.66-.12-.26-.44-1.06-.16-.35-.92-2.4-1.61-4.87-2.14-7.38-.29-1.35-.53-2.7-.75-4.06-.09-.58-.18-1.16-.26-1.74-.02-.14-.04-.28-.06-.42-.1-.71.06.52,0,.07-.04-.3-.08-.61-.12-.91-.24-1.96-.45-3.94-.53-5.92-.06-1.62-1.33-3-3-3-1.58,0-3.06,1.37-3,3h0Z"/><path class="cls-1" d="m233.22,147.13c4.49,0,9.06.38,13.42-.95,1.5-.46,2.6-2.12,2.1-3.69s-2.08-2.59-3.69-2.1c-.52.16-1.05.3-1.59.41-.23.05-.46.09-.69.13-.15.03-.31.05-.46.07l.34-.04c-1.02.19-2.11.19-3.15.21-2.09.04-4.19-.05-6.28-.05-1.57,0-3.07,1.38-3,3s1.32,3,3,3h0Z"/><path class="cls-1" d="m250.41,132.35c.02,4.83.01,9.68.43,14.5.38,4.32.83,9.4,3.34,13.1.91,1.34,2.64,1.93,4.1,1.08,1.33-.78,1.99-2.76,1.08-4.1-.21-.31-.41-.64-.58-.98-.09-.18-.18-.37-.26-.55-.14-.3.14.42-.04-.12-.3-.91-.59-1.82-.8-2.76-.53-2.34-.71-3.99-.89-6.38-.36-4.59-.36-9.19-.37-13.78-.01-3.86-6.01-3.87-6,0h0Z"/><path class="cls-1" d="m255.89,146.18c.99-.39,1.98-.66,3.02-.87.4-.08-.83.08-.26.04.1,0,.2-.02.3-.03.19-.01.38-.02.58-.02s.37.01.55.02c.74.03-.72-.17-.02,0,.35.08.67.17,1.01.28.57.18-.69-.35-.17-.07.17.09.34.18.51.28.13.08.25.17.39.26.3.19-.64-.54-.29-.22.06.05.12.1.18.15.26.23.5.49.73.75.43.48-.3-.45-.1-.14.09.13.19.26.28.4.2.31.39.63.56.96.09.17.17.34.25.51.05.11.32.73.08.17s.04.1.09.24c.08.2.15.41.22.61.49,1.44.82,2.92,1.1,4.41s.48,3.01.76,4.51,2.24,2.57,3.69,2.1c1.65-.54,2.4-2.03,2.1-3.69-.56-3.01-.88-6.08-1.88-8.99-1.25-3.65-3.55-7.23-7.54-8.21-2.58-.64-5.3-.17-7.74.8-1.45.58-2.63,2.03-2.1,3.69.46,1.41,2.13,2.71,3.69,2.1h0Z"/><path class="cls-1" d="m274.49,152.07c1.31.19,2.58.05,3.89-.09,1.72-.2,3.48-.4,5.16-.85,1.23-.33,2.26-1.59,2.2-2.89-.14-3.39-1.35-6.98-4.41-8.81-2.77-1.65-6.18-1.05-8.48,1.12-2.57,2.43-3.47,6.48-3.27,9.9.22,3.75,1.69,7.32,4.8,9.56,3.55,2.56,8.28,1.68,11.67-.66,1.29-.89,2-2.67,1.08-4.1-.83-1.28-2.72-2.03-4.1-1.08-.64.44-1.31.79-2.01,1.14.81-.4.27-.12.04-.04-.15.05-.29.1-.44.14-.17.05-.34.09-.51.13-.14.03-.75.12-.17.04s.05-.01-.09,0c-.16,0-.32.01-.47.01-.13,0-.26,0-.4-.02-.06,0-.13-.02-.2-.02-.32-.01.72.15.41.05-.26-.08-.54-.11-.8-.2-.05-.02-.32-.15-.35-.13.02,0,.74.35.37.15-.07-.04-.15-.07-.22-.11-.22-.12-.44-.25-.64-.39-.03-.02-.2-.15-.2-.15,0,0,.53.44.36.27-.11-.1-.23-.19-.33-.29-.2-.19-.39-.4-.57-.61-.35-.4.24.35.15.19s-.2-.29-.3-.44c-.15-.23-.28-.47-.4-.72-.06-.12-.19-.31-.21-.44,0-.07.26.69.17.39-.03-.09-.07-.18-.1-.27-.22-.61-.37-1.24-.49-1.88-.13-.69.06.61.01.1-.01-.16-.03-.32-.04-.47-.03-.38-.04-.76-.03-1.14,0-.34.02-.67.05-1,0-.11.1-.84.03-.28s.03-.14.06-.28c.13-.68.34-1.32.57-1.98.06-.19-.33.7-.08.21.06-.12.12-.24.18-.35.14-.26.3-.5.46-.74.29-.42-.31.35-.18.24.09-.09.17-.2.26-.29.08-.08.15-.16.23-.23.11-.1.49-.4.02-.04s.12-.07.28-.16c.09-.05.17-.09.26-.13.28-.15-.82.28-.28.13.18-.05.36-.09.54-.14.35-.1-.88.06-.39.06.11,0,.21-.01.32,0s.21.02.32.02c.17,0-.88-.18-.44-.05.2.06.41.14.62.18.09.02-.78-.38-.33-.13.1.05.2.11.29.16.12.07.55.39.06.02s-.1-.07,0,.02c.2.18.36.39.55.57.21.21-.39-.45-.3-.39.05.03.1.14.13.18.08.13.17.26.25.39.07.12.14.25.2.37.03.06.05.11.08.17.21.41-.25-.64-.13-.31.11.29.21.59.3.89.1.35.16.7.23,1.06.02.11.06.4-.01-.1-.08-.56-.01-.06,0,.07.02.22.03.43.04.65l2.2-2.89c-.67.18-1.36.31-2.04.42-.36.06-.72.11-1.09.16,1.09-.17-.17.02-.44.05-.63.07-1.26.13-1.89.18-.23.02-.46.03-.69.04-.37,0-1.07-.09.29.1-.83-.12-1.55-.14-2.31.3-.62.36-1.22,1.08-1.38,1.79-.17.77-.14,1.63.3,2.31.39.61,1.04,1.27,1.79,1.38h0Z"/><path class="cls-1" d="m298.68,139.01c-3.72-1.88-9.04-2.24-11.4,1.94-1.18,2.08-1.12,4.57-.5,6.81.56,2.05,1.65,4.18,3.84,4.84,1.5.45,2.89-.02,4.28-.53.26-.1.53-.19.8-.27.14-.04.28-.06.42-.1.52-.16-.78,0-.23.03.13,0,.31,0,.44,0,.56-.05-.77-.15-.2-.02.43.1.25.27-.11-.09.04.04.65.31.62.36l-.29-.22c.11.09.22.19.32.28.15.14.29.28.43.44.46.51-.05.11,0,0-.01.03.27.41.29.46.08.14.14.34.24.47-.41-.52-.15-.44-.07-.09.02.1.05.22.08.32.22.75.04-.47,0,0-.01.15,0,.32,0,.47.02.67-.14-.15.04-.17,0,0-.22.84-.24.92-.13.56.36-.62.06-.13-.08.14-.15.29-.23.43s-.19.27-.26.41c-.22.42.51-.52-.04.04-.24.25-.66.53-.84.82.29-.46.41-.29.06-.06-.19.13-.38.25-.58.36-.15.08-.31.16-.46.24-.46.24.69-.24-.09.02-.38.13-.84.14-1.2.29.63-.26.45-.05.08-.03-.24.01-.49.01-.73,0-.52-.03-.28-.22.06.03-.15-.11-.57-.11-.75-.16s-.37-.12-.56-.18c-.3-.12-.25-.09.15.07-.13-.06-.25-.12-.37-.18-.19-.1-.38-.2-.56-.32-.13-.08-.91-.66-.31-.19-1.23-.97-3.06-1.29-4.24,0-1,1.08-1.31,3.2,0,4.24,1.86,1.47,3.83,2.42,6.21,2.65,1.9.18,3.81-.3,5.5-1.15,3.12-1.56,5.54-5.03,5.29-8.6-.28-3.97-3.79-8.12-8.04-7.7-1.36.14-2.61.63-3.89,1.07-.47.16.84-.05.35-.04-.32,0-.5-.12.37.08-.28-.06-.5-.24.31.16-.22-.11-.52-.42.22.19-.5-.4.24.14.11.17-.04,0-.24-.41-.26-.45-.32-.57.18.65-.02-.06-.09-.33-.21-.66-.29-1-.06-.25-.11-.5-.16-.75.15.77,0-.16,0-.34,0-.04.02-.62.02-.62-.07.47-.08.55-.02.22.03-.12.06-.24.09-.35.11-.58-.38.54-.05.07.05-.1.1-.2.16-.29.18-.26.11-.19-.18.22-.02-.04.3-.31.33-.34.27-.33-.62.34.04.01.53-.26-.71.16-.12.04.16-.03.53-.09.65-.17-.37.25-.61.05-.09.02.25-.01.5,0,.75.01.67.01-.69-.17-.02,0,.27.07.54.12.81.2.21.06.41.14.62.21-.76-.25.17.09.33.17,1.4.71,3.32.42,4.1-1.08.72-1.37.42-3.35-1.08-4.1h0Z"/><path class="cls-1" d="m305.58,153.02c3.6,0,7.21.05,10.81-.08,1.68-.06,2.92-1.33,3-3,.16-3.55-.7-7.78-3.57-10.17-1.35-1.12-2.92-1.86-4.71-1.86s-3.47.78-4.82,1.96c-3.12,2.75-3.64,7.36-3.86,11.23-.11,1.89-.09,3.95.59,5.74.87,2.26,2.38,3.98,4.45,5.24,2.41,1.46,5.24,2.3,8.05,1.86s4.91-2.81,5.56-5.55c.36-1.52-.48-3.32-2.1-3.69s-3.3.46-3.69,2.1c-.06.23-.12.46-.19.69-.14.48.35-.63.02-.04-.09.15-.18.3-.27.46-.22.38.17-.24.21-.26-.08.05-.16.18-.24.25-.06.06-.14.12-.2.18-.18.19.36-.27.34-.27-.15.05-.32.19-.46.27-.41.23.72-.23.16-.08-.06.02-.56.19-.6.14-.02-.03.86-.07.38-.06-.1,0-.19.01-.29.02-.17,0-.34,0-.51,0-.07,0-.15-.01-.22-.02-.47-.02.32.04.34.05-.22-.07-.47-.08-.7-.14-.4-.1-.8-.22-1.19-.37-.11-.04-.21-.09-.32-.12-.02,0,.61.28.32.13-.24-.12-.49-.23-.73-.36-.4-.21-.78-.44-1.16-.7-.54-.36.39.35.02.03-.17-.15-.35-.3-.51-.46-.12-.12-.24-.24-.35-.37-.06-.07-.12-.15-.18-.22.01.01.45.65.22.27-.06-.1-.6-.85-.53-.93-.03.03.31.83.08.16-.05-.15-.1-.3-.14-.45-.05-.17-.09-.35-.12-.53-.02-.09-.03-.18-.05-.27-.08-.41.04.37.05.39-.14-.22-.07-.82-.08-1.08-.01-.43-.01-.87,0-1.3.03-.84.09-1.68.17-2.51.02-.25.05-.49.07-.74.06-.55-.1.66,0,0,.07-.44.16-.88.26-1.31.09-.37.2-.74.32-1.1.06-.18.15-.35.2-.53.02-.06-.3.68-.17.4.05-.1.09-.2.14-.3.14-.28.29-.56.45-.82.07-.12.16-.23.23-.34.21-.36-.24.37-.26.33-.01-.02.16-.2.18-.21.17-.2.36-.38.55-.56.39-.36-.34.23-.26.19.12-.06.24-.17.36-.24.09-.06.19-.1.28-.15.44-.26-.79.27-.31.12.21-.06.46-.1.67-.18.1-.04-.93.07-.42.06.11,0,.22,0,.34,0,.1,0,.2.02.29.02-.05,0-.91-.16-.34-.03.2.05.38.12.58.18-1.07-.32-.34-.15,0,.07.13.08.57.42.08.04s-.05-.02.06.08c.1.09.19.19.28.28.1.11.47.58.1.09s0,.01.08.13.16.25.23.38c.09.15.17.31.24.46.03.07.06.15.1.22.14.26-.3-.79-.14-.32.25.73.45,1.45.59,2.21.09.47-.05-.36-.05-.36.04.11.03.26.04.38.02.23.04.47.05.7.02.5.02,1,0,1.49l3-3c-3.6.13-7.2.08-10.81.08-1.57,0-3.07,1.38-3,3s1.32,3,3,3h0Z"/><path class="cls-1" d="m146.92,175.26c0,6.17.42,12.35,1.23,18.47.4,3.04.74,6.21,1.55,9.18.56,2.04,3.01,3.5,4.99,2.37.72-.41,1.25-1.11,1.45-1.91.18-.71.09-1.02-.01-1.73l-.03-.17c.12.48.05.94-.23,1.4,1.91-3.36-3.27-6.39-5.18-3.03-.34.6-.54,1.24-.53,1.94,0,.23.04.46.07.7.13.98-.11.56.11-.61l1.38-1.79-.06.03,2.31-.3.78.39.77,1.32c-1.87-8.59-2.59-17.46-2.6-26.25,0-3.86-6.01-3.87-6,0h0Z"/><path class="cls-1" d="m152.27,180.37c.8-.58,1.65-1.09,2.56-1.49l-.72.3c.7-.3,1.43-.52,2.18-.62l-.8.11c.59-.08,1.18-.08,1.77,0l-.8-.11c.5.07.98.2,1.45.4l-.72-.3c.39.17.75.38,1.1.61.04.03.07.06.11.08.3.21-.7-.56-.43-.33.08.07.17.14.25.21.15.14.3.28.44.43.24.25.71.96-.04-.1.12.17.24.33.35.5.23.36.43.75.6,1.15l-.3-.72c.28.66.47,1.36.57,2.07l-.11-.8c.09.69.1,1.38,0,2.07l.11-.8c-.08.58-.23,1.16-.46,1.7l.3-.72c-.14.32-.3.63-.49.92-.22.34-.58.67.13-.14-.12.13-.23.27-.35.4s-.24.24-.37.35c-.04.03-.07.06-.11.09-.28.25.51-.38.45-.34-.07.04-.14.1-.21.15-.33.22-.68.41-1.04.56l.72-.3c-.61.25-1.25.41-1.91.5l.8-.11c-.96.12-1.94.09-2.9-.03l.8.11c-1.54-.21-3.04-.65-4.5-1.21-.69-.26-1.7-.05-2.31.3s-1.22,1.08-1.38,1.79c-.17.77-.14,1.63.3,2.31s1.03,1.09,1.79,1.38c3.21,1.22,7.06,2.04,10.42.92,2.83-.94,4.97-3.05,5.86-5.91.8-2.55.4-5.27-.66-7.67s-3.14-4.25-5.62-5.09c-2.97-1-6.29-.09-8.88,1.5-.34.21-.67.44-1,.67-.65.47-1.16.99-1.38,1.79-.2.72-.11,1.67.3,2.31.81,1.26,2.75,2.06,4.1,1.08h0Z"/><path class="cls-1" d="m183.17,177.34c-3.46-3.35-8.68-4.9-13.12-2.55-1.89,1-3.36,2.81-3.94,4.86-.69,2.44-.08,5.03,1.13,7.2,2.13,3.84,6.47,7.97,11.2,7.16,3.65-.62,5.68-4.38,6.76-7.54,1.24-3.63,1.75-7.79,1.38-11.61-.15-1.56-1.27-3.08-3-3-1.63.07-3,1.32-3,3,0,3.39-.07,6.79.13,10.18.18,3.17.47,6.54,1.96,9.4.72,1.4,2.79,1.92,4.1,1.08,1.42-.92,1.85-2.61,1.08-4.1-.05-.1-.1-.2-.15-.31-.27-.54.15.48.06.13-.08-.28-.2-.56-.28-.84-.17-.6-.3-1.21-.41-1.83-.04-.2-.17-1.22-.09-.52-.04-.38-.09-.76-.13-1.14-.08-.8-.13-1.6-.17-2.41-.16-3.21-.1-6.42-.1-9.63h-6c.13,1.3.13,2.61.04,3.91-.02.36-.05.72-.09,1.08-.02.18-.04.36-.06.55-.07.67.11-.73.01-.07-.11.73-.24,1.46-.4,2.19s-.35,1.41-.57,2.1c-.11.33-.23.66-.35.98-.03.09-.08.24-.13.32.49-.75.08-.19-.04.04-.14.29-.29.57-.45.84-.07.11-.52.66-.49.76-.05-.2.51-.59.11-.16-.06.07-.12.14-.19.21-.09.1-.19.2-.29.29-.06.06-.13.12-.2.18-.23.19-.13.11.3-.23-.13.03-.55.28-.65.38.42-.41.66-.22.26-.12-.12.03-.24.06-.36.09-.48.15.81,0,.3-.04-.08,0-.18,0-.26,0-.43.03-.25-.24.27.06-.13-.08-.4-.08-.55-.12-.03,0-.43-.15-.43-.15.07-.11.72.38.13.04-.31-.18-.62-.37-.93-.56-.43-.28.07.08.12.11-.17-.1-.35-.28-.49-.41-.42-.37-.82-.77-1.2-1.18-.18-.2-.36-.4-.54-.6-.02-.02-.61-.79-.25-.3-.31-.42-.59-.86-.84-1.32-.08-.14-.14-.29-.22-.43-.35-.67.15.58-.04-.12-.06-.2-.13-.4-.18-.61-.03-.13-.06-.26-.09-.39-.06-.33-.05-.26.02.22.15-.22-.21-.87,0-1.09l-.06.45c.02-.11.04-.22.07-.33.03-.1.07-.22.09-.32.16-.67-.04.13-.06.1-.03-.04.21-.39.23-.43.29-.57-.1.01-.09.08-.01-.1.37-.4.44-.48.38-.41-.03-.18-.1.05.04-.12.45-.3.56-.36.09-.05.21-.1.3-.16.39-.25-.69.18.08-.02.17-.05.34-.1.51-.15.12-.03.23-.05.35-.08.32-.05.24-.04-.26.03.37.09.92-.05,1.31-.02.72.05-.01.06-.02-.01,0,0,.56.12.59.12.2.05.4.11.59.17s.99.46.27.09c.47.25.93.48,1.37.78.1.07.68.57.16.11.25.22.5.44.74.67,1.13,1.09,3.13,1.21,4.24,0s1.2-3.08,0-4.24h0Z"/><path class="cls-1" d="m188.99,177.78c0,6.15.45,12.37-.26,18.49-.4,3.44-2.02,11.5,4.06,10.48,1.6-.27,2.49-2.24,2.1-3.69-.47-1.69-2.09-2.36-3.69-2.1l2.86,1.17.19.49c-.04-.11-.19-.57-.05-.07.13.46,0-.33,0-.54,0-.79.07-1.58.15-2.36.18-1.84.47-3.68.61-5.52.41-5.43.05-10.92.04-16.35,0-3.86-6.01-3.87-6,0h0Z"/><path class="cls-1" d="m194.04,180.26c.04-.09.08-.18.11-.27-.38,1-.26.59-.15.37.08-.16.15-.33.23-.49.15-.3.31-.59.49-.87.08-.13.17-.26.26-.38.03-.04.06-.08.09-.12.23-.33-.56.68-.29.38.18-.21.36-.42.57-.62.08-.08.17-.15.26-.23.38-.34-.78.54-.27.22.19-.12.38-.23.58-.33.43-.22-.92.32-.37.16.08-.02.16-.05.25-.08.1-.03.2-.04.3-.07.25-.06.67.02-.6.08.07,0,.13-.02.2-.02.19,0,.37,0,.56,0,.57.02-.92-.17-.44-.06.1.02.2.04.3.06.19.05.37.11.55.17.46.15-.89-.41-.37-.15.12.06.23.11.34.17.18.1.36.21.53.33.1.07.19.14.28.2.27.19-.55-.44-.47-.36.06.05.13.1.19.15.38.32.73.67,1.06,1.04.23.26.78,1.04.02-.01.15.21.31.42.46.64.29.44.56.91.8,1.38.15.3.5,1.25.03.01.1.25.2.5.28.75.17.5.31,1.01.4,1.52.02.13.04.25.06.38.06.37-.11-1.03-.06-.42.02.25.04.5.05.75s0,.49-.02.74c0,.1-.02.2-.03.3.11-1.27.09-.64.03-.32-.04.21-.1.42-.16.63-.04.11-.08.22-.12.33-.12.36.38-.84.21-.5-.03.06-.06.12-.09.19-.1.2-.21.4-.34.59-.06.08-.12.16-.17.24.67-.99.38-.48.16-.24-.18.2-.39.37-.59.54.95-.84.19-.16-.16.04-.14.08-.29.15-.44.22-.23.11-.6.19.45-.19-.09.03-.18.07-.28.11-.32.12-.65.21-.99.28-.17.04-.33.07-.5.1-.76.13.87-.09.09-.01-.42.04-.84.06-1.27.07-.47,0-.94-.01-1.41-.05-.27-.02-.55-.05-.82-.08-.12-.01-.24-.03-.36-.04,1.12.12.42.06.17.02-.83-.13-1.56-.14-2.31.3-.62.36-1.22,1.08-1.38,1.79-.17.77-.14,1.63.3,2.31.39.61,1.04,1.26,1.79,1.38,3.94.6,8.14.62,11.37-2.03,2.14-1.75,3.08-4.74,2.82-7.44-.3-3-1.48-5.68-3.34-8.04-1.65-2.09-4.04-3.66-6.74-3.81-3.21-.18-5.83,2.26-7.15,4.98-.27.56-.51,1.13-.74,1.71-.27.68-.05,1.71.3,2.31s1.08,1.22,1.79,1.38c.77.17,1.63.14,2.31-.3s1.08-1.03,1.38-1.79h0Z"/><path class="cls-1" d="m211.34,187.51c4.66.01,9.76.74,14.2-1.08,1.63-.67,2.38-1.92,2.1-3.69-.57-3.52-2.53-7.25-5.93-8.75s-7.07-.86-9.77,1.66c-2.91,2.7-3.94,7.17-3.52,11,.45,4.09,2.42,8.18,6.32,10,2.26,1.06,4.61,1.3,7.06.9s4.81-1.77,6.82-3.34c1.24-.97,1.1-3.24,0-4.24-1.32-1.21-2.92-1.04-4.24,0,.4-.31.13-.1-.1.06-.18.12-.35.24-.53.36-.38.24-.76.46-1.16.66-.09.04-.18.09-.27.13-.32.16-.02-.03,0,0,0,0,.34-.13,0,0-.09.03-.18.07-.27.1-.38.14-.76.25-1.15.34-.17.04-.35.07-.52.11-.53.12.64-.05.11,0-.37.03-.73.05-1.1.04-.17,0-.33-.02-.5-.03-.08,0-.17-.03-.25-.02-.03,0,.7.13.39.05-.34-.09-.68-.13-1.02-.24-.15-.05-.3-.1-.45-.15-.49-.16.58.29.13.06-.31-.16-.61-.31-.9-.5-.1-.07-.55-.41-.15-.09s-.04-.04-.13-.12c-.26-.23-.51-.48-.74-.75-.05-.06-.1-.13-.16-.19-.21-.22.22.29.21.28-.05-.14-.2-.29-.29-.41-.2-.32-.38-.64-.55-.98-.03-.06-.06-.2-.11-.24,0,0,.23.6.13.3-.06-.17-.13-.34-.19-.52-.13-.39-.24-.79-.32-1.19-.01-.05-.09-.58-.11-.58,0,0,.07.64.04.3,0-.1-.02-.2-.03-.31-.04-.46-.06-.92-.06-1.38,0-.42.03-.84.06-1.26,0-.05.06-.26.03-.29,0,0-.11.64-.04.32.05-.21.07-.43.12-.64.08-.37.18-.74.29-1.11.05-.16.11-.32.17-.48.22-.61-.23.46-.02.04.14-.27.28-.55.44-.82.08-.13.16-.25.24-.37.04-.06.09-.12.13-.18.16-.28-.44.48-.2.27.2-.19.37-.42.57-.61.1-.09.2-.18.3-.27.43-.39-.5.32-.14.11.22-.13.43-.28.66-.4.11-.06.24-.1.34-.16-.27.17-.68.26-.19.1.23-.08.47-.13.71-.18.51-.12-.49.03-.32.04.14,0,.28-.02.42-.03.24,0,.49.04.73.03-.21,0-.8-.15-.31-.03.14.03.28.06.42.1s.27.09.41.14c.4.12-.7-.35-.19-.08.27.15.53.3.78.46.49.31-.44-.4-.13-.1.12.11.24.21.36.33s.23.24.35.36c.09.1.47.57.14.15s.04.08.12.19c.1.15.2.31.29.47s.18.34.27.51c.04.08.07.15.11.23.17.32-.21-.6-.1-.24.28.89.56,1.74.71,2.67l2.1-3.69c-.95.39-1.93.62-2.94.81-.34.05-.32.05.07,0-.16.02-.33.04-.49.05-.25.02-.5.04-.75.06-.55.04-1.11.06-1.66.06-2.28.04-4.55-.11-6.83-.12-1.57,0-3.07,1.38-3,3s1.32,3,3,3h0Z"/><path class="cls-1" d="m230.22,177.78v18.24c0,1.57,1.38,3.07,3,3s3-1.32,3-3v-.57c0-1.57-1.38-3.07-3-3s-3,1.32-3,3v.57c0,1.57,1.38,3.07,3,3s3-1.32,3-3v-18.24c0-1.57-1.38-3.07-3-3s-3,1.32-3,3h0Z"/><path class="cls-1" d="m236.11,186.15c.05-.38.13-.75.25-1.11.03-.1.07-.2.1-.29-.2.46-.25.58-.15.37.09-.15.16-.31.25-.46.01-.02.25-.36.24-.37-.33.41-.39.5-.2.26.06-.08.13-.15.19-.22.08-.08.66-.55.65-.61-.41.31-.5.38-.25.19.08-.06.17-.12.25-.17.13-.09.26-.17.39-.25.32-.19.65-.35.98-.51.52-.26-.63.24-.12.05.21-.08.41-.16.62-.23.35-.12.7-.23,1.05-.33,2.89-.83,5.9-1.04,8.8-1.79,1.52-.4,2.59-2.16,2.1-3.69s-2.06-2.52-3.69-2.1c-3.12.81-6.38.99-9.45,1.99-3.64,1.18-7.21,3.59-7.79,7.68-.12.83-.14,1.55.3,2.31.36.62,1.08,1.22,1.79,1.38,1.42.32,3.45-.43,3.69-2.1h0Z"/><path class="cls-1" d="m261.66,176.88c-2.29-1.7-5.13-2.75-7.99-2.14-2.19.46-4.12,2.08-5.12,4.06-2.13,4.21-1.14,9.97,3.68,11.72,3.16,1.15,6.69-.17,9.47-1.69l-4.1-1.08c.14.25.26.51.38.77-.34-.69-.05-.11.02.07.17.46.31.94.42,1.42.06.27.11.55.16.82.13.66-.04-.59,0,.03.03.48.07.96.06,1.44,0,.18-.19,1.32-.09,1.41.07-.47.07-.54.02-.21-.02.13-.05.26-.07.38-.04.19-.08.38-.13.56-.11.42-.25.83-.39,1.24-.18.49.34-.62-.06.09-.1.17-.19.35-.29.53-.05.08-.23.47-.32.49.31-.39.37-.46.17-.22-.05.06-.1.12-.16.18-.12.13-.26.26-.38.38-.07.07-.15.13-.23.2.39-.3.5-.38.31-.25-.14.07-.31.17-.44.26-.41.3.74-.21.12-.05-.08.02-.46.08-.49.13.15-.22.8-.05.13-.04-.75,0,.12,0,.1.05,0,.02-.51-.11-.56-.13-.08-.02-.17-.05-.25-.08-.29-.11-.22-.08.21.1-.04-.1-.5-.25-.6-.31-.21-.12-.41-.26-.62-.4-.46-.3.37.33-.21-.18-.5-.44-.96-.92-1.4-1.43-1.04-1.18-3.2-1.14-4.24,0-1.16,1.26-1.11,2.98,0,4.24,2.74,3.13,7.33,5.66,11.29,3.01,3.32-2.23,4.67-6.51,4.59-10.36-.05-2.51-.68-4.96-1.87-7.17-.78-1.46-2.72-1.83-4.1-1.08-.33.18-.66.35-.99.51-.14.07-.29.13-.43.2-.58.27.52-.18.13-.06-.57.18-1.11.4-1.69.53-.12.03-.24.05-.35.07-.35.07-.52-.08.26-.02-.2-.01-.43.04-.64.05s-.39-.01-.59-.02c-.67-.02.83.23.04,0-.16-.05-.33-.11-.49-.15-.35-.08.44.19.44.19-.06-.06-.18-.08-.26-.13-.13-.08-.26-.17-.39-.25-.37-.21.55.52.36.27-.06-.08-.16-.14-.23-.21-.28-.28-.27-.58.12.2-.06-.13-.17-.25-.25-.37s-.13-.27-.21-.4c-.22-.38.27.81.16.38-.02-.09-.06-.17-.09-.26-.05-.15-.08-.3-.12-.45-.13-.61.05-.12.02.24.03-.34-.05-.71-.03-1.05.03-.62.05-.19-.04.17.04-.16.05-.32.09-.48.08-.37.26-.71.34-1.07,0-.02-.38.76-.19.45.05-.08.08-.18.13-.26.07-.14.16-.28.24-.42.19-.3.57-.5-.14.14.14-.12.25-.3.38-.43.11-.11.24-.21.35-.32.2-.21-.77.49-.15.13.14-.08.28-.16.41-.24.51-.31-.84.24-.09.05.19-.05.39-.09.58-.14.44-.13-.78.05-.44.06.12,0,.25-.02.37-.02.2,0,.48.08.67.03-.54.14-.76-.13-.45-.06.16.04.32.06.48.11.26.07.5.16.75.24.32.1-.07.16-.33-.14.09.11.4.19.53.26.59.31,1.15.68,1.68,1.08,1.26.94,3.4.25,4.1-1.08.83-1.57.27-3.1-1.08-4.1h0Z"/><path class="cls-1" d="m269.4,199.48h.84c.21,0,.4-.04.58-.13.19-.06.35-.16.48-.31.15-.14.25-.3.31-.48.09-.18.14-.37.13-.58l-.05-.4c-.07-.25-.2-.47-.39-.66l-.3-.23c-.23-.14-.49-.2-.76-.2h-.84c-.21,0-.4.04-.58.13-.19.06-.35.16-.48.31-.15.14-.25.3-.31.48-.09.18-.14.37-.13.58l.05.4c.07.25.2.47.39.66l.3.23c.23.14.49.2.76.2h0Z"/></svg>